<svg width="38" height="38" viewBox="0 0 38 38" fill="none" xmlns="http://www.w3.org/2000/svg">
<rect width="38" height="38" rx="19" fill="#DAE4F1"/>
<mask id="mask0_2426_4258" style="mask-type:alpha" maskUnits="userSpaceOnUse" x="7" y="7" width="25" height="25">
<rect x="7.45508" y="7.07031" width="24" height="24" fill="#D9D9D9"/>
</mask>
<g mask="url(#mask0_2426_4258)">
<path d="M19.4551 21.0703C19.1717 21.0703 18.9342 20.9745 18.7426 20.7828C18.5509 20.5911 18.4551 20.3536 18.4551 20.0703C18.4551 19.787 18.5509 19.5495 18.7426 19.3578C18.9342 19.1661 19.1717 19.0703 19.4551 19.0703C19.7384 19.0703 19.9759 19.1661 20.1676 19.3578C20.3592 19.5495 20.4551 19.787 20.4551 20.0703C20.4551 20.3536 20.3592 20.5911 20.1676 20.7828C19.9759 20.9745 19.7384 21.0703 19.4551 21.0703ZM15.4551 21.0703C15.1717 21.0703 14.9342 20.9745 14.7426 20.7828C14.5509 20.5911 14.4551 20.3536 14.4551 20.0703C14.4551 19.787 14.5509 19.5495 14.7426 19.3578C14.9342 19.1661 15.1717 19.0703 15.4551 19.0703C15.7384 19.0703 15.9759 19.1661 16.1676 19.3578C16.3592 19.5495 16.4551 19.787 16.4551 20.0703C16.4551 20.3536 16.3592 20.5911 16.1676 20.7828C15.9759 20.9745 15.7384 21.0703 15.4551 21.0703ZM23.4551 21.0703C23.1717 21.0703 22.9342 20.9745 22.7426 20.7828C22.5509 20.5911 22.4551 20.3536 22.4551 20.0703C22.4551 19.787 22.5509 19.5495 22.7426 19.3578C22.9342 19.1661 23.1717 19.0703 23.4551 19.0703C23.7384 19.0703 23.9759 19.1661 24.1676 19.3578C24.3592 19.5495 24.4551 19.787 24.4551 20.0703C24.4551 20.3536 24.3592 20.5911 24.1676 20.7828C23.9759 20.9745 23.7384 21.0703 23.4551 21.0703ZM19.4551 25.0703C19.1717 25.0703 18.9342 24.9745 18.7426 24.7828C18.5509 24.5911 18.4551 24.3536 18.4551 24.0703C18.4551 23.787 18.5509 23.5495 18.7426 23.3578C18.9342 23.1661 19.1717 23.0703 19.4551 23.0703C19.7384 23.0703 19.9759 23.1661 20.1676 23.3578C20.3592 23.5495 20.4551 23.787 20.4551 24.0703C20.4551 24.3536 20.3592 24.5911 20.1676 24.7828C19.9759 24.9745 19.7384 25.0703 19.4551 25.0703ZM15.4551 25.0703C15.1717 25.0703 14.9342 24.9745 14.7426 24.7828C14.5509 24.5911 14.4551 24.3536 14.4551 24.0703C14.4551 23.787 14.5509 23.5495 14.7426 23.3578C14.9342 23.1661 15.1717 23.0703 15.4551 23.0703C15.7384 23.0703 15.9759 23.1661 16.1676 23.3578C16.3592 23.5495 16.4551 23.787 16.4551 24.0703C16.4551 24.3536 16.3592 24.5911 16.1676 24.7828C15.9759 24.9745 15.7384 25.0703 15.4551 25.0703ZM23.4551 25.0703C23.1717 25.0703 22.9342 24.9745 22.7426 24.7828C22.5509 24.5911 22.4551 24.3536 22.4551 24.0703C22.4551 23.787 22.5509 23.5495 22.7426 23.3578C22.9342 23.1661 23.1717 23.0703 23.4551 23.0703C23.7384 23.0703 23.9759 23.1661 24.1676 23.3578C24.3592 23.5495 24.4551 23.787 24.4551 24.0703C24.4551 24.3536 24.3592 24.5911 24.1676 24.7828C23.9759 24.9745 23.7384 25.0703 23.4551 25.0703ZM12.4551 29.0703C11.9051 29.0703 11.4342 28.8745 11.0426 28.4828C10.6509 28.0911 10.4551 27.6203 10.4551 27.0703V13.0703C10.4551 12.5203 10.6509 12.0495 11.0426 11.6578C11.4342 11.2661 11.9051 11.0703 12.4551 11.0703H13.4551V9.07031H15.4551V11.0703H23.4551V9.07031H25.4551V11.0703H26.4551C27.0051 11.0703 27.4759 11.2661 27.8676 11.6578C28.2592 12.0495 28.4551 12.5203 28.4551 13.0703V27.0703C28.4551 27.6203 28.2592 28.0911 27.8676 28.4828C27.4759 28.8745 27.0051 29.0703 26.4551 29.0703H12.4551ZM12.4551 27.0703H26.4551V17.0703H12.4551V27.0703Z" fill="#376095"/>
</g>
</svg>
