<svg width="21" height="20" viewBox="0 0 21 20" fill="none" xmlns="http://www.w3.org/2000/svg">
<path d="M8.16732 0.833008V2.49967H13.1673V0.833008H14.834V2.49967H18.1673C18.6276 2.49967 19.0007 2.87277 19.0007 3.33301V16.6663C19.0007 17.1266 18.6276 17.4997 18.1673 17.4997H3.16732C2.70708 17.4997 2.33398 17.1266 2.33398 16.6663V3.33301C2.33398 2.87277 2.70708 2.49967 3.16732 2.49967H6.50065V0.833008H8.16732ZM17.334 9.16634H4.00065V15.833H17.334V9.16634ZM7.33398 10.833V12.4997H5.66732V10.833H7.33398ZM11.5007 10.833V12.4997H9.83398V10.833H11.5007ZM15.6673 10.833V12.4997H14.0007V10.833H15.6673ZM6.50065 4.16634H4.00065V7.49967H17.334V4.16634H14.834V5.83301H13.1673V4.16634H8.16732V5.83301H6.50065V4.16634Z" fill="#5C4DB1"/>
</svg>
