<svg width="20" height="20" viewBox="0 0 16 17" fill="none" xmlns="http://www.w3.org/2000/svg">
    <path d="M4.66602 4.4821H1.33268V5.81543H2.66602L2.66602 14.4821C2.66602 14.8503 2.96448 15.1488 3.33268 15.1488L12.666 15.1488C13.0342 15.1488 13.3327 14.8503 13.3327 14.4821L13.3327 5.81543H14.666V4.4821H11.3327V2.4821C11.3327 2.11391 11.0342 1.81543 10.666 1.81543L5.33268 1.81543C4.96448 1.81543 4.66602 2.11391 4.66602 2.4821V4.4821ZM3.99935 5.81543L11.9993 5.81543L11.9993 13.8154L3.99935 13.8154L3.99935 5.81543ZM9.99935 7.81543H8.66602V11.8154H9.99935V7.81543ZM7.33268 7.81543H5.99935L5.99935 11.8154H7.33268V7.81543ZM9.99935 3.14876V4.4821L5.99935 4.4821V3.14876H9.99935Z"
          fill="#CF0505"/>
</svg>
