<svg width="238" height="54" viewBox="0 0 238 54" fill="none" xmlns="http://www.w3.org/2000/svg">
<path d="M199.705 1.08594C217.376 5.26584 229.693 10.7199 235.031 16.7294C240.369 22.739 238.478 29.022 229.608 34.7507C220.738 40.4794 205.304 45.3849 185.34 48.8208C165.377 52.2567 141.82 54.0619 117.774 53.9984C93.7283 53.9349 70.3218 52.0057 50.6386 48.4651C30.9554 44.9245 15.9192 39.9386 7.51115 34.1643C-0.896858 28.39 -2.28211 22.0983 3.53792 16.1182C9.35795 10.1381 22.1102 4.75025 40.1143 0.664552L41.7596 1.14084C24.131 5.14132 11.6448 10.4168 5.94615 16.2722C0.247506 22.1275 1.60387 28.288 9.8365 33.9418C18.0691 39.5957 32.7917 44.4776 52.0644 47.9444C71.3371 51.4112 94.2554 53.3001 117.8 53.3623C141.344 53.4244 164.409 51.6569 183.957 48.2927C203.504 44.9284 218.616 40.1252 227.301 34.516C235.986 28.9068 237.838 22.7548 232.611 16.8706C227.384 10.9864 215.325 5.64615 198.021 1.55344L199.705 1.08594Z" fill="#D2FE21"/>
</svg>
