<svg width="38" height="38" viewBox="0 0 38 38" fill="none" xmlns="http://www.w3.org/2000/svg">
<rect width="38" height="38" rx="19" fill="#DAE4F1"/>
<mask id="mask0_2426_4261" style="mask-type:alpha" maskUnits="userSpaceOnUse" x="7" y="7" width="25" height="25">
<rect x="7.45508" y="7.07031" width="24" height="24" fill="#D9D9D9"/>
</mask>
<g mask="url(#mask0_2426_4261)">
<path d="M19.4551 19.0703C20.0051 19.0703 20.4759 18.8745 20.8676 18.4828C21.2592 18.0911 21.4551 17.6203 21.4551 17.0703C21.4551 16.5203 21.2592 16.0495 20.8676 15.6578C20.4759 15.2661 20.0051 15.0703 19.4551 15.0703C18.9051 15.0703 18.4342 15.2661 18.0426 15.6578C17.6509 16.0495 17.4551 16.5203 17.4551 17.0703C17.4551 17.6203 17.6509 18.0911 18.0426 18.4828C18.4342 18.8745 18.9051 19.0703 19.4551 19.0703ZM19.4551 29.0703C16.7717 26.787 14.7676 24.6661 13.4426 22.7078C12.1176 20.7495 11.4551 18.937 11.4551 17.2703C11.4551 14.7703 12.2592 12.7786 13.8676 11.2953C15.4759 9.81198 17.3384 9.07031 19.4551 9.07031C21.5717 9.07031 23.4342 9.81198 25.0426 11.2953C26.6509 12.7786 27.4551 14.7703 27.4551 17.2703C27.4551 18.937 26.7926 20.7495 25.4676 22.7078C24.1426 24.6661 22.1384 26.787 19.4551 29.0703Z" fill="#376095"/>
</g>
</svg>
