<svg width="134" height="51" viewBox="0 0 134 51" fill="none" xmlns="http://www.w3.org/2000/svg">
<g clip-path="url(#clip0_2178_6185)">
<path d="M5.48295 32.4135C2.77701 32.4135 0.884766 31.2692 0.884766 27.6061V0.366333H6.83273V25.3175C6.83273 27.1491 7.28265 27.6061 9.08555 27.6061H26.0296V32.4135H5.48295Z" fill="url(#paint0_linear_2178_6185)"/>
<path d="M28.375 32.4135V0.366333H34.323V32.4135H28.375Z" fill="url(#paint1_linear_2178_6185)"/>
<path d="M70.8757 16.3899C70.8757 29.3469 66.4147 32.7798 54.6528 32.7798C42.9803 32.7798 38.4746 29.3469 38.4746 16.3899C38.4746 3.43293 42.9803 0 54.6528 0C66.4147 0 70.8757 3.43293 70.8757 16.3899ZM54.6496 27.9724C62.4005 27.9724 64.7458 25.5444 64.7458 16.3899C64.7458 7.23542 62.4037 4.8074 54.6496 4.8074C46.8956 4.8074 44.6013 7.23218 44.6013 16.3899C44.6013 25.5476 46.8988 27.9724 54.6496 27.9724Z" fill="url(#paint2_linear_2178_6185)"/>
<path d="M96.4736 20.7857V0.366333H102.422V20.7857C102.422 29.9434 97.2841 32.7799 88.7196 32.7799C80.1582 32.7799 75.0176 29.9401 75.0176 20.7857V0.366333H80.9655V20.7857C80.9655 25.8232 83.3077 27.9724 88.7164 27.9724C94.1315 27.9724 96.4736 25.8232 96.4736 20.7857Z" fill="url(#paint3_linear_2178_6185)"/>
<path d="M106.524 27.6061H124.011C126.851 27.6061 126.985 25.2267 126.985 24.1278C126.985 22.8927 126.669 21.3821 123.922 20.51L111.483 16.526C107.338 15.1969 106.119 12.4966 106.119 8.10091C106.119 3.52367 108.327 0.363037 113.331 0.363037H131.494V5.17044H114.91C113.423 5.17044 112.252 6.08459 112.252 8.37646C112.252 9.79631 112.479 11.1708 115.003 11.9942L126.541 15.7026C131.139 17.1679 133.121 19.1356 133.121 24.1731C133.121 28.8898 131.229 32.4135 126.359 32.4135H106.531V27.6061H106.524Z" fill="url(#paint4_linear_2178_6185)"/>
</g>
<path d="M7.39782 39.0962H8.44788V46.4467H7.39782V39.0962ZM3.17655 46.4467H2.12649V39.0962H3.17655V46.4467ZM7.49232 43.1705H3.07155V42.2569H7.49232V43.1705ZM17.1689 42.2674H20.9492V43.1599H17.1689V42.2674ZM17.2634 45.5331H21.5477V46.4467H16.2134V39.0962H21.4007V40.0098H17.2634V45.5331ZM27.7003 46.4467L31.029 39.0962H32.0685L35.4077 46.4467H34.3052L31.3335 39.6842H31.7535L28.7818 46.4467H27.7003ZM29.1178 44.609L29.4014 43.769H33.5386L33.8431 44.609H29.1178ZM42.0696 46.4467V39.0962H43.1196V45.5331H47.0994V46.4467H42.0696ZM54.6422 46.4467V40.0098H52.1221V39.0962H58.202V40.0098H55.6818V46.4467H54.6422ZM70.1823 39.0962H71.2324V46.4467H70.1823V39.0962ZM65.961 46.4467H64.911V39.0962H65.961V46.4467ZM70.2768 43.1705H65.856V42.2569H70.2768V43.1705ZM90.6699 46.5307C90.1099 46.5307 89.5918 46.4397 89.1158 46.2576C88.6468 46.0686 88.2372 45.8061 87.8872 45.4701C87.5442 45.1271 87.2747 44.728 87.0787 44.273C86.8827 43.818 86.7847 43.3175 86.7847 42.7714C86.7847 42.2254 86.8827 41.7249 87.0787 41.2698C87.2747 40.8148 87.5477 40.4193 87.8977 40.0833C88.2477 39.7402 88.6573 39.4777 89.1263 39.2957C89.6023 39.1067 90.1204 39.0122 90.6804 39.0122C91.2474 39.0122 91.769 39.1102 92.245 39.3062C92.728 39.4952 93.1376 39.7787 93.4736 40.1568L92.791 40.8183C92.511 40.5243 92.196 40.3073 91.846 40.1673C91.496 40.0203 91.1214 39.9467 90.7224 39.9467C90.3094 39.9467 89.9244 40.0168 89.5673 40.1568C89.2173 40.2968 88.9128 40.4928 88.6538 40.7448C88.3948 40.9968 88.1917 41.2978 88.0447 41.6479C87.9047 41.9909 87.8347 42.3654 87.8347 42.7714C87.8347 43.1775 87.9047 43.5555 88.0447 43.9055C88.1917 44.2485 88.3948 44.546 88.6538 44.7981C88.9128 45.0501 89.2173 45.2461 89.5673 45.3861C89.9244 45.5261 90.3094 45.5961 90.7224 45.5961C91.1214 45.5961 91.496 45.5261 91.846 45.3861C92.196 45.2391 92.511 45.0151 92.791 44.714L93.4736 45.3756C93.1376 45.7536 92.728 46.0406 92.245 46.2366C91.769 46.4327 91.2439 46.5307 90.6699 46.5307ZM99.2495 46.4467L102.578 39.0962H103.618L106.957 46.4467H105.854L102.883 39.6842H103.303L100.331 46.4467H99.2495ZM100.667 44.609L100.951 43.769H105.088L105.392 44.609H100.667ZM113.619 46.4467V39.0962H116.486C117.13 39.0962 117.679 39.1977 118.134 39.4007C118.589 39.6037 118.939 39.8977 119.184 40.2828C119.429 40.6678 119.552 41.1263 119.552 41.6584C119.552 42.1904 119.429 42.6489 119.184 43.0339C118.939 43.412 118.589 43.7025 118.134 43.9055C117.679 44.1085 117.13 44.21 116.486 44.21H114.196L114.669 43.727V46.4467H113.619ZM118.533 46.4467L116.664 43.7795H117.788L119.678 46.4467H118.533ZM114.669 43.832L114.196 43.3175H116.454C117.126 43.3175 117.634 43.174 117.977 42.8869C118.327 42.5929 118.502 42.1834 118.502 41.6584C118.502 41.1333 118.327 40.7273 117.977 40.4403C117.634 40.1533 117.126 40.0098 116.454 40.0098H114.196L114.669 39.4847V43.832ZM127.769 42.2674H131.549V43.1599H127.769V42.2674ZM127.864 45.5331H132.148V46.4467H126.814V39.0962H132.001V40.0098H127.864V45.5331Z" fill="#376095"/>
<defs>
<linearGradient id="paint0_linear_2178_6185" x1="-14.1438" y1="9.37962" x2="135.57" y2="61.0249" gradientUnits="userSpaceOnUse">
<stop stop-color="#28B8D2"/>
<stop offset="0.3659" stop-color="#3163AD"/>
<stop offset="0.595" stop-color="#334CA3"/>
<stop offset="1" stop-color="#1CAED3"/>
</linearGradient>
<linearGradient id="paint1_linear_2178_6185" x1="-11.3217" y1="1.19879" x2="138.392" y2="52.844" gradientUnits="userSpaceOnUse">
<stop stop-color="#28B8D2"/>
<stop offset="0.3659" stop-color="#3163AD"/>
<stop offset="0.595" stop-color="#334CA3"/>
<stop offset="1" stop-color="#1CAED3"/>
</linearGradient>
<linearGradient id="paint2_linear_2178_6185" x1="-8.77026" y1="-6.19698" x2="140.943" y2="45.4483" gradientUnits="userSpaceOnUse">
<stop stop-color="#28B8D2"/>
<stop offset="0.3659" stop-color="#3163AD"/>
<stop offset="0.595" stop-color="#334CA3"/>
<stop offset="1" stop-color="#1CAED3"/>
</linearGradient>
<linearGradient id="paint3_linear_2178_6185" x1="-4.59084" y1="-18.3126" x2="145.123" y2="33.3327" gradientUnits="userSpaceOnUse">
<stop stop-color="#28B8D2"/>
<stop offset="0.3659" stop-color="#3163AD"/>
<stop offset="0.595" stop-color="#334CA3"/>
<stop offset="1" stop-color="#1CAED3"/>
</linearGradient>
<linearGradient id="paint4_linear_2178_6185" x1="-1.73444" y1="-26.5949" x2="147.979" y2="25.0503" gradientUnits="userSpaceOnUse">
<stop stop-color="#28B8D2"/>
<stop offset="0.3659" stop-color="#3163AD"/>
<stop offset="0.595" stop-color="#334CA3"/>
<stop offset="1" stop-color="#1CAED3"/>
</linearGradient>
<clipPath id="clip0_2178_6185">
<rect width="132.23" height="32.7798" fill="white" transform="translate(0.884766)"/>
</clipPath>
</defs>
</svg>
