<svg width="15" height="14" viewBox="0 0 15 14" fill="none" xmlns="http://www.w3.org/2000/svg">
<path d="M7.83903 13.998C5.89513 13.998 4.24262 13.3175 2.88151 11.9564C1.5204 10.5953 0.839844 8.94249 0.839844 6.99805C0.839844 5.0536 1.51991 3.40082 2.88005 2.03971C4.24019 0.678602 5.8918 -0.00195312 7.83486 -0.00195312C8.01621 -0.00195312 8.19432 0.00499132 8.3692 0.0188802C8.54407 0.0327691 8.72179 0.0536024 8.90234 0.0813802C8.36068 0.484158 7.93012 0.984158 7.61068 1.58138C7.29123 2.1786 7.13151 2.81749 7.13151 3.49805C7.13151 4.6786 7.53776 5.67513 8.35026 6.48763C9.16276 7.30013 10.1593 7.70638 11.3398 7.70638C12.0204 7.70638 12.6593 7.54666 13.2565 7.22721C13.8537 6.90777 14.3537 6.47721 14.7565 5.93555C14.7843 6.1161 14.8051 6.29382 14.819 6.46869C14.8329 6.64357 14.8398 6.82168 14.8398 7.00303C14.8398 8.9461 14.159 10.5977 12.7974 11.9578C11.4357 13.318 9.78292 13.998 7.83903 13.998ZM7.83984 12.498C8.97873 12.498 10.0119 12.1711 10.9393 11.5173C11.8668 10.8635 12.5489 10.0099 12.9857 8.95638C12.7079 9.02583 12.4324 9.08485 12.1593 9.13346C11.8861 9.18207 11.613 9.20638 11.3398 9.20638C9.75848 9.20638 8.41175 8.65033 7.29966 7.53823C6.18756 6.42614 5.63151 5.07941 5.63151 3.49805C5.63151 3.22489 5.65582 2.95175 5.70443 2.67861C5.75304 2.40546 5.81207 2.12999 5.88151 1.85221C4.828 2.28898 3.97434 2.97109 3.32055 3.89855C2.66675 4.82599 2.33984 5.85916 2.33984 6.99805C2.33984 8.52582 2.87457 9.82444 3.94401 10.8939C5.01345 11.9633 6.31207 12.498 7.83984 12.498Z" fill="#1C1B1F"/>
</svg>
