<svg width="192" height="192" viewBox="0 0 192 192" fill="none" xmlns="http://www.w3.org/2000/svg">
<path d="M180.837 100.742C176.737 116.042 166.999 133.11 151.591 139.362C128.314 148.812 127.301 168.4 84.2138 170.721C77.9244 171.087 71.6139 170.769 65.3931 169.773C62.3514 169.277 59.3446 168.587 56.3913 167.706C30.3446 159.939 15.1255 138.844 11.8001 115.574C7.42387 84.9518 27.4795 68.2369 40.6045 58.3183C53.7295 48.3998 67.3569 13.5239 109.697 10.9119C116.161 10.4928 122.653 10.821 129.043 11.89C143.618 14.3715 158.86 21.4786 168.441 33.1155C169.159 33.9899 169.852 34.8849 170.52 35.8003C183.568 53.7618 186.429 79.8813 180.837 100.742Z" fill="#376095"/>
<path opacity="0.7" d="M180.837 100.742C176.737 116.042 166.999 133.11 151.591 139.362C128.314 148.812 127.301 168.4 84.2138 170.721C77.9244 171.087 71.6139 170.769 65.3931 169.773C62.3514 169.277 59.3446 168.587 56.3913 167.706C30.3446 159.939 15.1255 138.844 11.8001 115.574C7.42387 84.9518 27.4795 68.2369 40.6045 58.3183C53.7295 48.3998 67.3569 13.5239 109.697 10.9119C116.161 10.4928 122.653 10.821 129.043 11.89C143.618 14.3715 158.86 21.4786 168.441 33.1155C169.159 33.9899 169.852 34.8849 170.52 35.8003C183.568 53.7618 186.429 79.8813 180.837 100.742Z" fill="white"/>
<path opacity="0.3" d="M34.0037 42.4702V40.2954C34.0037 36.0074 31.1501 34.4886 28.2505 34.4886C27.4888 34.4751 26.7324 34.6168 26.0273 34.9052C25.3222 35.1935 24.6831 35.6224 24.1492 36.1657C23.6152 36.709 23.1974 37.3554 22.9213 38.0654C22.6453 38.7754 22.5166 39.5341 22.5433 40.2954V42.4702H21.7148V54.5059H34.7554V42.4702H34.0037ZM28.6187 49.094V51.2764H27.3837V49.094C27.0298 48.9507 26.7367 48.6888 26.5547 48.3532C26.3727 48.0176 26.3131 47.6291 26.3861 47.2543C26.4591 46.8796 26.6601 46.5418 26.9548 46.299C27.2495 46.0562 27.6194 45.9235 28.0012 45.9235C28.383 45.9235 28.7529 46.0562 29.0476 46.299C29.3422 46.5418 29.5433 46.8796 29.6162 47.2543C29.6892 47.6291 29.6296 48.0176 29.4476 48.3532C29.2656 48.6888 28.9726 48.9507 28.6187 49.094ZM32.1972 42.4817H24.2769V40.307C24.2749 39.2558 24.6903 38.2468 25.4317 37.5018C26.1732 36.7567 27.1802 36.3365 28.2313 36.3334C30.4175 36.3334 32.1972 37.8292 32.1972 40.2954V42.4817Z" stroke="black" stroke-width="0.383547" stroke-miterlimit="10"/>
<path opacity="0.3" d="M80.002 19.8025H43.0511C40.1956 19.8025 37.8809 22.1164 37.8809 24.9708C37.8809 27.8252 40.1956 30.1391 43.0511 30.1391H80.002C82.8574 30.1391 85.1722 27.8252 85.1722 24.9708C85.1722 22.1164 82.8574 19.8025 80.002 19.8025Z" stroke="black" stroke-width="0.383547" stroke-miterlimit="10"/>
<g opacity="0.3">
<path d="M47.7158 24.4894L48.7936 25.6784L48.2758 26.062L47.4704 24.6467L46.6764 26.0811L46.1586 25.6976L47.2287 24.5086L45.6523 24.1634L45.8441 23.5421L47.3284 24.1941L47.1443 22.587H47.7964L47.6238 24.1941L49.1081 23.5536L49.2999 24.1749L47.7158 24.4894Z" fill="black"/>
<path d="M51.7314 24.4894L52.8091 25.6784L52.276 26.0811L51.4744 24.6659L50.692 26.0811L50.1742 25.6976L51.2404 24.5086L49.6641 24.1634L49.8597 23.5421L51.344 24.1941L51.1599 22.587H51.8119L51.6393 24.1941L53.1237 23.5536L53.3154 24.1749L51.7314 24.4894Z" fill="black"/>
<path d="M55.7278 24.4894L56.8056 25.6784L56.2878 26.062L55.4862 24.6467L54.7076 26.0811L54.1936 25.6976L55.2599 24.5086L53.6797 24.1634L53.8753 23.5421L55.3596 24.1941L55.1755 22.587H55.8275L55.655 24.1941L57.1393 23.5536L57.331 24.1749L55.7278 24.4894Z" fill="black"/>
<path d="M59.7588 24.4894L60.8366 25.6784L60.3303 26.0811L59.5248 24.6659L58.7232 26.0811L58.2054 25.6976L59.2717 24.5086L57.6953 24.1634L57.8871 23.5421L59.3714 24.1941L59.1796 22.587H59.8278L59.6552 24.1941L61.1396 23.5536L61.3352 24.1749L59.7588 24.4894Z" fill="black"/>
<path d="M63.7821 24.4894L64.8599 25.6784L64.3421 26.062L63.5366 24.6467L62.7388 26.0811L62.2172 25.6976L63.2873 24.5086L61.7109 24.1634L61.9027 23.5421L63.387 24.1941L63.2029 22.587H63.855L63.6824 24.1941L65.1667 23.5536L65.3585 24.1749L63.7821 24.4894Z" fill="black"/>
<path d="M67.79 24.4894L68.8677 25.6784L68.3461 26.062L67.5445 24.6467L66.7506 26.0811L66.2328 25.6976L67.299 24.5086L65.7227 24.1634L65.9183 23.5421L67.4026 24.1941L67.2338 22.587H67.8859L67.7133 24.1941L69.1976 23.5536L69.3894 24.1749L67.79 24.4894Z" fill="black"/>
<path d="M71.8018 24.4894L72.8795 25.6784L72.3617 26.062L71.5601 24.6467L70.7662 26.0811L70.2484 25.6976L71.3147 24.5086L69.7383 24.1634L69.9339 23.5421L71.4182 24.1941L71.2341 22.587H71.8861L71.7135 24.1941L73.1979 23.5536L73.3896 24.1749L71.8018 24.4894Z" fill="black"/>
<path d="M75.8174 24.4894L76.8952 25.6784L76.3774 26.062L75.5719 24.6467L74.7818 26.0811L74.264 25.6976L75.3303 24.5086L73.7539 24.1634L73.9457 23.5421L75.43 24.1941L75.2497 22.587H75.8979L75.7253 24.1941L77.2058 23.5536L77.4014 24.1749L75.8174 24.4894Z" fill="black"/>
</g>
<path opacity="0.3" d="M32.2205 90.3023C32.1026 90.0438 31.9185 89.8211 31.6867 89.6567C31.455 89.4924 31.184 89.3922 30.901 89.3664H30.0304V88.5993C30.7027 87.7524 31.0642 86.7005 31.0545 85.6192C31.0545 83.6631 29.877 82.0752 28.4233 82.0752C26.9697 82.0752 25.8114 83.6631 25.8114 85.6192C25.8033 86.6618 26.136 87.6786 26.7587 88.5149V89.3664H25.6081C25.3219 89.389 25.0466 89.4862 24.8097 89.6484C24.5728 89.8106 24.3826 90.0321 24.258 90.2908L22.6816 92.9449H33.7546L32.2205 90.3023Z" stroke="black" stroke-width="0.383547" stroke-miterlimit="10"/>
<path opacity="0.3" d="M35.9021 91.4418C37.6466 87.2302 35.6466 82.402 31.4351 80.6575C27.2236 78.913 22.3953 80.913 20.6508 85.1245C18.9064 89.336 20.9063 94.1643 25.1178 95.9088C29.3293 97.6532 34.1576 95.6533 35.9021 91.4418Z" stroke="black" stroke-width="0.383547" stroke-miterlimit="10"/>
<g opacity="0.2">
<path d="M89.9897 124.173C80.2512 118.761 72.7725 110.04 68.9075 99.5905C65.0426 89.1408 65.0468 77.6526 68.9194 67.2058C72.792 56.7589 80.277 48.0439 90.0195 42.6384C99.7619 37.2329 111.118 35.4942 122.031 37.7372L120.842 41.7261L134.098 38.5695L124.739 28.6702L123.588 32.4788C119.992 31.709 116.324 31.3233 112.646 31.3281C83.9143 31.3281 60.5371 54.7015 60.5371 83.433C60.5448 92.9962 63.1813 102.373 68.1586 110.539C73.1358 118.705 80.2621 125.346 88.7585 129.735L85.4715 124.269L89.9897 124.173Z" fill="black"/>
<path d="M131.885 34.9949L135.978 39.3251L130.953 40.5218C141.93 45.1978 150.698 53.903 155.452 64.8464C160.206 75.7897 160.585 88.139 156.512 99.3535C152.438 110.568 144.222 119.795 133.552 125.136C122.883 130.477 110.573 131.525 99.1535 128.066L100.772 125.132L87.1523 125.397L94.1904 137.061L96.461 132.949C101.689 134.662 107.156 135.534 112.658 135.53C141.39 135.53 164.767 112.157 164.767 83.4215C164.754 72.9876 161.615 62.7969 155.754 54.1648C149.893 45.5327 141.579 38.8554 131.885 34.9949Z" fill="black"/>
</g>
<path d="M174.243 26.553L165.46 24.8769V24.9076C165.022 25.7936 164.309 26.2845 163.646 26.1579L163.262 26.0851C162.598 25.9623 162.111 25.2374 162.035 24.2517V24.221L153.251 22.5449C152.67 22.4331 152.072 22.4372 151.492 22.5568C150.912 22.6764 150.361 22.9093 149.871 23.2421C149.382 23.5748 148.962 24.0009 148.637 24.496C148.312 24.9911 148.088 25.5454 147.978 26.1273L136.579 83.9316C136.451 84.606 136.596 85.3037 136.982 85.8711C137.368 86.4386 137.964 86.8295 138.638 86.9578L163.419 91.6869C163.753 91.7509 164.096 91.7484 164.429 91.6797C164.762 91.611 165.077 91.4773 165.359 91.2864C165.64 91.0954 165.88 90.851 166.067 90.5669C166.253 90.2829 166.382 89.9649 166.445 89.6311L177.837 31.8344C177.949 31.2515 177.945 30.6522 177.825 30.0709C177.705 29.4896 177.471 28.9377 177.137 28.447C176.803 27.9562 176.376 27.5363 175.879 27.2112C175.382 26.8862 174.826 26.6625 174.243 26.553Z" fill="#376095" stroke="#263238" stroke-width="0.383547" stroke-linecap="round" stroke-linejoin="round"/>
<path d="M177.591 33.1155L177.837 31.8268C177.948 31.2444 177.943 30.6459 177.823 30.0655C177.702 29.485 177.468 28.9341 177.134 28.4442C176.8 27.9543 176.373 27.535 175.877 27.2105C175.381 26.886 174.826 26.6626 174.243 26.553L165.46 24.8769V24.9076C165.023 25.7936 164.309 26.2845 163.646 26.1579L163.262 26.0851C162.599 25.9623 162.112 25.2374 162.035 24.2517V24.221L153.252 22.5449C152.67 22.4331 152.072 22.4372 151.492 22.5568C150.912 22.6764 150.361 22.9093 149.872 23.2421C149.382 23.5748 148.962 24.0009 148.637 24.496C148.312 24.9911 148.088 25.5454 147.978 26.1273L147.729 27.4198L177.591 33.1155Z" fill="white" stroke="#263238" stroke-width="0.383547" stroke-linecap="round" stroke-linejoin="round"/>
<path d="M175.666 51.6254L176.736 46.0257L176.229 45.9298L179.424 31.0673C179.647 29.8926 179.394 28.6775 178.722 27.6888C178.05 26.7001 177.013 26.0185 175.838 25.7936L152.058 21.2524C150.883 21.0288 149.668 21.281 148.679 21.9535C147.69 22.626 147.009 23.6637 146.785 24.8385L135.063 84.3228C134.952 84.9044 134.956 85.5023 135.075 86.0823C135.195 86.6623 135.428 87.213 135.76 87.7028C136.093 88.1927 136.519 88.6121 137.014 88.9371C137.51 89.262 138.064 89.4862 138.646 89.5966L162.426 94.1378C163.009 94.2519 163.609 94.2496 164.191 94.1311C164.773 94.0126 165.326 93.7803 165.818 93.4474C166.311 93.1145 166.732 92.6877 167.059 92.1914C167.386 91.6951 167.611 91.1391 167.722 90.5554L174.243 56.3124L174.749 56.4121L175.382 53.0944L174.876 52.9985L175.156 51.5296L175.666 51.6254ZM166.925 87.1265C166.699 88.3009 166.016 89.3377 165.027 90.0094C164.037 90.681 162.822 90.9326 161.647 90.7089L140.64 86.7008C139.466 86.4759 138.429 85.7941 137.758 84.8053C137.086 83.8164 136.834 82.6013 137.058 81.427L147.974 26.1272C148.084 25.5454 148.308 24.9911 148.633 24.496C148.958 24.0009 149.377 23.5748 149.867 23.242C150.357 22.9093 150.908 22.6764 151.488 22.5568C152.068 22.4372 152.666 22.4331 153.247 22.5449L162.031 24.221V24.2517C162.115 25.2374 162.594 25.9623 163.258 26.0851L163.641 26.1579C164.301 26.2845 165.018 25.7744 165.456 24.9076V24.8769L174.243 26.553C174.826 26.6625 175.382 26.8862 175.879 27.2112C176.375 27.5363 176.803 27.9562 177.137 28.4469C177.471 28.9377 177.705 29.4896 177.825 30.0709C177.945 30.6522 177.949 31.2515 177.837 31.8344L166.925 87.1265Z" fill="#707070" stroke="#263238" stroke-width="0.383547" stroke-linecap="round" stroke-linejoin="round"/>
<path d="M174.944 26.2691L152.698 22.0233C151.453 21.7862 150.166 22.053 149.118 22.765C148.07 23.477 147.348 24.576 147.11 25.8204L135.741 83.548C135.623 84.1643 135.628 84.7978 135.755 85.4123C135.882 86.0267 136.129 86.6101 136.482 87.1291C136.834 87.6481 137.286 88.0925 137.81 88.4369C138.335 88.7813 138.922 89.019 139.538 89.1363L161.784 93.3784C162.4 93.4963 163.034 93.4916 163.648 93.3645C164.263 93.2375 164.846 92.9906 165.365 92.6379C165.884 92.2853 166.329 91.8338 166.673 91.3093C167.017 90.7849 167.255 90.1976 167.372 89.5812L178.741 31.8536C178.978 30.6095 178.711 29.3223 177.999 28.275C177.287 27.2277 176.188 26.5062 174.944 26.2691ZM166.924 87.1265C166.698 88.3009 166.015 89.3377 165.026 90.0094C164.036 90.681 162.821 90.9326 161.646 90.7089L140.639 86.7008C139.465 86.4759 138.428 85.7941 137.757 84.8053C137.085 83.8164 136.833 82.6013 137.057 81.427L147.973 26.1272C148.083 25.5454 148.307 24.9911 148.632 24.496C148.957 24.0009 149.376 23.5748 149.866 23.242C150.356 22.9093 150.907 22.6764 151.487 22.5568C152.067 22.4372 152.665 22.4331 153.246 22.5449L162.03 24.221V24.2517C162.114 25.2374 162.593 25.9623 163.257 26.085L163.641 26.1579C164.3 26.2845 165.017 25.7744 165.455 24.9076V24.8769L174.242 26.553C174.825 26.6625 175.381 26.8862 175.878 27.2112C176.375 27.5362 176.802 27.9562 177.136 28.4469C177.47 28.9377 177.704 29.4896 177.824 30.0709C177.944 30.6522 177.948 31.2515 177.836 31.8344L166.924 87.1265Z" fill="#263238" stroke="#263238" stroke-width="0.383547" stroke-linecap="round" stroke-linejoin="round"/>
<path d="M164.033 24.8231C164.049 24.7412 164.041 24.6565 164.008 24.5795C163.976 24.5026 163.922 24.4369 163.852 24.3909C163.782 24.3448 163.701 24.3204 163.617 24.3208C163.534 24.3212 163.452 24.3463 163.383 24.3929C163.314 24.4396 163.26 24.5057 163.229 24.5829C163.197 24.6601 163.189 24.745 163.206 24.8267C163.222 24.9085 163.263 24.9835 163.322 25.0423C163.381 25.101 163.457 25.1409 163.539 25.1568C163.593 25.1679 163.649 25.1681 163.704 25.1573C163.758 25.1465 163.81 25.1249 163.856 25.0938C163.902 25.0628 163.941 25.0228 163.972 24.9763C164.002 24.9299 164.023 24.8778 164.033 24.8231Z" fill="#707070"/>
<path d="M151.125 24.01C151.045 24.4319 150.542 24.4933 150.481 24.8117V24.8347L150.937 24.9229L150.911 25.0648L150.297 24.9305L150.32 24.8117C150.404 24.3629 150.895 24.3629 150.968 23.9717C150.995 23.8298 150.968 23.7416 150.849 23.7224C150.73 23.7032 150.669 23.7722 150.646 23.895L150.623 24.0177L150.477 23.9909V23.8758C150.519 23.6648 150.642 23.5421 150.861 23.5805C150.91 23.584 150.957 23.5991 151 23.6247C151.042 23.6502 151.077 23.6854 151.103 23.7274C151.129 23.7694 151.145 23.8169 151.148 23.866C151.152 23.9152 151.144 23.9645 151.125 24.01Z" fill="#263238"/>
<path d="M151.89 24.1634V24.198C151.884 24.2587 151.859 24.316 151.818 24.3615C151.778 24.407 151.723 24.4384 151.664 24.4511C151.715 24.485 151.754 24.5348 151.775 24.5929C151.796 24.651 151.797 24.7144 151.779 24.7733L151.76 24.8807C151.717 25.0955 151.591 25.2144 151.376 25.176C151.161 25.1376 151.088 24.9766 151.131 24.7618V24.6659L151.276 24.6927L151.253 24.8001C151.23 24.9267 151.253 25.0111 151.38 25.0303C151.506 25.0494 151.556 24.9881 151.583 24.8461L151.606 24.7388C151.629 24.6045 151.606 24.5278 151.468 24.501H151.384L151.411 24.3629H151.503C151.527 24.3673 151.552 24.3665 151.575 24.3605C151.599 24.3546 151.621 24.3436 151.641 24.3283C151.66 24.3131 151.676 24.2939 151.687 24.2721C151.698 24.2503 151.705 24.2263 151.706 24.2018V24.1366C151.733 23.9947 151.706 23.9103 151.583 23.8911C151.46 23.8719 151.403 23.9371 151.38 24.0637V24.1328L151.234 24.1059V24.0407C151.273 23.8298 151.399 23.7108 151.618 23.7492C151.836 23.7876 151.932 23.941 151.89 24.1634Z" fill="#263238"/>
<path d="M152.174 24.3169L152.135 24.5125L151.986 24.4818L152.024 24.29L152.174 24.3169ZM152.028 25.084L151.989 25.2796L151.84 25.2489L151.878 25.0571L152.028 25.084Z" fill="#263238"/>
<path d="M152.464 24.5048C152.491 24.4714 152.526 24.4464 152.566 24.4328C152.606 24.4192 152.65 24.4175 152.691 24.4281C152.871 24.4626 152.925 24.6084 152.886 24.8116L152.836 25.084C152.794 25.2987 152.668 25.4176 152.453 25.3754C152.238 25.3333 152.169 25.1798 152.207 24.965L152.227 24.8692L152.372 24.8998L152.353 25.0034C152.326 25.1261 152.353 25.2144 152.476 25.2335C152.599 25.2527 152.656 25.1913 152.679 25.0648L152.729 24.7925C152.756 24.6697 152.729 24.5815 152.606 24.5623C152.586 24.5572 152.565 24.5563 152.545 24.5596C152.524 24.5629 152.504 24.5703 152.487 24.5815C152.469 24.5926 152.454 24.6072 152.442 24.6243C152.43 24.6415 152.422 24.6608 152.418 24.6812V24.7119L152.273 24.6851L152.457 23.918L153.009 24.0215L152.982 24.1596L152.572 24.0829L152.464 24.5048Z" fill="#263238"/>
<path d="M153.749 24.5086V24.547L153.603 24.5202V24.4856C153.626 24.3591 153.603 24.2747 153.473 24.2555C153.343 24.2363 153.289 24.2977 153.262 24.4473L153.201 24.758C153.226 24.7151 153.265 24.6819 153.312 24.6632C153.358 24.6445 153.409 24.6414 153.458 24.6544C153.634 24.6889 153.692 24.8308 153.653 25.0379L153.611 25.2489C153.609 25.295 153.598 25.3402 153.576 25.3811C153.555 25.4221 153.525 25.4579 153.488 25.4858C153.452 25.5137 153.409 25.5331 153.364 25.5425C153.319 25.552 153.272 25.5512 153.227 25.5404C153.182 25.5339 153.138 25.5173 153.099 25.4918C153.06 25.4663 153.027 25.4326 153.003 25.393C152.979 25.3534 152.964 25.3089 152.959 25.2628C152.954 25.2167 152.959 25.17 152.974 25.1262L153.112 24.4166C153.155 24.1941 153.281 24.0752 153.496 24.1174C153.54 24.1234 153.582 24.1387 153.619 24.1624C153.657 24.1861 153.688 24.2177 153.712 24.2548C153.737 24.292 153.752 24.3339 153.759 24.3777C153.765 24.4215 153.762 24.4662 153.749 24.5086ZM153.17 24.9305L153.128 25.1377C153.105 25.2642 153.128 25.3486 153.254 25.3716C153.381 25.3946 153.435 25.3294 153.461 25.2029L153.5 24.9919C153.523 24.8692 153.5 24.781 153.373 24.7618C153.247 24.7426 153.193 24.8116 153.17 24.9305Z" fill="#263238"/>
<path d="M168.972 27.481L168.576 27.4055L168.388 28.3888L168.784 28.4643L168.972 27.481Z" fill="#263238"/>
<path d="M169.54 27.3765L169.145 27.301L168.919 28.484L169.314 28.5595L169.54 27.3765Z" fill="#263238"/>
<path d="M170.091 27.3321L169.695 27.2566L169.443 28.579L169.839 28.6545L170.091 27.3321Z" fill="#263238"/>
<path d="M170.667 27.1928L170.271 27.1173L169.973 28.6846L170.368 28.7601L170.667 27.1928Z" fill="#263238"/>
<path d="M175.243 29.6635L172.881 29.2148L173.153 27.7688L175.52 28.2214L175.243 29.6635ZM173.034 29.1074L175.136 29.4909L175.362 28.3058L173.261 27.9222L173.034 29.1074Z" fill="#263238"/>
<path d="M174.683 28.3342L173.436 28.0963L173.264 28.993L174.512 29.2309L174.683 28.3342Z" fill="#263238"/>
<path d="M175.152 29.2078L174.855 29.1503L174.79 29.4886L175.087 29.5461L175.152 29.2078Z" fill="#263238"/>
<path d="M172.071 28.7353C172.056 28.7315 172.041 28.7235 172.029 28.7122C171.929 28.6032 171.796 28.5286 171.651 28.499C171.506 28.4694 171.355 28.4863 171.22 28.5473C171.21 28.5535 171.199 28.5577 171.187 28.5595C171.175 28.5613 171.164 28.5608 171.152 28.5579C171.141 28.555 171.13 28.5499 171.12 28.5428C171.111 28.5357 171.103 28.5268 171.097 28.5166C171.091 28.5066 171.087 28.4954 171.085 28.4838C171.083 28.4721 171.084 28.4602 171.087 28.4488C171.089 28.4373 171.095 28.4266 171.102 28.4172C171.109 28.4077 171.118 28.3998 171.128 28.3939C171.295 28.3112 171.485 28.2844 171.668 28.3176C171.852 28.3507 172.02 28.442 172.148 28.578C172.157 28.5862 172.163 28.5961 172.168 28.6069C172.173 28.6178 172.175 28.6295 172.175 28.6413C172.175 28.6531 172.173 28.6648 172.168 28.6756C172.163 28.6865 172.157 28.6964 172.148 28.7046C172.139 28.7153 172.127 28.7237 172.113 28.729C172.1 28.7343 172.086 28.7365 172.071 28.7353Z" fill="#263238"/>
<path d="M172.324 28.4707C172.311 28.4743 172.296 28.4743 172.282 28.4707C172.139 28.317 171.95 28.2118 171.744 28.1699C171.538 28.128 171.324 28.1513 171.132 28.2367C171.122 28.2428 171.11 28.2468 171.099 28.2485C171.087 28.2502 171.075 28.2496 171.064 28.2468C171.052 28.2439 171.042 28.2389 171.032 28.2319C171.023 28.2249 171.015 28.2161 171.009 28.206C171.003 28.196 170.999 28.1848 170.997 28.1732C170.995 28.1616 170.996 28.1497 170.999 28.1383C171.002 28.1269 171.007 28.1162 171.014 28.1068C171.021 28.0973 171.029 28.0893 171.04 28.0833C171.267 27.9756 171.522 27.9421 171.769 27.9875C172.016 28.0329 172.243 28.155 172.416 28.3364C172.425 28.3447 172.432 28.3545 172.436 28.3654C172.441 28.3762 172.443 28.3879 172.443 28.3997C172.443 28.4115 172.441 28.4232 172.436 28.4341C172.432 28.445 172.425 28.4548 172.416 28.463C172.404 28.4731 172.388 28.4792 172.372 28.4806C172.355 28.4819 172.339 28.4785 172.324 28.4707Z" fill="#263238"/>
<path d="M172.535 28.1599C172.519 28.1554 172.503 28.1476 172.489 28.1369C172.305 27.9357 172.061 27.7989 171.793 27.7464C171.525 27.6939 171.248 27.7286 171.001 27.8454C170.98 27.8566 170.956 27.8593 170.933 27.8528C170.91 27.8464 170.891 27.8314 170.878 27.8109C170.872 27.8009 170.868 27.7897 170.866 27.778C170.864 27.7664 170.865 27.7545 170.868 27.743C170.871 27.7316 170.876 27.7208 170.883 27.7114C170.89 27.702 170.899 27.6941 170.909 27.6882C171.19 27.5555 171.505 27.5145 171.81 27.5709C172.114 27.6274 172.394 27.7784 172.608 28.0027C172.617 28.0109 172.623 28.0207 172.628 28.0316C172.633 28.0425 172.635 28.0541 172.635 28.066C172.635 28.0778 172.633 28.0894 172.628 28.1003C172.623 28.1112 172.617 28.121 172.608 28.1292C172.6 28.1399 172.588 28.1483 172.576 28.1536C172.563 28.159 172.549 28.1611 172.535 28.1599Z" fill="#263238"/>
<path d="M171.777 28.8312C171.772 28.8603 171.761 28.8881 171.745 28.9129C171.729 28.9378 171.709 28.9592 171.684 28.976C171.66 28.9928 171.633 29.0045 171.604 29.0106C171.575 29.0167 171.545 29.017 171.516 29.0115C171.457 29.0003 171.405 28.9661 171.371 28.9165C171.338 28.8669 171.325 28.8059 171.336 28.7469C171.347 28.6879 171.381 28.6357 171.431 28.6019C171.481 28.5681 171.542 28.5554 171.601 28.5666C171.63 28.5721 171.657 28.5833 171.682 28.5997C171.707 28.616 171.728 28.6371 171.745 28.6618C171.761 28.6864 171.772 28.7141 171.778 28.7432C171.783 28.7723 171.783 28.8022 171.777 28.8312Z" fill="#263238"/>
<path d="M169.828 49.0656L149.016 45.0956C147.905 44.8836 146.832 45.6125 146.62 46.7237L143.288 64.1937C143.076 65.3048 143.804 66.3774 144.916 66.5893L165.727 70.5594C166.839 70.7714 167.911 70.0425 168.123 68.9313L171.456 51.4613C171.668 50.3502 170.939 49.2776 169.828 49.0656Z" fill="white" stroke="#263238" stroke-width="0.383547" stroke-miterlimit="10"/>
<path d="M152.856 42.4931L152.588 40.4449L152.937 40.5102L153.121 42.075L153.888 40.6904L154.206 40.7479L153.186 42.5736L152.983 43.6514L152.649 43.59L152.856 42.4931Z" fill="#263238"/>
<path d="M154.207 41.5036C154.214 41.4044 154.243 41.3078 154.29 41.2203C154.337 41.1328 154.403 41.0564 154.482 40.9959C154.561 40.9354 154.652 40.8924 154.749 40.8695C154.845 40.8467 154.946 40.8446 155.044 40.8634C155.141 40.8822 155.234 40.9214 155.316 40.9785C155.397 41.0356 155.466 41.1093 155.517 41.1948C155.568 41.2802 155.6 41.3755 155.611 41.4743C155.623 41.5732 155.614 41.6733 155.584 41.7683L155.288 43.3024C155.281 43.4017 155.253 43.4982 155.205 43.5857C155.158 43.6732 155.092 43.7497 155.013 43.8102C154.934 43.8706 154.843 43.9137 154.747 43.9365C154.65 43.9594 154.549 43.9614 154.451 43.9427C154.354 43.9239 154.261 43.8846 154.18 43.8275C154.098 43.7704 154.03 43.6967 153.979 43.6113C153.928 43.5258 153.895 43.4306 153.884 43.3317C153.872 43.2329 153.882 43.1327 153.911 43.0378L154.207 41.5036ZM154.237 43.1375C154.184 43.4137 154.272 43.5939 154.51 43.64C154.748 43.686 154.893 43.5479 154.951 43.2564L155.254 41.6685C155.304 41.3962 155.223 41.2121 154.982 41.1661C154.74 41.1201 154.598 41.262 154.54 41.5496L154.237 43.1375Z" fill="#263238"/>
<path d="M155.92 43.4597C155.87 43.732 155.943 43.9122 156.189 43.9621C156.434 44.012 156.572 43.8624 156.622 43.5786L157.059 41.2773L157.374 41.3386L156.936 43.6169C156.848 44.0733 156.58 44.338 156.12 44.2459C155.659 44.1539 155.506 43.8164 155.594 43.3599L156.027 41.0817L156.357 41.143L155.92 43.4597Z" fill="#263238"/>
<path d="M158.375 41.5458C158.47 41.5507 158.563 41.5779 158.646 41.6252C158.728 41.6725 158.799 41.7386 158.851 41.8182C158.903 41.8978 158.936 41.9885 158.947 42.0832C158.957 42.1778 158.946 42.2736 158.912 42.3628L158.866 42.6083C158.801 42.9381 158.648 43.1222 158.375 43.1529C158.494 43.22 158.585 43.327 158.632 43.4548C158.679 43.5826 158.679 43.723 158.632 43.8509L158.544 44.3189C158.512 44.4447 158.512 44.5766 158.544 44.7024L158.207 44.6411C158.176 44.5151 158.176 44.3835 158.207 44.2575L158.295 43.7857C158.36 43.4444 158.222 43.3063 157.942 43.2526L157.708 43.2104L157.463 44.4915L157.125 44.4301L157.7 41.4231L158.375 41.5458ZM158.019 42.9573C158.283 43.0071 158.46 42.9573 158.521 42.6236L158.575 42.3359C158.629 42.0675 158.575 41.9064 158.306 41.8565L157.98 41.7951L157.769 42.9074L158.019 42.9573Z" fill="#263238"/>
<path d="M161.247 42.8499L161.197 43.1183L160.879 43.057L160.933 42.7693C160.986 42.5008 160.91 42.3167 160.664 42.2707C160.419 42.2247 160.281 42.3666 160.231 42.6542L159.928 44.2421C159.874 44.5144 159.955 44.6985 160.196 44.7446C160.438 44.7906 160.58 44.6487 160.63 44.361L160.706 43.9775L161.025 44.035L160.952 44.4186C160.864 44.8711 160.595 45.132 160.131 45.0437C159.667 44.9555 159.514 44.6142 159.602 44.1577L159.897 42.6236C159.982 42.171 160.254 41.9102 160.714 41.9984C160.808 42.0129 160.898 42.0475 160.978 42.0999C161.058 42.1523 161.125 42.2213 161.176 42.3021C161.226 42.3829 161.259 42.4736 161.271 42.5681C161.284 42.6627 161.275 42.7588 161.247 42.8499Z" fill="#263238"/>
<path d="M161.527 42.8997C161.537 42.8022 161.567 42.7079 161.615 42.6227C161.664 42.5375 161.729 42.4632 161.808 42.4047C161.886 42.3462 161.976 42.3047 162.072 42.2828C162.167 42.2609 162.266 42.2591 162.362 42.2775C162.458 42.2959 162.55 42.3342 162.63 42.3899C162.711 42.4455 162.779 42.5173 162.83 42.6007C162.882 42.6842 162.915 42.7773 162.929 42.8744C162.942 42.9714 162.935 43.0702 162.908 43.1643L162.609 44.6985C162.597 44.7933 162.565 44.8846 162.516 44.9668C162.467 45.049 162.402 45.1203 162.325 45.1764C162.247 45.2325 162.159 45.2723 162.066 45.2931C161.973 45.314 161.876 45.3156 161.782 45.2978C161.688 45.28 161.599 45.2432 161.52 45.1896C161.441 45.1361 161.373 45.067 161.322 44.9864C161.27 44.9059 161.236 44.8157 161.22 44.7213C161.205 44.627 161.209 44.5305 161.232 44.4377L161.527 42.8997ZM161.558 44.5374C161.508 44.8098 161.592 44.99 161.834 45.0361C162.076 45.0821 162.218 44.9478 162.271 44.6525L162.574 43.0646C162.628 42.7923 162.548 42.6082 162.302 42.5622C162.057 42.5162 161.918 42.6581 161.861 42.9457L161.558 44.5374Z" fill="#263238"/>
<path d="M164.066 42.635C164.165 42.6458 164.26 42.6788 164.343 42.7317C164.427 42.7846 164.498 42.8559 164.55 42.9403C164.602 43.0246 164.634 43.1197 164.644 43.2183C164.654 43.3169 164.641 43.4165 164.607 43.5095L164.319 45.0437C164.231 45.5001 163.963 45.7456 163.495 45.6535L162.789 45.5193L163.364 42.5161L164.066 42.635ZM163.548 45.3198C163.79 45.3659 163.932 45.2355 163.986 44.9593L164.281 43.4251C164.331 43.149 164.247 42.9764 164.001 42.9303L163.641 42.8613L163.184 45.2585L163.548 45.3198Z" fill="#263238"/>
<path d="M165.881 44.361L165.823 44.6602L165.087 44.5183L164.883 45.5884L165.785 45.761L165.727 46.064L164.492 45.83L165.064 42.823L166.303 43.0608L166.241 43.3638L165.34 43.1912L165.144 44.2191L165.881 44.361Z" fill="#263238"/>
<path d="M150.546 54.6669C150.657 54.5338 150.803 54.4345 150.968 54.3803C151.133 54.326 151.309 54.319 151.478 54.3601C152.207 54.4981 152.429 55.0965 152.272 55.8943L152.061 57.0027C151.896 57.8695 151.374 58.3566 150.508 58.1917C149.641 58.0268 149.357 57.3824 149.51 56.5156L149.583 56.1321L150.174 56.2433L150.093 56.6652C149.997 57.1753 150.147 57.5243 150.6 57.6087C151.052 57.6931 151.325 57.4284 151.42 56.9183L151.631 55.8175C151.731 55.3074 151.578 54.9584 151.125 54.874C151.043 54.852 150.957 54.8471 150.873 54.8599C150.789 54.8726 150.708 54.9026 150.636 54.948C150.564 54.9933 150.502 55.0531 150.454 55.1236C150.406 55.194 150.374 55.2736 150.358 55.3573L150.331 55.4877L149.74 55.3765L150.508 52.2544L152.744 52.6801L152.636 53.2478L150.968 52.9294L150.546 54.6669Z" fill="#263238"/>
<path d="M155.77 54.6822V54.7896L155.18 54.6745L155.206 54.5288C155.306 54.0187 155.153 53.6811 154.689 53.5929C154.225 53.5047 153.922 53.7694 153.826 54.36L153.584 55.6334C153.685 55.4583 153.841 55.3211 154.027 55.2428C154.213 55.1645 154.42 55.1495 154.616 55.2C155.345 55.3381 155.567 55.9249 155.41 56.7342L155.249 57.5933C155.084 58.4601 154.543 58.9434 153.68 58.7785C152.817 58.6136 152.483 57.9615 152.648 57.0947L153.201 54.2028C153.369 53.3053 153.883 52.822 154.781 52.9946C155.678 53.1672 155.935 53.8154 155.77 54.6822ZM153.415 56.435L153.254 57.2827C153.154 57.7928 153.308 58.1418 153.768 58.23C154.228 58.3182 154.501 58.0497 154.597 57.5396L154.758 56.6882C154.857 56.178 154.696 55.829 154.244 55.7446C153.791 55.6602 153.53 55.9249 153.415 56.435Z" fill="#263238"/>
<path d="M158.924 55.2844L158.905 55.3918L158.311 55.2767L158.341 55.131C158.437 54.6209 158.284 54.2834 157.824 54.1951C157.363 54.1069 157.076 54.3716 156.961 54.9622L156.715 56.2318C156.818 56.0583 156.974 55.9226 157.16 55.8452C157.346 55.7678 157.552 55.7527 157.747 55.8022C158.476 55.9403 158.702 56.5271 158.545 57.3364L158.38 58.1917C158.215 59.0585 157.678 59.5456 156.811 59.3807C155.944 59.2158 155.614 58.5637 155.779 57.6969L156.332 54.8472C156.504 53.9497 157.014 53.4664 157.916 53.639C158.817 53.8116 159.089 54.4176 158.924 55.2844ZM156.566 57.0334L156.405 57.8849C156.309 58.395 156.458 58.744 156.922 58.8322C157.386 58.9204 157.651 58.652 157.751 58.1418L157.912 57.2904C158.008 56.7803 157.85 56.4312 157.394 56.343C156.938 56.2548 156.665 56.5233 156.566 57.0334Z" fill="#263238"/>
<path d="M162.072 55.8942L161.52 58.7862C161.347 59.6837 160.837 60.1746 159.928 60.002C159.019 59.8294 158.754 59.1966 158.919 58.3336L158.942 58.2262L159.533 58.3374L159.502 58.487C159.406 58.9971 159.567 59.3385 160.02 59.4229C160.472 59.5073 160.787 59.2503 160.891 58.6558L161.132 57.3862C161.03 57.559 160.875 57.6936 160.689 57.7698C160.504 57.8459 160.298 57.8594 160.104 57.8082C159.376 57.6701 159.149 57.0909 159.307 56.274L159.471 55.4071C159.636 54.5403 160.166 54.0609 161.04 54.2258C161.915 54.3907 162.237 55.0274 162.072 55.8942ZM160.1 55.4839L159.939 56.3353C159.843 56.8454 160.001 57.1945 160.457 57.2827C160.914 57.3709 161.186 57.1024 161.282 56.5923L161.447 55.7408C161.546 55.223 161.393 54.8817 160.929 54.7935C160.465 54.7053 160.2 54.9661 160.1 55.4839Z" fill="#263238"/>
<path d="M165.282 56.4811L165.247 56.6613C165.14 57.2367 164.864 57.6164 164.377 57.7046C164.814 57.9769 164.906 58.4717 164.799 59.024L164.718 59.4459C164.549 60.3204 163.993 60.7768 163.111 60.5965C162.229 60.4163 161.876 59.7988 162.045 58.9243L162.125 58.5024C162.233 57.927 162.509 57.532 163.011 57.4284C162.582 57.1638 162.467 56.715 162.578 56.1397L162.609 55.9595C162.777 55.085 163.337 54.6477 164.216 54.8088C165.094 54.9699 165.451 55.6143 165.282 56.4811ZM163.23 56.0975L163.18 56.3698C163.073 56.9222 163.295 57.2175 163.74 57.3019C164.185 57.3862 164.507 57.1945 164.603 56.6422L164.653 56.3814C164.764 55.7984 164.549 55.48 164.101 55.3956C163.652 55.3113 163.341 55.5222 163.23 56.109V56.0975ZM162.762 58.5484L162.67 59.0278C162.559 59.6108 162.766 59.9368 163.218 60.0212C163.671 60.1056 163.986 59.8831 164.097 59.3001L164.189 58.8207C164.292 58.2722 164.101 57.9577 163.633 57.8695C163.165 57.7813 162.869 58.0114 162.762 58.5599V58.5484Z" fill="#263238"/>
<path d="M144.852 71.5353L164.435 75.271" stroke="#263238" stroke-width="0.383547" stroke-miterlimit="10"/>
<path d="M144.123 75.3555L163.703 79.0912" stroke="#263238" stroke-width="0.383547" stroke-miterlimit="10"/>
<path d="M176.605 57.1408L181.342 56.4121" stroke="#263238" stroke-width="0.383547" stroke-miterlimit="10"/>
<path d="M175.877 62.6063L178.428 63.3351" stroke="#263238" stroke-width="0.383547" stroke-miterlimit="10"/>
<path d="M174.42 67.3431L179.157 70.6225" stroke="#263238" stroke-width="0.383547" stroke-miterlimit="10"/>
<path d="M131.197 66.2386C131.443 66.2386 131.679 66.1408 131.854 65.9667C132.028 65.7926 132.125 65.5566 132.125 65.3104V57.6394C132.125 57.3933 132.028 57.1572 131.854 56.9831C131.679 56.8091 131.443 56.7113 131.197 56.7113H131.159V53.7119C131.158 53.2256 131.062 52.744 130.875 52.2949C130.689 51.8458 130.415 51.4379 130.071 51.0945C129.726 50.7511 129.317 50.479 128.868 50.2937C128.418 50.1084 127.936 50.0135 127.45 50.0145H46.5215C45.5399 50.0145 44.5985 50.4045 43.9044 51.0986C43.2103 51.7927 42.8203 52.7341 42.8203 53.7158V109.625C42.8213 110.606 43.2117 111.547 43.9057 112.24C44.5997 112.933 45.5406 113.323 46.5215 113.323H127.45C128.431 113.323 129.372 112.933 130.066 112.24C130.76 111.547 131.15 110.606 131.151 109.625V89.5659H131.19C131.436 89.5659 131.672 89.4681 131.846 89.294C132.02 89.12 132.118 88.8839 132.118 88.6377V80.9668C132.118 80.7206 132.02 80.4845 131.846 80.3104C131.672 80.1364 131.436 80.0386 131.19 80.0386H131.151V79.0682H131.19C131.436 79.0682 131.672 78.9704 131.846 78.7964C132.02 78.6223 132.118 78.3862 132.118 78.14V70.4691C132.118 70.2229 132.02 69.9868 131.846 69.8128C131.672 69.6387 131.436 69.5409 131.19 69.5409H131.151V66.2386H131.197Z" fill="#263238"/>
<path d="M127.861 52.4807H46.1309V110.857H127.861V52.4807Z" fill="#376095" stroke="#263238" stroke-width="0.383547" stroke-miterlimit="10"/>
<path d="M109.983 59.9867H64.2754V96.696H109.983V59.9867Z" fill="#E3E3E3" stroke="#263238" stroke-width="0.383547" stroke-miterlimit="10"/>
<path d="M81.4732 86.5243V86.7544H80.9132V87.5714H81.5998V87.8015H80.6562V85.5002H81.5998V85.7304H80.9132V86.5166L81.4732 86.5243Z" fill="#B2B2B2"/>
<path d="M82.0641 87.8015H81.834V85.5002H82.1562L82.6893 87.1572V85.5002H82.9156V87.8015H82.6509L82.0641 85.9452V87.8015Z" fill="#B2B2B2"/>
<path d="M83.5117 87.8015V85.7381H83.0859V85.5079H84.1867V85.7381H83.7648V87.8015H83.5117Z" fill="#B2B2B2"/>
<path d="M85.1744 86.5243V86.7544H84.6144V87.5714H85.3009V87.8015H84.3574V85.5002H85.3009V85.7304H84.6144V86.5166L85.1744 86.5243Z" fill="#B2B2B2"/>
<path d="M86.0492 85.5079C86.4097 85.5079 86.5631 85.6882 86.5631 86.0295V86.2175C86.5631 86.4706 86.4749 86.6279 86.2755 86.6892C86.4864 86.7544 86.567 86.9232 86.567 87.1687V87.5254C86.5574 87.6199 86.5733 87.7152 86.613 87.8015H86.3522C86.3156 87.7143 86.3012 87.6195 86.31 87.5254V87.1648C86.31 86.904 86.1873 86.8235 85.9763 86.8235H85.796V87.8015H85.5391V85.5002L86.0492 85.5079ZM85.984 86.5895C86.1873 86.5895 86.31 86.5243 86.31 86.275V86.0526C86.31 85.8493 86.2333 85.738 86.0453 85.738H85.796V86.5895H85.984Z" fill="#B2B2B2"/>
<path d="M88.3539 86.0603V86.2674H88.1085V86.0488C88.1085 85.8417 88.0279 85.7151 87.84 85.7151C87.652 85.7151 87.5715 85.8417 87.5715 86.0488V87.2608C87.5715 87.4679 87.6559 87.5945 87.84 87.5945C88.0241 87.5945 88.1085 87.4679 88.1085 87.2608V86.9616H88.3539V87.2493C88.3539 87.5945 88.189 87.8246 87.8323 87.8246C87.4756 87.8246 87.3184 87.5945 87.3184 87.2493V86.0603C87.3184 85.7113 87.4833 85.485 87.8323 85.485C88.1813 85.485 88.3539 85.7113 88.3539 86.0603Z" fill="#B2B2B2"/>
<path d="M88.5664 86.0602C88.5664 85.7112 88.739 85.4849 89.0919 85.4849C89.1667 85.4801 89.2416 85.4921 89.3112 85.52C89.3807 85.5479 89.4432 85.591 89.4939 85.6461C89.5447 85.7013 89.5825 85.7671 89.6045 85.8388C89.6265 85.9104 89.6322 85.9861 89.6212 86.0602V87.2492C89.6326 87.3235 89.6274 87.3994 89.6059 87.4714C89.5845 87.5434 89.5472 87.6097 89.4969 87.6655C89.4466 87.7213 89.3845 87.7653 89.3151 87.7941C89.2457 87.8229 89.1708 87.836 89.0957 87.8322C88.7428 87.8322 88.5702 87.6021 88.5702 87.2569L88.5664 86.0602ZM88.8195 87.2607C88.8195 87.4717 88.9078 87.5944 89.0919 87.5944C89.276 87.5944 89.3642 87.4717 89.3642 87.2607V86.0487C89.3642 85.8416 89.2798 85.7151 89.0919 85.7151C88.9039 85.7151 88.8195 85.8416 88.8195 86.0487V87.2607Z" fill="#B2B2B2"/>
<path d="M90.3983 85.5079C90.755 85.5079 90.9199 85.7227 90.9199 86.0755V87.2262C90.9199 87.5791 90.755 87.7938 90.3983 87.7938H89.8613V85.4926L90.3983 85.5079ZM90.3983 87.5714C90.5824 87.5714 90.6706 87.4563 90.6706 87.2454V86.064C90.6706 85.8531 90.5824 85.738 90.3945 85.738H90.1221V87.5714H90.3983Z" fill="#B2B2B2"/>
<path d="M91.9752 86.5243V86.7544H91.4152V87.5714H92.1056V87.8015H91.1582V85.5002H92.1056V85.7304H91.4152V86.5166L91.9752 86.5243Z" fill="#B2B2B2"/>
<path d="M106.374 72.1106H67.8047V76.4639H106.374V72.1106Z" fill="white" stroke="#263238" stroke-width="0.383547" stroke-miterlimit="10"/>
<path d="M106.374 79.0145H67.8047V83.3678H106.374V79.0145Z" fill="white" stroke="#263238" stroke-width="0.383547" stroke-miterlimit="10"/>
<path d="M92.5383 88.8334H88.8984V93.1866H92.5383V88.8334Z" fill="white" stroke="#263238" stroke-width="0.383547" stroke-miterlimit="10"/>
<path d="M87.9016 88.8334H84.2617V93.1866H87.9016V88.8334Z" fill="white" stroke="#263238" stroke-width="0.383547" stroke-miterlimit="10"/>
<path d="M83.2688 88.8334H79.6289V93.1866H83.2688V88.8334Z" fill="white" stroke="#263238" stroke-width="0.383547" stroke-miterlimit="10"/>
<path d="M78.6351 88.8334H75.1602V93.1866H78.6351V88.8334Z" fill="white" stroke="#263238" stroke-width="0.383547" stroke-miterlimit="10"/>
<path d="M97.3073 88.8334H93.5332V93.1866H97.3073V88.8334Z" fill="white" stroke="#263238" stroke-width="0.383547" stroke-miterlimit="10"/>
<path d="M88.9689 64.969V64.1329C88.9438 63.4972 88.6736 62.8958 88.2149 62.4549C87.7562 62.014 87.1447 61.7677 86.5084 61.7677C85.8722 61.7677 85.2607 62.014 84.802 62.4549C84.3433 62.8958 84.0731 63.4972 84.048 64.1329V64.969H84.002V69.5946H89.0149V64.969H88.9689ZM86.6676 67.512V68.3481H86.1805V67.5043C86.0444 67.4491 85.9318 67.3484 85.8619 67.2193C85.7919 67.0902 85.769 66.9408 85.7971 66.7967C85.8253 66.6526 85.9026 66.5227 86.0159 66.4294C86.1292 66.336 86.2715 66.285 86.4183 66.285C86.5651 66.285 86.7074 66.336 86.8207 66.4294C86.934 66.5227 87.0113 66.6526 87.0395 66.7967C87.0676 66.9408 87.0447 67.0902 86.9747 67.2193C86.9048 67.3484 86.7922 67.4491 86.6561 67.5043L86.6676 67.512ZM88.0445 64.969H84.9953V64.1329C85.0374 63.758 85.2162 63.4118 85.4974 63.1604C85.7787 62.909 86.1427 62.77 86.5199 62.77C86.8972 62.77 87.2612 62.909 87.5424 63.1604C87.8237 63.4118 88.0024 63.758 88.0445 64.1329V64.969Z" fill="#263238"/>
<path d="M81.1184 74.8186C81.1184 75.0257 81.1989 75.1484 81.3869 75.1484C81.5748 75.1484 81.6515 75.0257 81.6515 74.8186V73.0619H81.8931V74.7917C81.8931 75.1407 81.7321 75.3747 81.3754 75.3747C81.0187 75.3747 80.8652 75.1407 80.8652 74.7917V73.0504H81.1184V74.8186Z" fill="#B2B2B2"/>
<path d="M83.1391 73.6141V73.6755H82.8936V73.5988C82.8936 73.3955 82.8169 73.2728 82.6328 73.2728C82.4487 73.2728 82.372 73.3955 82.372 73.5988C82.372 74.1128 83.1391 74.1626 83.1391 74.807C83.1391 75.156 82.9703 75.3823 82.6175 75.3823C82.2646 75.3823 82.1035 75.156 82.1035 74.807V74.6766H82.3451V74.8223C82.3451 75.0256 82.4295 75.1483 82.6136 75.1483C82.7977 75.1483 82.8821 75.0256 82.8821 74.8223C82.8821 74.3084 82.115 74.2585 82.115 73.6141C82.115 73.2574 82.2761 73.0388 82.6213 73.0388C82.9665 73.0388 83.1391 73.2574 83.1391 73.6141Z" fill="#B2B2B2"/>
<path d="M84.1822 74.0782V74.3083H83.6184V75.1253H84.3088V75.3593H83.3652V73.058H84.3088V73.2919H83.6184V74.059L84.1822 74.0782Z" fill="#B2B2B2"/>
<path d="M85.0569 73.0618C85.4175 73.0618 85.567 73.2459 85.567 73.5873V73.7752C85.567 74.0284 85.4788 74.1856 85.2832 74.247C85.4942 74.3083 85.5709 74.4809 85.5709 74.7264V75.0831C85.5639 75.1775 85.5796 75.2722 85.6169 75.3593H85.3599C85.3218 75.2711 85.3059 75.175 85.3139 75.0793V74.7187C85.3139 74.4579 85.195 74.3774 84.9802 74.3774H84.7999V75.3593H84.543V73.058L85.0569 73.0618ZM84.9917 74.1434C85.195 74.1434 85.3139 74.0782 85.3139 73.8289V73.6103C85.3139 73.4032 85.241 73.2958 85.0492 73.2958H84.7999V74.1434H84.9917Z" fill="#B2B2B2"/>
<path d="M86.5719 75.3593H86.3418V73.058H86.6678L87.1971 74.7187V73.058H87.4234V75.3593H87.1779L86.5911 73.5029L86.5719 75.3593Z" fill="#B2B2B2"/>
<path d="M87.9452 74.8952L87.8569 75.3593H87.6191L88.0602 73.058H88.4438L88.881 75.3593H88.6279L88.5358 74.8952H87.9452ZM87.9797 74.6766H88.4898L88.2328 73.3495L87.9797 74.6766Z" fill="#B2B2B2"/>
<path d="M89.9159 75.3554H89.6705L89.2869 73.5298V75.3593H89.0645V73.058H89.4212L89.8047 74.8913L90.1691 73.058H90.5258V75.3593H90.2841V73.5106L89.9159 75.3554Z" fill="#B2B2B2"/>
<path d="M91.6002 74.0782V74.3083H91.0403V75.1253H91.7306V75.3593H90.7871V73.058H91.7306V73.2919H91.0403V74.059L91.6002 74.0782Z" fill="#B2B2B2"/>
<path d="M81.4663 80.9744L81.8153 81.3579L81.6465 81.4807L81.3896 81.0243L81.1326 81.4807L80.9677 81.3579L81.309 80.9744L80.8027 80.867L80.8641 80.6676L81.3435 80.8785L81.286 80.3607H81.4931L81.4394 80.8785L81.9189 80.6714L81.9802 80.8708L81.4663 80.9744Z" fill="#B2B2B2"/>
<path d="M82.7631 80.9744L83.1122 81.3579L82.9434 81.4807L82.6864 81.0243L82.4295 81.4807L82.2607 81.3579L82.6059 80.9744L82.0996 80.867L82.161 80.6676L82.6404 80.8785L82.579 80.3607H82.79L82.7325 80.8785L83.2119 80.6714L83.2771 80.8708L82.7631 80.9744Z" fill="#B2B2B2"/>
<path d="M84.0599 80.9744L84.409 81.3579L84.2402 81.4807L83.9794 81.0243L83.7263 81.4807L83.5575 81.3579L83.9027 80.9744L83.3926 80.867L83.4578 80.6676L83.9334 80.8785L83.8758 80.3607H84.0868L84.0293 80.8785L84.5087 80.6714L84.5701 80.8708L84.0599 80.9744Z" fill="#B2B2B2"/>
<path d="M85.3549 80.9744L85.7001 81.3579L85.5351 81.4807L85.2743 81.0243L85.0174 81.4807L84.8524 81.3579L85.1976 80.9744L84.6875 80.867L84.7489 80.6676L85.2283 80.8785L85.1708 80.3607H85.3779L85.3242 80.8785L85.8036 80.6714L85.865 80.8708L85.3549 80.9744Z" fill="#B2B2B2"/>
<path d="M86.6479 80.9744L86.9969 81.3579L86.8282 81.4807L86.5712 81.0243L86.3142 81.4807L86.1493 81.3579L86.4907 80.9744L85.9844 80.867L86.0457 80.6676L86.5252 80.8785L86.4638 80.3607H86.6748L86.6211 80.8785L87.1005 80.6714L87.1619 80.8708L86.6479 80.9744Z" fill="#B2B2B2"/>
<path d="M87.9447 80.9744L88.2937 81.3579L88.125 81.4807L87.868 81.0243L87.611 81.4807L87.4423 81.3579L87.7875 80.9744L87.2773 80.867L87.3425 80.6676L87.822 80.8785L87.7606 80.3607H87.9716L87.914 80.8785L88.3935 80.6714L88.4587 80.8708L87.9447 80.9744Z" fill="#B2B2B2"/>
<path d="M89.2416 80.9744L89.5906 81.3579L89.4219 81.4807L89.161 81.0243L88.9079 81.4807L88.7391 81.3579L89.0843 80.9744L88.5742 80.867L88.6356 80.6676L89.115 80.8785L89.0575 80.3607H89.2684L89.2109 80.8785L89.6903 80.6714L89.7517 80.8708L89.2416 80.9744Z" fill="#B2B2B2"/>
<path d="M90.5365 80.9744L90.8817 81.3579L90.7168 81.4807L90.456 81.0243L90.199 81.4807L90.0341 81.3579L90.3793 80.9744L89.8691 80.867L89.9305 80.6676L90.4099 80.8785L90.3524 80.3607H90.5595L90.5058 80.8785L90.9853 80.6714L91.0466 80.8708L90.5365 80.9744Z" fill="#B2B2B2"/>
<path d="M90.9984 185.525C104.549 185.525 115.534 175.203 115.534 162.47C115.534 149.737 104.549 139.415 90.9984 139.415C77.4478 139.415 66.4629 149.737 66.4629 162.47C66.4629 175.203 77.4478 185.525 90.9984 185.525Z" fill="#263238"/>
<path d="M90.4808 184.325C104.031 184.325 115.016 174.003 115.016 161.27C115.016 148.537 104.031 138.215 90.4808 138.215C76.9302 138.215 65.9453 148.537 65.9453 161.27C65.9453 174.003 76.9302 184.325 90.4808 184.325Z" fill="white" stroke="#263238" stroke-width="0.383547" stroke-miterlimit="10"/>
<path d="M90.4803 181.172C102.175 181.172 111.656 172.262 111.656 161.27C111.656 150.278 102.175 141.368 90.4803 141.368C78.7853 141.368 69.3047 150.278 69.3047 161.27C69.3047 172.262 78.7853 181.172 90.4803 181.172Z" fill="white" stroke="#263238" stroke-width="0.383547" stroke-miterlimit="10"/>
<path d="M96.3488 147.873C87.8494 147.873 80.957 156.529 80.957 167.211C80.957 174.115 83.8298 180.144 88.1447 183.569C88.8581 183.631 89.5792 183.665 90.3079 183.665C99.2445 183.665 107.034 179.093 111.196 172.305C111.552 170.636 111.73 168.933 111.725 167.226C111.725 156.529 104.848 147.873 96.3488 147.873Z" fill="#263238"/>
<path d="M81.1373 158.489H71.1152V160.886H81.1373V158.489Z" fill="white" stroke="#263238" stroke-width="0.383547" stroke-miterlimit="10"/>
<path d="M94.0167 173.923C102.46 173.923 109.305 167.492 109.305 159.559C109.305 151.626 102.46 145.196 94.0167 145.196C85.5733 145.196 78.7285 151.626 78.7285 159.559C78.7285 167.492 85.5733 173.923 94.0167 173.923Z" fill="white" stroke="#263238" stroke-width="0.383547" stroke-miterlimit="10"/>
<path d="M94.0165 171.553C101.064 171.553 106.777 166.183 106.777 159.559C106.777 152.935 101.064 147.566 94.0165 147.566C86.969 147.566 81.2559 152.935 81.2559 159.559C81.2559 166.183 86.969 171.553 94.0165 171.553Z" fill="#263238" stroke="#263238" stroke-width="0.383547" stroke-miterlimit="10"/>
<path d="M88.6703 148.559C88.5889 148.359 88.4941 148.164 88.3864 147.976C87.0824 145.709 87.2358 142.829 88.2215 140.152" stroke="#263238" stroke-width="0.383547" stroke-miterlimit="10"/>
<path d="M88.8732 153.327C88.8732 153.327 89.5559 150.734 88.6699 148.559" stroke="white" stroke-width="0.383547" stroke-miterlimit="10"/>
<path d="M93.4255 147.976C92.1253 145.709 92.2749 142.829 93.2645 140.152" stroke="#263238" stroke-width="0.383547" stroke-miterlimit="10"/>
<path d="M93.9129 153.327C93.9129 153.327 94.726 150.239 93.4258 147.976" stroke="white" stroke-width="0.383547" stroke-miterlimit="10"/>
<path d="M98.6301 148.279C98.5802 148.176 98.5265 148.076 98.469 147.976C97.1688 145.709 97.3184 142.829 98.3041 140.152" stroke="#263238" stroke-width="0.383547" stroke-miterlimit="10"/>
<path d="M98.9569 153.327C98.9569 153.327 99.701 150.508 98.6309 148.279" stroke="white" stroke-width="0.383547" stroke-miterlimit="10"/>
<path d="M147.448 138.169C147.448 138.169 147.064 138.192 146.332 138.269C145.657 135.967 143.624 129.163 142.289 125.646C140.671 121.373 138.454 115.333 136.988 112.828C135.523 110.323 135.661 108.851 132.862 106.496C130.062 104.141 127.557 105.169 127.557 105.169C127.557 105.169 127.116 103.4 124.316 102.518C121.516 101.636 117.688 103.4 117.688 103.4C117.688 103.4 117.098 102.369 114.298 102.664C113.473 102.765 112.687 103.075 112.016 103.565C111.345 104.055 110.81 104.709 110.462 105.464C110.462 105.464 104.709 93.9575 102.508 93.0869C100.306 92.2162 98.0853 94.4139 98.9713 96.4774C99.8573 98.5409 106.485 110.032 107.367 112.682C108.249 115.333 110.167 119.755 110.167 119.755C110.167 119.755 103.831 115.187 101.917 114.746C100.003 114.305 97.2032 114.009 95.5808 115.777C93.9584 117.546 97.79 117.987 100.885 120.787C103.98 123.587 108.99 130.065 111.345 134.192C113.7 138.319 118.712 139.055 120.933 141.41C122.487 143.071 124.7 145.383 125.873 146.611C125.476 147.013 125.106 147.441 124.765 147.892L129.624 159.824C129.624 159.824 130.656 158.205 134.783 154.964C138.91 151.724 151.724 147.746 151.724 147.746L147.448 138.169Z" fill="#263238" stroke="#263238" stroke-width="0.383547" stroke-miterlimit="10"/>
<path d="M126.495 144.367C126.495 144.367 122.959 140.685 120.742 138.33C118.525 135.975 113.524 135.235 111.154 131.108C108.783 126.981 103.786 120.503 100.694 117.703C97.6028 114.903 93.7712 114.462 95.3897 112.694C97.0083 110.926 99.835 111.229 101.753 111.662C103.671 112.095 110.003 116.671 110.003 116.671C110.003 116.671 108.085 112.253 107.203 109.602C106.321 106.952 99.6816 95.4572 98.7995 93.3937C97.9173 91.3302 100.123 89.121 102.332 90.007C104.541 90.893 110.291 102.38 110.291 102.38C110.637 101.625 111.172 100.971 111.843 100.482C112.515 99.9921 113.301 99.6831 114.126 99.5842C116.926 99.2888 117.517 100.321 117.517 100.321C117.517 100.321 121.352 98.5524 124.144 99.4346C126.936 100.317 127.385 102.089 127.385 102.089C127.385 102.089 129.89 101.057 132.69 103.412C135.49 105.767 135.34 107.247 136.813 109.748C138.286 112.249 140.499 118.294 142.117 122.566C143.736 126.839 146.39 135.971 146.39 135.971L127.378 146.285L126.495 144.367Z" fill="white" stroke="#263238" stroke-width="0.383547" stroke-miterlimit="10"/>
<path d="M110.291 102.38L115.446 110.044" stroke="#263238" stroke-width="0.383547" stroke-miterlimit="10"/>
<path d="M117.51 100.321L122.224 107.685" stroke="#263238" stroke-width="0.383547" stroke-miterlimit="10"/>
<path d="M127.377 102.089L130.618 107.834" stroke="#263238" stroke-width="0.383547" stroke-miterlimit="10"/>
<path d="M112.266 123.26L112.941 125.217" stroke="#263238" stroke-width="0.383547" stroke-miterlimit="10"/>
<path d="M109.996 116.671L111.799 121.903" stroke="#263238" stroke-width="0.383547" stroke-miterlimit="10"/>
<path d="M118.246 111.812L119.424 113.43" stroke="#263238" stroke-width="0.383547" stroke-miterlimit="10"/>
<path d="M123.695 110.189L125.022 111.957" stroke="#263238" stroke-width="0.383547" stroke-miterlimit="10"/>
<path d="M130.914 109.307L131.796 112.107" stroke="#263238" stroke-width="0.383547" stroke-miterlimit="10"/>
<path d="M124.578 144.812C124.578 144.812 127.969 140.098 134.892 137.739C138.891 136.346 143.049 135.455 147.269 135.089L151.541 144.678C151.541 144.678 138.723 148.64 134.596 151.885C130.469 155.129 129.441 156.748 129.441 156.748L124.578 144.812Z" fill="white" stroke="#263238" stroke-width="0.383547" stroke-miterlimit="10"/>
<path d="M136.219 176.631C136.219 176.631 130.619 162.635 129.146 159.69C127.673 156.744 130.032 155.271 130.032 155.271C130.032 155.271 133.419 150.703 142.259 147.167C151.1 143.631 151.848 143.485 154.042 145.99C156.236 148.494 170.749 176.673 170.749 176.673" fill="white"/>
<path d="M136.219 176.631C136.219 176.631 130.619 162.635 129.146 159.69C127.673 156.744 130.032 155.271 130.032 155.271C130.032 155.271 133.419 150.703 142.259 147.167C151.1 143.631 151.848 143.485 154.042 145.99C156.236 148.494 170.749 176.673 170.749 176.673" stroke="#263238" stroke-width="0.383547" stroke-miterlimit="10"/>
<path d="M44.2512 161.907C45.7719 159.027 48.1349 156.68 51.0246 155.179C55.7921 152.748 58.8912 151.7 63.4554 147.198C68.0196 142.695 75.5409 138.675 78.64 138.123C81.7391 137.571 82.7708 136.232 81.436 134.713C80.1013 133.194 76.4499 133.106 73.209 134.203C69.968 135.3 66.961 136.642 66.961 136.642C68.6064 133.405 69.6995 129.505 71.3181 126.256C72.4687 123.955 74.3519 120.142 75.4719 117.818C76.2006 116.303 78.3715 113.779 77.3896 112.122C76.4077 110.465 74.095 111.566 72.9175 113.146C71.0458 115.662 61.8905 129.466 61.8905 129.466L67.1106 118.42C69.7532 112.824 71.0112 110.155 70.6392 110.949C71.4063 109.315 72.9098 107.113 71.9931 105.245C71.7855 104.808 71.4644 104.435 71.0632 104.164C70.6621 103.893 70.1956 103.735 69.7124 103.706C69.2293 103.677 68.7472 103.778 68.3166 103.999C67.8859 104.22 67.5224 104.552 67.264 104.961C65.9906 107.033 56.26 125.447 56.26 125.447C56.26 125.447 62.3508 109.645 63.1294 107.827C64.0806 105.61 63.5129 103.673 62.1168 103.684C60.0763 103.684 59.1136 105.959 58.3158 107.493L58.7608 106.845C56.843 109.388 55.5735 112.724 53.9779 115.482C52.1241 118.709 50.2013 121.894 48.2094 125.036C48.5929 121.78 49.9085 118.727 51.5271 115.9C52.5051 114.197 56.5745 110.013 55.8765 107.957C55.2782 106.185 50.8175 109.514 48.2055 113.146C46.7941 115.125 43.0852 120.526 42.0688 124.323C41.0524 128.12 33.9069 141.057 32.0007 144.651C30.0945 148.245 27.8047 154.623 27.8047 154.623L44.2512 161.907Z" fill="#263238" stroke="#263238" stroke-width="0.383547" stroke-miterlimit="10"/>
<path d="M49.6946 158.432C49.6946 158.432 46.0202 153.937 38.9553 152.011C34.8776 150.868 30.6737 150.235 26.4401 150.128L22.7734 159.939C22.7734 159.939 35.814 163.122 40.1289 166.103C44.4438 169.083 45.5753 170.636 45.5753 170.636L49.6946 158.432Z" fill="#263238" stroke="#263238" stroke-width="0.383547" stroke-miterlimit="10"/>
<path d="M43.7683 160.204C45.289 157.327 47.6505 154.981 50.5379 153.48C55.3054 151.045 58.4083 149.998 62.9687 145.499C67.5291 141 75.0542 136.976 78.1571 136.42C81.26 135.864 82.2879 134.533 80.9494 133.01C79.6108 131.488 75.9633 131.407 72.7223 132.504C69.4813 133.601 66.4666 134.94 66.4666 134.94C68.112 131.702 69.2052 127.806 70.8237 124.553C71.9744 122.252 73.8614 118.443 74.9775 116.115C75.7063 114.6 77.8772 112.076 76.8953 110.423C75.9134 108.77 73.6044 109.863 72.4269 111.447C70.5552 113.963 61.4 127.763 61.4 127.763C63.1362 124.081 64.8749 120.401 66.6162 116.721C69.2589 111.125 70.5207 108.456 70.1448 109.246C70.9119 107.616 72.4193 105.429 71.5026 103.546C71.2948 103.109 70.9735 102.735 70.5723 102.464C70.171 102.193 69.7044 102.035 69.221 102.005C68.7377 101.976 68.2553 102.077 67.8242 102.297C67.393 102.518 67.0289 102.85 66.7696 103.259C65.4963 105.334 55.7657 123.748 55.7657 123.748C55.7657 123.748 61.8564 107.942 62.635 106.127C63.5862 103.907 63.0185 101.974 61.6224 101.985C59.582 101.985 58.6193 104.256 57.8215 105.794L58.2664 105.146C56.3487 107.685 55.0791 111.025 53.4836 113.783C51.6221 117.005 49.6941 120.188 47.6997 123.333C48.0832 120.077 49.3988 117.028 51.0174 114.201C51.9954 112.498 56.0648 108.314 55.3706 106.254C54.7723 104.486 50.3078 107.811 47.6997 111.447C46.2844 113.426 42.5793 118.823 41.5629 122.624C40.5465 126.425 33.4011 139.354 31.4948 142.952C29.5886 146.549 27.2988 152.924 27.2988 152.924L43.7683 160.204Z" fill="white" stroke="#263238" stroke-width="0.383547" stroke-miterlimit="10"/>
<path d="M55.7898 123.751L54.0293 127.307" stroke="#263238" stroke-width="0.383547" stroke-miterlimit="10"/>
<path d="M61.4239 127.767L60.0508 129.547" stroke="#263238" stroke-width="0.383547" stroke-miterlimit="10"/>
<path d="M66.4753 134.939L64.7109 137.509" stroke="#263238" stroke-width="0.383547" stroke-miterlimit="10"/>
<path d="M57.3548 133.252L57.2129 134.782" stroke="#263238" stroke-width="0.383547" stroke-miterlimit="10"/>
<path d="M52.959 130.464L52.9667 131.94" stroke="#263238" stroke-width="0.383547" stroke-miterlimit="10"/>
<path d="M46.4922 127.384L46.8489 129.896" stroke="#263238" stroke-width="0.383547" stroke-miterlimit="10"/>
<path d="M49.2083 156.733C49.2083 156.733 45.534 152.237 38.469 150.312C34.3949 149.171 30.1949 148.54 25.9654 148.433L22.291 158.251C22.291 158.251 35.3316 161.431 39.6465 164.411C43.9614 167.391 45.0929 168.949 45.0929 168.949L49.2083 156.733Z" fill="white" stroke="#263238" stroke-width="0.383547" stroke-miterlimit="10"/>
<path d="M43.3622 177.966C43.3622 177.966 44.2789 174.897 45.5676 171.864C46.8563 168.83 44.417 167.506 44.417 167.506C44.417 167.506 40.7503 163.157 31.7101 160.173C22.6699 157.189 21.9258 157.085 19.8738 159.72C17.8218 162.355 11.2363 178.204 11.2363 178.204" fill="white"/>
<path d="M43.3622 177.966C43.3622 177.966 44.2789 174.897 45.5676 171.864C46.8563 168.83 44.417 167.506 44.417 167.506C44.417 167.506 40.7503 163.157 31.7101 160.173C22.6699 157.189 21.9258 157.085 19.8738 159.72C17.8218 162.355 11.2363 178.204 11.2363 178.204" stroke="#263238" stroke-width="0.383547" stroke-miterlimit="10"/>
</svg>
