<svg width="24" height="25" viewBox="0 0 24 25" fill="none" xmlns="http://www.w3.org/2000/svg">
<mask id="mask0_2338_5198" style="mask-type:alpha" maskUnits="userSpaceOnUse" x="0" y="0" width="24" height="25">
<rect y="0.605469" width="24" height="24" fill="#D9D9D9"/>
</mask>
<g mask="url(#mask0_2338_5198)">
<path d="M12 16.6055L16 12.6055L12 8.60547L10.6 10.0055L12.2 11.6055H8V13.6055H12.2L10.6 15.2055L12 16.6055ZM12 22.6055C10.6167 22.6055 9.31667 22.343 8.1 21.818C6.88333 21.293 5.825 20.5805 4.925 19.6805C4.025 18.7805 3.3125 17.7221 2.7875 16.5055C2.2625 15.2888 2 13.9888 2 12.6055C2 11.2221 2.2625 9.92214 2.7875 8.70547C3.3125 7.4888 4.025 6.43047 4.925 5.53047C5.825 4.63047 6.88333 3.91797 8.1 3.39297C9.31667 2.86797 10.6167 2.60547 12 2.60547C13.3833 2.60547 14.6833 2.86797 15.9 3.39297C17.1167 3.91797 18.175 4.63047 19.075 5.53047C19.975 6.43047 20.6875 7.4888 21.2125 8.70547C21.7375 9.92214 22 11.2221 22 12.6055C22 13.9888 21.7375 15.2888 21.2125 16.5055C20.6875 17.7221 19.975 18.7805 19.075 19.6805C18.175 20.5805 17.1167 21.293 15.9 21.818C14.6833 22.343 13.3833 22.6055 12 22.6055Z" fill="#5C4DB1"/>
</g>
</svg>
