<svg width="119" height="146" viewBox="0 0 119 146" fill="none" xmlns="http://www.w3.org/2000/svg">
    <g filter="url(#filter0_d_2498_1773)">
        <g clip-path="url(#clip0_2498_1773)">
            <rect x="8" y="4" width="102.667" height="130" rx="6" fill="#5C4DB1"/>
            <path d="M52.4546 95.5264C57.3572 95.5264 62.2599 95.5264 67.1621 95.5264L67.2425 96.5316L60.055 107.428L52.334 96.424L52.4544 95.527L52.4546 95.5264Z"
                  fill="#B3B3B3"/>
            <path d="M52.5513 92.7937L52.4239 98.9401L41.9961 104.642V125.544H59.5504H77.1025V104.642L67.4113 98.6185L66.8791 92.4731L52.5515 92.7935H52.5513V92.7937Z"
                  fill="#F0BA7D"/>
            <path d="M47.733 74.8701C47.733 74.8701 47.135 73.5562 45.5298 74.2074C43.9241 74.8577 45.6019 81.3498 46.2155 82.2555C46.8285 83.1608 47.8157 82.5859 48.1751 82.55C48.6863 86.4202 48.7319 89.0876 50.2811 90.7195C51.7485 92.2646 55.1079 95.4135 56.8777 96.5118C58.0763 96.7649 58.9705 96.9135 59.8116 96.958C60.6524 96.9135 61.5474 96.7645 62.7456 96.5118C64.5152 95.4142 67.8752 92.2646 69.3422 90.7195C70.891 89.0876 70.937 86.4208 71.4482 82.55C71.8076 82.5861 72.7948 83.1608 73.4078 82.2555C74.0212 81.3498 75.6992 74.8575 74.0935 74.2074C72.4878 73.556 71.8903 74.8701 71.8903 74.8701C71.8903 74.8701 73.4772 69.772 70.6564 64.754C68.7234 61.3146 64.3146 59.5308 59.8119 59.3999C55.3091 59.5308 50.9003 61.3146 48.9673 64.754C46.1465 69.7722 47.7334 74.8701 47.7334 74.8701H47.733Z"
                  fill="#FED298"/>
            <path d="M47.3068 100.748L49.804 99.7642L51.8164 97.9559L58.9219 103.345H60.6915L67.7992 97.9495L72.308 100.748L80.1429 114.066L73.938 147.731C69.4402 148.978 64.7018 149.648 59.8066 149.648C55.8142 149.648 51.9265 149.201 48.1878 148.361L37.0664 115.13L47.3062 100.748L47.3068 100.748Z"
                  fill="#15BDB2"/>
            <path d="M70.0343 99.0639L67.1656 95.5264L60.6973 103.345L66.2494 109.514L70.0343 99.0639Z" fill="#21D0C3"/>
            <path d="M49.584 99.0016L52.4563 95.5264L58.9251 103.345L53.1524 109.451L49.584 99.0016Z" fill="#21D0C3"/>
            <path d="M49.5835 99.002L30.5699 105.185C29.7967 105.436 29.3111 106.093 29.1536 106.892L23.5625 135.225C27.3278 138.786 31.6178 141.796 36.3036 144.131L39.0832 135.06C39.1156 134.956 39.2145 134.891 39.3227 134.904C39.4305 134.917 39.5126 135.003 39.5185 135.112L39.9199 145.766C46.0584 148.268 52.7727 149.648 59.8106 149.648V146.11L49.584 99.0022L49.5835 99.002Z"
                  fill="white"/>
            <path d="M49.5838 99.002L47.4061 99.671L41.6367 109.515L48.9201 109.743L44.4487 112.289L59.8111 146.111L49.5844 99.0024L49.5838 99.002Z"
                  fill="#EEF3F7"/>
            <path d="M70.0338 99.0645L89.0532 105.185C89.8276 105.434 90.3116 106.094 90.4691 106.892L96.0604 135.225C92.2947 138.786 88.0044 141.796 83.3184 144.132L80.5384 135.061C80.5065 134.957 80.4065 134.892 80.2989 134.905C80.1911 134.918 80.1099 135.004 80.1035 135.113L79.7032 145.767C73.5647 148.268 66.8504 149.649 59.8129 149.649H59.8125V146.111L70.0336 99.0651L70.0338 99.0645Z"
                  fill="#EEF3F7"/>
            <path d="M70.0279 99.064L71.2368 99.4317L77.9756 109.577L70.6922 109.806L75.1641 112.352L59.8066 146.111L70.0277 99.0646V99.0642H70.0279V99.064Z"
                  fill="white"/>
            <path d="M70.5014 76.3874L71.6202 76.3482L71.9803 75.0715L73.0342 74.0198C73.7303 68.7785 73.9354 60.6212 68.7331 60.8566C68.7331 60.8566 68.2639 54.9087 58.8801 56.0745C49.4957 57.2408 45.2558 63.2987 45.761 68.3529C46.2658 73.407 46.0623 74.0192 46.0623 74.0192L47.1162 75.0713L47.2752 76.5236L48.1955 76.4655C48.1955 76.4655 48.4841 74.5215 48.7729 73.6665C49.0618 72.8117 48.9714 71.0811 48.9714 71.0811C48.9714 71.0811 60.0555 71.7873 63.0508 67.9771C64.9008 65.6242 69.1494 61.5473 69.3634 67.1934C69.4269 68.8678 68.8044 71.3773 69.9956 73.2038C71.1872 75.0305 70.501 76.3869 70.501 76.3869H70.5014V76.3874Z"
                  fill="#666666"/>
            <path d="M59.809 146.11L62.8052 132.32L60.7691 105.136L61.8785 104.663L60.6926 103.345H58.9231L57.7069 104.632L58.8485 105.136L56.8633 132.54L59.8092 146.11L59.809 146.11Z"
                  fill="#0F7986"/>
            <path d="M78.4415 128.431C76.3823 128.076 75.0013 126.118 75.3565 124.06C75.712 122.001 77.6698 120.619 79.7283 120.974C81.7875 121.33 83.1685 123.288 82.8134 125.347C82.4578 127.406 80.5001 128.787 78.4411 128.432L78.4415 128.431Z"
                  fill="#FEFEFE"/>
            <path d="M78.4809 128.215C76.5417 127.88 75.2411 126.037 75.576 124.097C75.911 122.158 77.7543 120.857 79.6939 121.192C81.6332 121.527 82.9338 123.37 82.5988 125.31C82.2639 127.249 80.4205 128.549 78.4809 128.214V128.215Z"
                  fill="#0F7986"/>
            <path d="M78.7518 126.647C77.6791 126.462 76.9593 125.441 77.1442 124.368C77.3291 123.295 78.35 122.576 79.4225 122.76C80.4956 122.946 81.2153 123.965 81.03 125.039C80.8451 126.111 79.8246 126.831 78.7518 126.646V126.647Z"
                  fill="#EBECEC"/>
            <path d="M78.9805 122.972L79.8468 123.121L80.3126 120.423L79.4463 120.273L78.9805 122.972Z" fill="#FEFEFE"/>
            <path d="M49.9638 129.18L51.5873 128.857C52.2772 128.72 52.8483 128.314 53.213 127.769C53.5766 127.224 53.7347 126.541 53.5974 125.851L51.6881 116.232C50.9672 112.602 48.1277 110.751 44.8829 110.341C43.6395 110.184 42.336 110.241 41.0731 110.491C39.8091 110.741 38.5839 111.185 37.4954 111.805C34.6604 113.42 32.7498 116.212 33.4715 119.847L35.3808 129.467C35.5181 130.157 35.9247 130.728 36.4693 131.092L36.4708 131.092C37.0158 131.456 37.6978 131.614 38.3877 131.477L40.0103 131.154L39.8776 130.485L38.2546 130.808C37.7487 130.908 37.2476 130.792 36.8484 130.526L36.8488 130.525C36.4493 130.258 36.1509 129.839 36.0503 129.334L34.141 119.714C33.4861 116.415 35.2367 113.872 37.8308 112.396C38.856 111.812 40.0122 111.393 41.2056 111.156C42.3991 110.919 43.628 110.866 44.7992 111.014C47.7692 111.389 50.3664 113.071 51.0196 116.364L52.9293 125.983C53.0293 126.489 52.9135 126.99 52.6467 127.39C52.3792 127.789 51.9605 128.087 51.4545 128.187L49.8311 128.509L49.9638 129.178V129.18Z"
                  fill="#21D0C3"/>
            <path d="M52.2057 117.658L51.914 116.189C51.1713 112.446 48.2497 110.539 44.9138 110.117C43.6464 109.957 42.319 110.014 41.0323 110.269C39.7457 110.524 38.4968 110.977 37.3877 111.609C34.4718 113.269 32.5079 116.144 33.252 119.893L33.5441 121.362L34.6584 121.14L34.3667 119.671C33.7345 116.485 35.4319 114.025 37.9452 112.593C38.9499 112.022 40.0827 111.611 41.2529 111.379C42.4226 111.147 43.6274 111.095 44.7749 111.24C47.6526 111.603 50.1686 113.229 50.8003 116.41L51.092 117.879L52.2067 117.657L52.2057 117.658Z"
                  fill="#4D4D4D"/>
            <path d="M38.7202 131.558L39.5888 131.385C39.8068 131.63 40.1443 131.755 40.4881 131.687C41.0048 131.585 41.3406 131.083 41.238 130.566C41.1357 130.049 40.6336 129.714 40.1169 129.816C39.7722 129.884 39.5088 130.13 39.4012 130.439L38.5332 130.611L38.7208 131.557L38.7202 131.558Z"
                  fill="#076673"/>
            <path d="M50.6481 129.19L49.7805 129.362C49.6727 129.671 49.4093 129.916 49.0652 129.985C48.5485 130.087 48.0468 129.752 47.9441 129.235C47.8419 128.718 48.1773 128.216 48.6936 128.114C49.0376 128.046 49.3754 128.172 49.5925 128.416L50.4605 128.244L50.6481 129.19Z"
                  fill="#076673"/>
            <path d="M41.5577 110.182L41.2265 108.513L40.5679 108.644L39.9102 108.775L40.2451 110.46C40.496 110.387 40.7499 110.324 41.0063 110.273C41.1892 110.237 41.3726 110.207 41.5577 110.182Z"
                  fill="#666666"/>
            <path d="M40.1337 130.629C40.29 130.598 40.3916 130.445 40.3605 130.29C40.3296 130.133 40.1783 130.031 40.0214 130.062C39.865 130.093 39.7636 130.245 39.7947 130.401C39.8258 130.557 39.9773 130.66 40.1337 130.628V130.629Z"
                  fill="#0F7986"/>
            <path d="M48.7181 128.921C48.8742 128.89 48.9754 128.738 48.9445 128.582C48.9136 128.425 48.7623 128.324 48.6054 128.355C48.4489 128.386 48.3475 128.538 48.3787 128.694C48.4092 128.85 48.5613 128.952 48.7181 128.921Z"
                  fill="#0F7986"/>
            <path d="M78.6454 126.629C77.6307 126.454 76.9502 125.489 77.125 124.474C77.3 123.459 78.2643 122.778 79.2792 122.954C80.294 123.129 80.9748 124.094 80.7996 125.108C80.6242 126.123 79.6593 126.804 78.645 126.629H78.6454Z"
                  fill="#FEFEFE"/>
            <path d="M49.5912 99.5026C49.5621 99.503 39.3138 99.588 41.0449 108.554L40.0917 108.736C38.1404 98.6282 49.5475 98.5351 49.5798 98.5347L49.5912 99.5026Z"
                  fill="#4D4D4D"/>
            <path d="M70.0416 98.5811C71.7137 98.6262 74.9457 99.0819 77.4336 102.108C79.8681 105.069 81.5748 110.508 80.2987 120.479L79.338 120.358C80.5733 110.707 78.977 105.511 76.6862 102.723C74.4479 100 71.5294 99.5898 70.0195 99.5492L70.0422 98.5811H70.0416Z"
                  fill="#4D4D4D"/>
            <path d="M11.99 18.2133C11.99 17.2519 12.2047 16.3933 12.634 15.6373C13.0727 14.8719 13.6653 14.2793 14.412 13.8593C15.168 13.4299 16.0127 13.2153 16.946 13.2153C18.038 13.2153 18.9947 13.4953 19.816 14.0553C20.6373 14.6153 21.2113 15.3899 21.538 16.3793H19.284C19.06 15.9126 18.7427 15.5626 18.332 15.3293C17.9307 15.0959 17.464 14.9793 16.932 14.9793C16.3627 14.9793 15.854 15.1146 15.406 15.3853C14.9673 15.6466 14.622 16.0199 14.37 16.5053C14.1273 16.9906 14.006 17.5599 14.006 18.2133C14.006 18.8573 14.1273 19.4266 14.37 19.9213C14.622 20.4066 14.9673 20.7846 15.406 21.0553C15.854 21.3166 16.3627 21.4473 16.932 21.4473C17.464 21.4473 17.9307 21.3306 18.332 21.0973C18.7427 20.8546 19.06 20.4999 19.284 20.0333H21.538C21.2113 21.0319 20.6373 21.8113 19.816 22.3713C19.004 22.9219 18.0473 23.1973 16.946 23.1973C16.0127 23.1973 15.168 22.9873 14.412 22.5673C13.6653 22.1379 13.0727 21.5453 12.634 20.7893C12.2047 20.0333 11.99 19.1746 11.99 18.2133ZM26.6911 23.2393C25.9444 23.2393 25.2724 23.0759 24.6751 22.7493C24.0778 22.4133 23.6064 21.9419 23.2611 21.3353C22.9251 20.7286 22.7571 20.0286 22.7571 19.2353C22.7571 18.4419 22.9298 17.7419 23.2751 17.1353C23.6298 16.5286 24.1104 16.0619 24.7171 15.7353C25.3238 15.3993 26.0004 15.2313 26.7471 15.2313C27.4938 15.2313 28.1704 15.3993 28.7771 15.7353C29.3838 16.0619 29.8598 16.5286 30.2051 17.1353C30.5598 17.7419 30.7371 18.4419 30.7371 19.2353C30.7371 20.0286 30.5551 20.7286 30.1911 21.3353C29.8364 21.9419 29.3511 22.4133 28.7351 22.7493C28.1284 23.0759 27.4471 23.2393 26.6911 23.2393ZM26.6911 21.5313C27.0458 21.5313 27.3771 21.4473 27.6851 21.2793C28.0024 21.1019 28.2544 20.8406 28.4411 20.4953C28.6278 20.1499 28.7211 19.7299 28.7211 19.2353C28.7211 18.4979 28.5251 17.9333 28.1331 17.5413C27.7504 17.1399 27.2791 16.9393 26.7191 16.9393C26.1591 16.9393 25.6878 17.1399 25.3051 17.5413C24.9318 17.9333 24.7451 18.4979 24.7451 19.2353C24.7451 19.9726 24.9271 20.5419 25.2911 20.9433C25.6644 21.3353 26.1311 21.5313 26.6911 21.5313ZM36.5078 15.2453C37.4318 15.2453 38.1785 15.5393 38.7478 16.1273C39.3172 16.7059 39.6018 17.5179 39.6018 18.5633V23.1133H37.6418V18.8293C37.6418 18.2133 37.4878 17.7419 37.1798 17.4153C36.8718 17.0793 36.4518 16.9113 35.9198 16.9113C35.3785 16.9113 34.9492 17.0793 34.6318 17.4153C34.3238 17.7419 34.1698 18.2133 34.1698 18.8293V23.1133H32.2098V15.3573H34.1698V16.3233C34.4312 15.9873 34.7625 15.7259 35.1638 15.5393C35.5745 15.3433 36.0225 15.2453 36.5078 15.2453ZM44.4687 23.2393C43.834 23.2393 43.2647 23.1273 42.7607 22.9033C42.2567 22.6699 41.8554 22.3573 41.5567 21.9653C41.2674 21.5733 41.1087 21.1393 41.0807 20.6633H43.0547C43.092 20.9619 43.2367 21.2093 43.4887 21.4053C43.75 21.6013 44.072 21.6993 44.4547 21.6993C44.828 21.6993 45.1174 21.6246 45.3227 21.4753C45.5374 21.3259 45.6447 21.1346 45.6447 20.9013C45.6447 20.6493 45.514 20.4626 45.2527 20.3413C45.0007 20.2106 44.5947 20.0706 44.0347 19.9213C43.456 19.7813 42.98 19.6366 42.6067 19.4873C42.2427 19.3379 41.9254 19.1093 41.6547 18.8013C41.3934 18.4933 41.2627 18.0779 41.2627 17.5553C41.2627 17.1259 41.384 16.7339 41.6267 16.3793C41.8787 16.0246 42.2334 15.7446 42.6907 15.5393C43.1574 15.3339 43.7034 15.2313 44.3287 15.2313C45.2527 15.2313 45.99 15.4646 46.5407 15.9313C47.0914 16.3886 47.3947 17.0093 47.4507 17.7933H45.5747C45.5467 17.4853 45.416 17.2426 45.1827 17.0653C44.9587 16.8786 44.6554 16.7853 44.2727 16.7853C43.918 16.7853 43.6427 16.8506 43.4467 16.9813C43.26 17.1119 43.1667 17.2939 43.1667 17.5273C43.1667 17.7886 43.2974 17.9893 43.5587 18.1293C43.82 18.2599 44.226 18.3953 44.7767 18.5353C45.3367 18.6753 45.7987 18.8199 46.1627 18.9693C46.5267 19.1186 46.8394 19.3519 47.1007 19.6693C47.3714 19.9773 47.5114 20.3879 47.5207 20.9013C47.5207 21.3493 47.3947 21.7506 47.1427 22.1053C46.9 22.4599 46.5454 22.7399 46.0787 22.9453C45.6214 23.1413 45.0847 23.2393 44.4687 23.2393ZM56.4866 15.3573V23.1133H54.5126V22.1333C54.2606 22.4693 53.9293 22.7353 53.5186 22.9313C53.1173 23.1179 52.6786 23.2113 52.2026 23.2113C51.5959 23.2113 51.0593 23.0853 50.5926 22.8333C50.1259 22.5719 49.7573 22.1939 49.4866 21.6993C49.2253 21.1953 49.0946 20.5979 49.0946 19.9073V15.3573H51.0546V19.6273C51.0546 20.2433 51.2086 20.7193 51.5166 21.0553C51.8246 21.3819 52.2446 21.5453 52.7766 21.5453C53.3179 21.5453 53.7426 21.3819 54.0506 21.0553C54.3586 20.7193 54.5126 20.2433 54.5126 19.6273V15.3573H56.4866ZM60.4155 12.7533V23.1133H58.4555V12.7533H60.4155ZM64.6689 16.9673V20.7193C64.6689 20.9806 64.7296 21.1719 64.8509 21.2933C64.9816 21.4053 65.1963 21.4613 65.4949 21.4613H66.4049V23.1133H65.1729C63.5209 23.1133 62.6949 22.3106 62.6949 20.7053V16.9673H61.7709V15.3573H62.6949V13.4393H64.6689V15.3573H66.4049V16.9673H64.6689ZM15.882 34.3413C16.9087 34.3413 17.8093 34.5419 18.584 34.9433C19.368 35.3446 19.97 35.9186 20.39 36.6653C20.8193 37.4026 21.034 38.2613 21.034 39.2413C21.034 40.2213 20.8193 41.0799 20.39 41.8173C19.97 42.5453 19.368 43.1099 18.584 43.5113C17.8093 43.9126 16.9087 44.1133 15.882 44.1133H12.466V34.3413H15.882ZM15.812 42.4473C16.8387 42.4473 17.632 42.1673 18.192 41.6073C18.752 41.0473 19.032 40.2586 19.032 39.2413C19.032 38.2239 18.752 37.4306 18.192 36.8613C17.632 36.2826 16.8387 35.9933 15.812 35.9933H14.426V42.4473H15.812ZM25.9802 44.2393C25.2335 44.2393 24.5615 44.0759 23.9642 43.7493C23.3668 43.4133 22.8955 42.9419 22.5502 42.3353C22.2142 41.7286 22.0462 41.0286 22.0462 40.2353C22.0462 39.4419 22.2188 38.7419 22.5642 38.1353C22.9188 37.5286 23.3995 37.0619 24.0062 36.7353C24.6128 36.3993 25.2895 36.2313 26.0362 36.2313C26.7828 36.2313 27.4595 36.3993 28.0662 36.7353C28.6728 37.0619 29.1488 37.5286 29.4942 38.1353C29.8488 38.7419 30.0262 39.4419 30.0262 40.2353C30.0262 41.0286 29.8442 41.7286 29.4802 42.3353C29.1255 42.9419 28.6402 43.4133 28.0242 43.7493C27.4175 44.0759 26.7362 44.2393 25.9802 44.2393ZM25.9802 42.5313C26.3348 42.5313 26.6662 42.4473 26.9742 42.2793C27.2915 42.1019 27.5435 41.8406 27.7302 41.4953C27.9168 41.1499 28.0102 40.7299 28.0102 40.2353C28.0102 39.4979 27.8142 38.9333 27.4222 38.5413C27.0395 38.1399 26.5682 37.9393 26.0082 37.9393C25.4482 37.9393 24.9768 38.1399 24.5942 38.5413C24.2208 38.9333 24.0342 39.4979 24.0342 40.2353C24.0342 40.9726 24.2162 41.5419 24.5802 41.9433C24.9535 42.3353 25.4202 42.5313 25.9802 42.5313ZM30.9949 40.2353C30.9949 39.4326 31.1582 38.7326 31.4849 38.1353C31.8116 37.5286 32.2642 37.0619 32.8429 36.7353C33.4216 36.3993 34.0842 36.2313 34.8309 36.2313C35.7922 36.2313 36.5856 36.4739 37.2109 36.9593C37.8456 37.4353 38.2702 38.1073 38.4849 38.9753H36.3709C36.2589 38.6393 36.0676 38.3779 35.7969 38.1913C35.5356 37.9953 35.2089 37.8973 34.8169 37.8973C34.2569 37.8973 33.8136 38.1026 33.4869 38.5133C33.1602 38.9146 32.9969 39.4886 32.9969 40.2353C32.9969 40.9726 33.1602 41.5466 33.4869 41.9573C33.8136 42.3586 34.2569 42.5593 34.8169 42.5593C35.6102 42.5593 36.1282 42.2046 36.3709 41.4953H38.4849C38.2702 42.3353 37.8456 43.0026 37.2109 43.4973C36.5762 43.9919 35.7829 44.2393 34.8309 44.2393C34.0842 44.2393 33.4216 44.0759 32.8429 43.7493C32.2642 43.4133 31.8116 42.9466 31.4849 42.3493C31.1582 41.7426 30.9949 41.0379 30.9949 40.2353ZM42.2378 37.9673V41.7193C42.2378 41.9806 42.2984 42.1719 42.4198 42.2933C42.5504 42.4053 42.7651 42.4613 43.0638 42.4613H43.9738V44.1133H42.7418C41.0898 44.1133 40.2638 43.3106 40.2638 41.7053V37.9673H39.3398V36.3573H40.2638V34.4393H42.2378V36.3573H43.9738V37.9673H42.2378ZM48.8625 44.2393C48.1158 44.2393 47.4438 44.0759 46.8465 43.7493C46.2492 43.4133 45.7778 42.9419 45.4325 42.3353C45.0965 41.7286 44.9285 41.0286 44.9285 40.2353C44.9285 39.4419 45.1012 38.7419 45.4465 38.1353C45.8012 37.5286 46.2818 37.0619 46.8885 36.7353C47.4952 36.3993 48.1718 36.2313 48.9185 36.2313C49.6652 36.2313 50.3418 36.3993 50.9485 36.7353C51.5552 37.0619 52.0312 37.5286 52.3765 38.1353C52.7312 38.7419 52.9085 39.4419 52.9085 40.2353C52.9085 41.0286 52.7265 41.7286 52.3625 42.3353C52.0078 42.9419 51.5225 43.4133 50.9065 43.7493C50.2998 44.0759 49.6185 44.2393 48.8625 44.2393ZM48.8625 42.5313C49.2172 42.5313 49.5485 42.4473 49.8565 42.2793C50.1738 42.1019 50.4258 41.8406 50.6125 41.4953C50.7992 41.1499 50.8925 40.7299 50.8925 40.2353C50.8925 39.4979 50.6965 38.9333 50.3045 38.5413C49.9218 38.1399 49.4505 37.9393 48.8905 37.9393C48.3305 37.9393 47.8592 38.1399 47.4765 38.5413C47.1032 38.9333 46.9165 39.4979 46.9165 40.2353C46.9165 40.9726 47.0985 41.5419 47.4625 41.9433C47.8358 42.3353 48.3025 42.5313 48.8625 42.5313ZM56.3412 37.5613C56.5932 37.1506 56.9199 36.8286 57.3212 36.5953C57.7319 36.3619 58.1986 36.2453 58.7212 36.2453V38.3033H58.2032C57.5872 38.3033 57.1206 38.4479 56.8032 38.7373C56.4952 39.0266 56.3412 39.5306 56.3412 40.2493V44.1133H54.3812V36.3573H56.3412V37.5613ZM63.0444 44.2393C62.4097 44.2393 61.8404 44.1273 61.3364 43.9033C60.8324 43.6699 60.4311 43.3573 60.1324 42.9653C59.8431 42.5733 59.6844 42.1393 59.6564 41.6633H61.6304C61.6677 41.9619 61.8124 42.2093 62.0644 42.4053C62.3257 42.6013 62.6477 42.6993 63.0304 42.6993C63.4037 42.6993 63.6931 42.6246 63.8984 42.4753C64.1131 42.3259 64.2204 42.1346 64.2204 41.9013C64.2204 41.6493 64.0897 41.4626 63.8284 41.3413C63.5764 41.2106 63.1704 41.0706 62.6104 40.9213C62.0317 40.7813 61.5557 40.6366 61.1824 40.4873C60.8184 40.3379 60.5011 40.1093 60.2304 39.8013C59.9691 39.4933 59.8384 39.0779 59.8384 38.5553C59.8384 38.1259 59.9597 37.7339 60.2024 37.3793C60.4544 37.0246 60.8091 36.7446 61.2664 36.5393C61.7331 36.3339 62.2791 36.2313 62.9044 36.2313C63.8284 36.2313 64.5657 36.4646 65.1164 36.9313C65.6671 37.3886 65.9704 38.0093 66.0264 38.7933H64.1504C64.1224 38.4853 63.9917 38.2426 63.7584 38.0653C63.5344 37.8786 63.2311 37.7853 62.8484 37.7853C62.4937 37.7853 62.2184 37.8506 62.0224 37.9813C61.8357 38.1119 61.7424 38.2939 61.7424 38.5273C61.7424 38.7886 61.8731 38.9893 62.1344 39.1293C62.3957 39.2599 62.8017 39.3953 63.3524 39.5353C63.9124 39.6753 64.3744 39.8199 64.7384 39.9693C65.1024 40.1186 65.4151 40.3519 65.6764 40.6693C65.9471 40.9773 66.0871 41.3879 66.0964 41.9013C66.0964 42.3493 65.9704 42.7506 65.7184 43.1053C65.4757 43.4599 65.1211 43.7399 64.6544 43.9453C64.1971 44.1413 63.6604 44.2393 63.0444 44.2393Z"
                  fill="white"/>
        </g>
        <rect x="8.5" y="4.5" width="101.667" height="129" rx="5.5" stroke="black" stroke-opacity="0.1"/>
    </g>
    <defs>
        <filter id="filter0_d_2498_1773" x="0" y="0" width="118.666" height="146" filterUnits="userSpaceOnUse"
                color-interpolation-filters="sRGB">
            <feFlood flood-opacity="0" result="BackgroundImageFix"/>
            <feColorMatrix in="SourceAlpha" type="matrix" values="0 0 0 0 0 0 0 0 0 0 0 0 0 0 0 0 0 0 127 0"
                           result="hardAlpha"/>
            <feOffset dy="4"/>
            <feGaussianBlur stdDeviation="4"/>
            <feComposite in2="hardAlpha" operator="out"/>
            <feColorMatrix type="matrix" values="0 0 0 0 0 0 0 0 0 0 0 0 0 0 0 0 0 0 0.08 0"/>
            <feBlend mode="normal" in2="BackgroundImageFix" result="effect1_dropShadow_2498_1773"/>
            <feBlend mode="normal" in="SourceGraphic" in2="effect1_dropShadow_2498_1773" result="shape"/>
        </filter>
        <clipPath id="clip0_2498_1773">
            <rect x="8" y="4" width="102.667" height="130" rx="6" fill="white"/>
        </clipPath>
    </defs>
</svg>
