<svg width="119" height="146" viewBox="0 0 119 146" fill="none" xmlns="http://www.w3.org/2000/svg">
<g filter="url(#filter0_d_2498_1756)">
<g clip-path="url(#clip0_2498_1756)">
<rect x="8" y="4" width="102.667" height="130" rx="6" fill="#CB6787"/>
<path d="M18.458 21.2513H14.566L13.922 23.1133H11.864L15.378 13.3273H17.66L21.174 23.1133H19.102L18.458 21.2513ZM17.926 19.6833L16.512 15.5953L15.098 19.6833H17.926ZM24.4825 16.4773C24.7345 16.1226 25.0798 15.8286 25.5185 15.5953C25.9665 15.3526 26.4752 15.2313 27.0445 15.2313C27.7072 15.2313 28.3045 15.3946 28.8365 15.7213C29.3778 16.0479 29.8025 16.5146 30.1105 17.1213C30.4278 17.7186 30.5865 18.4139 30.5865 19.2073C30.5865 20.0006 30.4278 20.7053 30.1105 21.3213C29.8025 21.9279 29.3778 22.3993 28.8365 22.7353C28.3045 23.0713 27.7072 23.2393 27.0445 23.2393C26.4752 23.2393 25.9712 23.1226 25.5325 22.8893C25.1032 22.6559 24.7532 22.3619 24.4825 22.0073V26.8093H22.5225V15.3573H24.4825V16.4773ZM28.5845 19.2073C28.5845 18.7406 28.4865 18.3393 28.2905 18.0033C28.1038 17.6579 27.8518 17.3966 27.5345 17.2193C27.2265 17.0419 26.8905 16.9533 26.5265 16.9533C26.1718 16.9533 25.8358 17.0466 25.5185 17.2333C25.2105 17.4106 24.9585 17.6719 24.7625 18.0173C24.5758 18.3626 24.4825 18.7686 24.4825 19.2353C24.4825 19.7019 24.5758 20.1079 24.7625 20.4533C24.9585 20.7986 25.2105 21.0646 25.5185 21.2513C25.8358 21.4286 26.1718 21.5173 26.5265 21.5173C26.8905 21.5173 27.2265 21.4239 27.5345 21.2373C27.8518 21.0506 28.1038 20.7846 28.2905 20.4393C28.4865 20.0939 28.5845 19.6833 28.5845 19.2073ZM34.0058 16.4773C34.2578 16.1226 34.6031 15.8286 35.0418 15.5953C35.4898 15.3526 35.9984 15.2313 36.5678 15.2313C37.2304 15.2313 37.8278 15.3946 38.3598 15.7213C38.9011 16.0479 39.3258 16.5146 39.6338 17.1213C39.9511 17.7186 40.1098 18.4139 40.1098 19.2073C40.1098 20.0006 39.9511 20.7053 39.6338 21.3213C39.3258 21.9279 38.9011 22.3993 38.3598 22.7353C37.8278 23.0713 37.2304 23.2393 36.5678 23.2393C35.9984 23.2393 35.4944 23.1226 35.0558 22.8893C34.6264 22.6559 34.2764 22.3619 34.0058 22.0073V26.8093H32.0458V15.3573H34.0058V16.4773ZM38.1078 19.2073C38.1078 18.7406 38.0098 18.3393 37.8138 18.0033C37.6271 17.6579 37.3751 17.3966 37.0578 17.2193C36.7498 17.0419 36.4138 16.9533 36.0498 16.9533C35.6951 16.9533 35.3591 17.0466 35.0418 17.2333C34.7338 17.4106 34.4818 17.6719 34.2858 18.0173C34.0991 18.3626 34.0058 18.7686 34.0058 19.2353C34.0058 19.7019 34.0991 20.1079 34.2858 20.4533C34.4818 20.7986 34.7338 21.0646 35.0418 21.2513C35.3591 21.4286 35.6951 21.5173 36.0498 21.5173C36.4138 21.5173 36.7498 21.4239 37.0578 21.2373C37.3751 21.0506 37.6271 20.7846 37.8138 20.4393C38.0098 20.0939 38.1078 19.6833 38.1078 19.2073ZM43.529 12.7533V23.1133H41.569V12.7533H43.529ZM52.9205 15.3573L48.1185 26.7813H46.0325L47.7125 22.9173L44.6045 15.3573H46.8025L48.8045 20.7753L50.8345 15.3573H52.9205ZM60.939 16.9673H59.581V23.1133H57.593V16.9673H56.711V15.3573H57.593V14.9653C57.593 14.0133 57.8637 13.3133 58.405 12.8653C58.9464 12.4173 59.763 12.2073 60.855 12.2353V13.8873C60.379 13.8779 60.0477 13.9573 59.861 14.1253C59.6744 14.2933 59.581 14.5966 59.581 15.0353V15.3573H60.939V16.9673ZM65.6882 23.2393C64.9415 23.2393 64.2695 23.0759 63.6722 22.7493C63.0749 22.4133 62.6035 21.9419 62.2582 21.3353C61.9222 20.7286 61.7542 20.0286 61.7542 19.2353C61.7542 18.4419 61.9269 17.7419 62.2722 17.1353C62.6269 16.5286 63.1075 16.0619 63.7142 15.7353C64.3209 15.3993 64.9975 15.2313 65.7442 15.2313C66.4909 15.2313 67.1675 15.3993 67.7742 15.7353C68.3809 16.0619 68.8569 16.5286 69.2022 17.1353C69.5569 17.7419 69.7342 18.4419 69.7342 19.2353C69.7342 20.0286 69.5522 20.7286 69.1882 21.3353C68.8335 21.9419 68.3482 22.4133 67.7322 22.7493C67.1255 23.0759 66.4442 23.2393 65.6882 23.2393ZM65.6882 21.5313C66.0429 21.5313 66.3742 21.4473 66.6822 21.2793C66.9995 21.1019 67.2515 20.8406 67.4382 20.4953C67.6249 20.1499 67.7182 19.7299 67.7182 19.2353C67.7182 18.4979 67.5222 17.9333 67.1302 17.5413C66.7475 17.1399 66.2762 16.9393 65.7162 16.9393C65.1562 16.9393 64.6849 17.1399 64.3022 17.5413C63.9289 17.9333 63.7422 18.4979 63.7422 19.2353C63.7422 19.9726 63.9242 20.5419 64.2882 20.9433C64.6615 21.3353 65.1282 21.5313 65.6882 21.5313ZM73.1669 16.5613C73.4189 16.1506 73.7456 15.8286 74.1469 15.5953C74.5576 15.3619 75.0243 15.2453 75.5469 15.2453V17.3033H75.0289C74.4129 17.3033 73.9463 17.4479 73.6289 17.7373C73.3209 18.0266 73.1669 18.5306 73.1669 19.2493V23.1133H71.2069V15.3573H73.1669V16.5613ZM20.572 34.3413V44.1133H18.612V39.9553H14.426V44.1133H12.466V34.3413H14.426V38.3593H18.612V34.3413H20.572ZM25.9802 44.2393C25.2335 44.2393 24.5615 44.0759 23.9642 43.7493C23.3668 43.4133 22.8955 42.9419 22.5502 42.3353C22.2142 41.7286 22.0462 41.0286 22.0462 40.2353C22.0462 39.4419 22.2188 38.7419 22.5642 38.1353C22.9188 37.5286 23.3995 37.0619 24.0062 36.7353C24.6128 36.3993 25.2895 36.2313 26.0362 36.2313C26.7828 36.2313 27.4595 36.3993 28.0662 36.7353C28.6728 37.0619 29.1488 37.5286 29.4942 38.1353C29.8488 38.7419 30.0262 39.4419 30.0262 40.2353C30.0262 41.0286 29.8442 41.7286 29.4802 42.3353C29.1255 42.9419 28.6402 43.4133 28.0242 43.7493C27.4175 44.0759 26.7362 44.2393 25.9802 44.2393ZM25.9802 42.5313C26.3348 42.5313 26.6662 42.4473 26.9742 42.2793C27.2915 42.1019 27.5435 41.8406 27.7302 41.4953C27.9168 41.1499 28.0102 40.7299 28.0102 40.2353C28.0102 39.4979 27.8142 38.9333 27.4222 38.5413C27.0395 38.1399 26.5682 37.9393 26.0082 37.9393C25.4482 37.9393 24.9768 38.1399 24.5942 38.5413C24.2208 38.9333 24.0342 39.4979 24.0342 40.2353C24.0342 40.9726 24.2162 41.5419 24.5802 41.9433C24.9535 42.3353 25.4202 42.5313 25.9802 42.5313ZM41.1309 36.2453C42.0829 36.2453 42.8482 36.5393 43.4269 37.1273C44.0149 37.7059 44.3089 38.5179 44.3089 39.5633V44.1133H42.3489V39.8293C42.3489 39.2226 42.1949 38.7606 41.8869 38.4433C41.5789 38.1166 41.1589 37.9533 40.6269 37.9533C40.0949 37.9533 39.6702 38.1166 39.3529 38.4433C39.0449 38.7606 38.8909 39.2226 38.8909 39.8293V44.1133H36.9309V39.8293C36.9309 39.2226 36.7769 38.7606 36.4689 38.4433C36.1609 38.1166 35.7409 37.9533 35.2089 37.9533C34.6676 37.9533 34.2382 38.1166 33.9209 38.4433C33.6129 38.7606 33.4589 39.2226 33.4589 39.8293V44.1133H31.4989V36.3573H33.4589V37.2953C33.7109 36.9686 34.0329 36.7119 34.4249 36.5253C34.8262 36.3386 35.2649 36.2453 35.7409 36.2453C36.3476 36.2453 36.8889 36.3759 37.3649 36.6373C37.8409 36.8893 38.2096 37.2533 38.4709 37.7293C38.7229 37.2813 39.0869 36.9219 39.5629 36.6513C40.0482 36.3806 40.5709 36.2453 41.1309 36.2453ZM53.4138 40.0673C53.4138 40.3473 53.3951 40.5993 53.3578 40.8233H47.6878C47.7345 41.3833 47.9305 41.8219 48.2758 42.1393C48.6211 42.4566 49.0458 42.6153 49.5498 42.6153C50.2778 42.6153 50.7958 42.3026 51.1038 41.6773H53.2178C52.9938 42.4239 52.5645 43.0399 51.9298 43.5253C51.2951 44.0013 50.5158 44.2393 49.5918 44.2393C48.8451 44.2393 48.1731 44.0759 47.5758 43.7493C46.9878 43.4133 46.5258 42.9419 46.1898 42.3353C45.8631 41.7286 45.6998 41.0286 45.6998 40.2353C45.6998 39.4326 45.8631 38.7279 46.1898 38.1213C46.5165 37.5146 46.9738 37.0479 47.5618 36.7213C48.1498 36.3946 48.8265 36.2313 49.5918 36.2313C50.3291 36.2313 50.9871 36.3899 51.5658 36.7073C52.1538 37.0246 52.6065 37.4773 52.9238 38.0653C53.2505 38.6439 53.4138 39.3113 53.4138 40.0673ZM51.3838 39.5073C51.3745 39.0033 51.1925 38.6019 50.8378 38.3033C50.4831 37.9953 50.0491 37.8413 49.5358 37.8413C49.0505 37.8413 48.6398 37.9906 48.3038 38.2893C47.9771 38.5786 47.7765 38.9846 47.7018 39.5073H51.3838ZM54.4034 39.2133C54.4034 38.2519 54.6181 37.3933 55.0474 36.6373C55.4861 35.8719 56.0788 35.2793 56.8254 34.8593C57.5814 34.4299 58.4261 34.2153 59.3594 34.2153C60.4514 34.2153 61.4081 34.4953 62.2294 35.0553C63.0508 35.6153 63.6248 36.3899 63.9514 37.3793H61.6974C61.4734 36.9126 61.1561 36.5626 60.7454 36.3293C60.3441 36.0959 59.8774 35.9793 59.3454 35.9793C58.7761 35.9793 58.2674 36.1146 57.8194 36.3853C57.3808 36.6466 57.0354 37.0199 56.7834 37.5053C56.5408 37.9906 56.4194 38.5599 56.4194 39.2133C56.4194 39.8573 56.5408 40.4266 56.7834 40.9213C57.0354 41.4066 57.3808 41.7846 57.8194 42.0553C58.2674 42.3166 58.7761 42.4473 59.3454 42.4473C59.8774 42.4473 60.3441 42.3306 60.7454 42.0973C61.1561 41.8546 61.4734 41.4999 61.6974 41.0333H63.9514C63.6248 42.0319 63.0508 42.8113 62.2294 43.3713C61.4174 43.9219 60.4608 44.1973 59.3594 44.1973C58.4261 44.1973 57.5814 43.9873 56.8254 43.5673C56.0788 43.1379 55.4861 42.5453 55.0474 41.7893C54.6181 41.0333 54.4034 40.1746 54.4034 39.2133ZM65.1565 40.2073C65.1565 39.4233 65.3105 38.7279 65.6185 38.1213C65.9359 37.5146 66.3605 37.0479 66.8925 36.7213C67.4339 36.3946 68.0359 36.2313 68.6985 36.2313C69.2772 36.2313 69.7812 36.3479 70.2105 36.5813C70.6492 36.8146 70.9992 37.1086 71.2605 37.4633V36.3573H73.2345V44.1133H71.2605V42.9793C71.0085 43.3433 70.6585 43.6466 70.2105 43.8893C69.7719 44.1226 69.2632 44.2393 68.6845 44.2393C68.0312 44.2393 67.4339 44.0713 66.8925 43.7353C66.3605 43.3993 65.9359 42.9279 65.6185 42.3213C65.3105 41.7053 65.1565 41.0006 65.1565 40.2073ZM71.2605 40.2353C71.2605 39.7593 71.1672 39.3533 70.9805 39.0173C70.7939 38.6719 70.5419 38.4106 70.2245 38.2333C69.9072 38.0466 69.5665 37.9533 69.2025 37.9533C68.8385 37.9533 68.5025 38.0419 68.1945 38.2193C67.8865 38.3966 67.6345 38.6579 67.4385 39.0033C67.2519 39.3393 67.1585 39.7406 67.1585 40.2073C67.1585 40.6739 67.2519 41.0846 67.4385 41.4393C67.6345 41.7846 67.8865 42.0506 68.1945 42.2373C68.5119 42.4239 68.8479 42.5173 69.2025 42.5173C69.5665 42.5173 69.9072 42.4286 70.2245 42.2513C70.5419 42.0646 70.7939 41.8033 70.9805 41.4673C71.1672 41.1219 71.2605 40.7113 71.2605 40.2353ZM77.1438 37.5613C77.3958 37.1506 77.7225 36.8286 78.1238 36.5953C78.5345 36.3619 79.0011 36.2453 79.5238 36.2453V38.3033H79.0058C78.3898 38.3033 77.9231 38.4479 77.6058 38.7373C77.2978 39.0266 77.1438 39.5306 77.1438 40.2493V44.1133H75.1838V36.3573H77.1438V37.5613ZM88.089 40.0673C88.089 40.3473 88.0703 40.5993 88.033 40.8233H82.363C82.4096 41.3833 82.6056 41.8219 82.951 42.1393C83.2963 42.4566 83.721 42.6153 84.225 42.6153C84.953 42.6153 85.471 42.3026 85.779 41.6773H87.893C87.669 42.4239 87.2396 43.0399 86.605 43.5253C85.9703 44.0013 85.191 44.2393 84.267 44.2393C83.5203 44.2393 82.8483 44.0759 82.251 43.7493C81.663 43.4133 81.201 42.9419 80.865 42.3353C80.5383 41.7286 80.375 41.0286 80.375 40.2353C80.375 39.4326 80.5383 38.7279 80.865 38.1213C81.1916 37.5146 81.649 37.0479 82.237 36.7213C82.825 36.3946 83.5016 36.2313 84.267 36.2313C85.0043 36.2313 85.6623 36.3899 86.241 36.7073C86.829 37.0246 87.2816 37.4773 87.599 38.0653C87.9256 38.6439 88.089 39.3113 88.089 40.0673ZM86.059 39.5073C86.0496 39.0033 85.8676 38.6019 85.513 38.3033C85.1583 37.9953 84.7243 37.8413 84.211 37.8413C83.7256 37.8413 83.315 37.9906 82.979 38.2893C82.6523 38.5786 82.4516 38.9846 82.377 39.5073H86.059Z" fill="white"/>
<path d="M77.8733 109.629C68.9416 109.629 61.7012 102.389 61.7012 93.4572V87.9619H94.0454V93.4572C94.0452 102.389 86.8047 109.629 77.8733 109.629Z" fill="#466089"/>
<path d="M106.755 119.823V151.752H48.9746V119.823C48.9746 115.366 52.0986 111.519 56.4608 110.604L71.5841 107.431H84.145L99.2683 110.604C103.631 111.519 106.755 115.366 106.755 119.823Z" fill="#FFB0AA"/>
<path d="M77.8762 115.666L71.5957 107.43V101.777H84.1566V107.43L77.8762 115.666Z" fill="#FCB98B"/>
<path d="M63.2695 71.5387V88.7461C63.2695 96.8106 69.8071 103.348 77.8714 103.348C85.9359 103.348 92.4733 96.8104 92.4733 88.7461V71.1851L63.2695 71.5387Z" fill="#FFD3B3"/>
<path d="M94.0407 87.9614C96.8157 87.9614 99.0651 85.7119 99.0651 82.937C99.0651 80.1621 96.8157 77.9126 94.0407 77.9126H92.4707V87.9612H94.0407V87.9614Z" fill="#FCB98B"/>
<path d="M61.7041 87.9619C58.9291 87.9619 56.6797 85.7124 56.6797 82.9375C56.6797 80.1625 58.9291 77.9131 61.7041 77.9131H63.2741V87.9617H61.7041V87.9619Z" fill="#FCB98B"/>
<path d="M91.623 125.957H94.3407V139.347H91.623V125.957Z" fill="#FF7B7B"/>
<path d="M77.8733 56.2451C68.9416 56.2451 61.7012 63.4856 61.7012 72.4172V77.9126H63.2712V87.9612L66.4113 79.4826C83.8803 79.4826 87.0679 72.7647 87.0679 72.7643C87.0679 72.7643 87.2974 72.9336 87.6167 73.1694C88.8651 74.0905 89.7371 75.4348 90.0683 76.9505L92.475 87.9612V77.9126H94.045V72.4172C94.0452 63.4856 86.8047 56.2451 77.8733 56.2451Z" fill="#6E83B7"/>
<path d="M84.1518 107.431L77.8714 115.667L71.5909 107.431L64.1934 108.983L77.8714 127.214L91.5493 108.983L84.1518 107.431Z" fill="#FF7B7B"/>
<path d="M61.5927 122.995L46.7058 119.872H34.0459L19.1591 122.995C14.5547 123.962 11.2578 128.022 11.2578 132.726V151.754H69.4937V132.726C69.4937 128.022 66.1968 123.962 61.5927 122.995Z" fill="#EDEFF1"/>
<path d="M46.6972 117.248L40.3672 123.578L34.0371 117.248V114.173H46.6972V117.248Z" fill="#FCB98B"/>
<path d="M24.0723 84.5812V90.12H25.6547V101.039C25.6547 109.167 32.2439 115.756 40.3719 115.756C48.5001 115.756 55.0891 109.167 55.0891 101.039V90.12H56.6716V84.5812L40.3719 75.6567L24.0723 84.5812Z" fill="#FFD3B3"/>
<path d="M56.6762 100.249C59.4729 100.249 61.7402 97.9813 61.7402 95.1846C61.7402 92.3879 59.4729 90.1206 56.6762 90.1206H55.0938V100.249H56.6762Z" fill="#FCB98B"/>
<path d="M24.0738 100.249C21.2771 100.249 19.0098 97.9813 19.0098 95.1846C19.0098 92.3879 21.2769 90.1206 24.0738 90.1206H25.6562V100.249H24.0738Z" fill="#FCB98B"/>
<path d="M45.4794 68.2822H38.2762C30.4316 68.2822 24.0723 74.6416 24.0723 82.4862V90.1207H25.6547V95.1847H27.8137L29.2376 88.8385C32.1042 88.8385 43.7022 87.8582 47.968 81.3705C47.968 81.3705 51.5064 82.856 51.5064 88.8385L52.9303 95.1847H55.0893V90.1207H56.6717V79.6831C56.6717 75.2315 53.5711 71.3812 49.222 70.4317C48.4455 69.1006 47.0205 68.2822 45.4794 68.2822Z" fill="#EDEFF1"/>
<path d="M40.3741 123.58L34.044 117.25L28.623 121.009L32.8818 131.072L40.3741 123.58Z" fill="#D3D3D3"/>
<path d="M40.377 123.58L46.707 117.25L52.128 121.009L47.8692 131.072L40.377 123.58Z" fill="#D3D3D3"/>
<path d="M40.372 134.604C41.2873 134.604 42.0292 133.862 42.0292 132.947C42.0292 132.032 41.2873 131.29 40.372 131.29C39.4568 131.29 38.7148 132.032 38.7148 132.947C38.7148 133.862 39.4568 134.604 40.372 134.604Z" fill="#D3D3D3"/>
<path d="M94.3591 133.349V139.348H77.0584C76.094 139.348 75.1643 138.989 74.45 138.341L69.492 133.844V137.387H62.8657C61.1502 137.387 59.7598 138.778 59.7598 140.493V148.646C59.7598 150.362 61.1502 151.752 62.8657 151.752H106.763V129.466L94.3591 133.349Z" fill="#FFD3B3"/>
</g>
<rect x="8.5" y="4.5" width="101.667" height="129" rx="5.5" stroke="black" stroke-opacity="0.1"/>
</g>
<defs>
<filter id="filter0_d_2498_1756" x="0" y="0" width="118.666" height="146" filterUnits="userSpaceOnUse" color-interpolation-filters="sRGB">
<feFlood flood-opacity="0" result="BackgroundImageFix"/>
<feColorMatrix in="SourceAlpha" type="matrix" values="0 0 0 0 0 0 0 0 0 0 0 0 0 0 0 0 0 0 127 0" result="hardAlpha"/>
<feOffset dy="4"/>
<feGaussianBlur stdDeviation="4"/>
<feComposite in2="hardAlpha" operator="out"/>
<feColorMatrix type="matrix" values="0 0 0 0 0 0 0 0 0 0 0 0 0 0 0 0 0 0 0.08 0"/>
<feBlend mode="normal" in2="BackgroundImageFix" result="effect1_dropShadow_2498_1756"/>
<feBlend mode="normal" in="SourceGraphic" in2="effect1_dropShadow_2498_1756" result="shape"/>
</filter>
<clipPath id="clip0_2498_1756">
<rect x="8" y="4" width="102.667" height="130" rx="6" fill="white"/>
</clipPath>
</defs>
</svg>
