<svg width="120" height="146" viewBox="0 0 120 146" fill="none" xmlns="http://www.w3.org/2000/svg">
<g filter="url(#filter0_d_2498_1778)">
<g clip-path="url(#clip0_2498_1778)">
<rect x="8.66602" y="4" width="102.667" height="130" rx="6" fill="#00AACC"/>
<path d="M19.166 13.3413V14.9233H15.092V17.4293H18.214V18.9833H15.092V23.1133H13.132V13.3413H19.166ZM21.5848 14.4333C21.2395 14.4333 20.9502 14.3259 20.7168 14.1113C20.4928 13.8873 20.3808 13.6119 20.3808 13.2853C20.3808 12.9586 20.4928 12.6879 20.7168 12.4733C20.9502 12.2493 21.2395 12.1373 21.5848 12.1373C21.9302 12.1373 22.2148 12.2493 22.4388 12.4733C22.6722 12.6879 22.7888 12.9586 22.7888 13.2853C22.7888 13.6119 22.6722 13.8873 22.4388 14.1113C22.2148 14.3259 21.9302 14.4333 21.5848 14.4333ZM22.5508 15.3573V23.1133H20.5908V15.3573H22.5508ZM28.8203 15.2453C29.7443 15.2453 30.491 15.5393 31.0603 16.1273C31.6297 16.7059 31.9143 17.5179 31.9143 18.5633V23.1133H29.9543V18.8293C29.9543 18.2133 29.8003 17.7419 29.4923 17.4153C29.1843 17.0793 28.7643 16.9113 28.2323 16.9113C27.691 16.9113 27.2617 17.0793 26.9443 17.4153C26.6363 17.7419 26.4823 18.2133 26.4823 18.8293V23.1133H24.5223V15.3573H26.4823V16.3233C26.7437 15.9873 27.075 15.7259 27.4763 15.5393C27.887 15.3433 28.335 15.2453 28.8203 15.2453ZM33.3092 19.2073C33.3092 18.4233 33.4632 17.7279 33.7712 17.1213C34.0885 16.5146 34.5179 16.0479 35.0592 15.7213C35.6005 15.3946 36.2025 15.2313 36.8652 15.2313C37.3692 15.2313 37.8499 15.3433 38.3072 15.5673C38.7645 15.7819 39.1285 16.0713 39.3992 16.4353V12.7533H41.3872V23.1133H39.3992V21.9653C39.1565 22.3479 38.8159 22.6559 38.3772 22.8893C37.9385 23.1226 37.4299 23.2393 36.8512 23.2393C36.1979 23.2393 35.6005 23.0713 35.0592 22.7353C34.5179 22.3993 34.0885 21.9279 33.7712 21.3213C33.4632 20.7053 33.3092 20.0006 33.3092 19.2073ZM39.4132 19.2353C39.4132 18.7593 39.3199 18.3533 39.1332 18.0173C38.9465 17.6719 38.6945 17.4106 38.3772 17.2333C38.0599 17.0466 37.7192 16.9533 37.3552 16.9533C36.9912 16.9533 36.6552 17.0419 36.3472 17.2193C36.0392 17.3966 35.7872 17.6579 35.5912 18.0033C35.4045 18.3393 35.3112 18.7406 35.3112 19.2073C35.3112 19.6739 35.4045 20.0846 35.5912 20.4393C35.7872 20.7846 36.0392 21.0506 36.3472 21.2373C36.6645 21.4239 37.0005 21.5173 37.3552 21.5173C37.7192 21.5173 38.0599 21.4286 38.3772 21.2513C38.6945 21.0646 38.9465 20.8033 39.1332 20.4673C39.3199 20.1219 39.4132 19.7113 39.4132 19.2353ZM21.238 34.3413V44.1133H19.278V39.9553H15.092V44.1133H13.132V34.3413H15.092V38.3593H19.278V34.3413H21.238ZM26.6462 44.2393C25.8995 44.2393 25.2275 44.0759 24.6302 43.7493C24.0328 43.4133 23.5615 42.9419 23.2162 42.3353C22.8802 41.7286 22.7122 41.0286 22.7122 40.2353C22.7122 39.4419 22.8848 38.7419 23.2302 38.1353C23.5848 37.5286 24.0655 37.0619 24.6722 36.7353C25.2788 36.3993 25.9555 36.2313 26.7022 36.2313C27.4488 36.2313 28.1255 36.3993 28.7322 36.7353C29.3388 37.0619 29.8148 37.5286 30.1602 38.1353C30.5148 38.7419 30.6922 39.4419 30.6922 40.2353C30.6922 41.0286 30.5102 41.7286 30.1462 42.3353C29.7915 42.9419 29.3062 43.4133 28.6902 43.7493C28.0835 44.0759 27.4022 44.2393 26.6462 44.2393ZM26.6462 42.5313C27.0008 42.5313 27.3322 42.4473 27.6402 42.2793C27.9575 42.1019 28.2095 41.8406 28.3962 41.4953C28.5828 41.1499 28.6762 40.7299 28.6762 40.2353C28.6762 39.4979 28.4802 38.9333 28.0882 38.5413C27.7055 38.1399 27.2342 37.9393 26.6742 37.9393C26.1142 37.9393 25.6428 38.1399 25.2602 38.5413C24.8868 38.9333 24.7002 39.4979 24.7002 40.2353C24.7002 40.9726 24.8822 41.5419 25.2462 41.9433C25.6195 42.3353 26.0862 42.5313 26.6462 42.5313ZM35.1329 44.2393C34.4982 44.2393 33.9289 44.1273 33.4249 43.9033C32.9209 43.6699 32.5196 43.3573 32.2209 42.9653C31.9316 42.5733 31.7729 42.1393 31.7449 41.6633H33.7189C33.7562 41.9619 33.9009 42.2093 34.1529 42.4053C34.4142 42.6013 34.7362 42.6993 35.1189 42.6993C35.4922 42.6993 35.7816 42.6246 35.9869 42.4753C36.2016 42.3259 36.3089 42.1346 36.3089 41.9013C36.3089 41.6493 36.1782 41.4626 35.9169 41.3413C35.6649 41.2106 35.2589 41.0706 34.6989 40.9213C34.1202 40.7813 33.6442 40.6366 33.2709 40.4873C32.9069 40.3379 32.5896 40.1093 32.3189 39.8013C32.0576 39.4933 31.9269 39.0779 31.9269 38.5553C31.9269 38.1259 32.0482 37.7339 32.2909 37.3793C32.5429 37.0246 32.8976 36.7446 33.3549 36.5393C33.8216 36.3339 34.3676 36.2313 34.9929 36.2313C35.9169 36.2313 36.6542 36.4646 37.2049 36.9313C37.7556 37.3886 38.0589 38.0093 38.1149 38.7933H36.2389C36.2109 38.4853 36.0802 38.2426 35.8469 38.0653C35.6229 37.8786 35.3196 37.7853 34.9369 37.7853C34.5822 37.7853 34.3069 37.8506 34.1109 37.9813C33.9242 38.1119 33.8309 38.2939 33.8309 38.5273C33.8309 38.7886 33.9616 38.9893 34.2229 39.1293C34.4842 39.2599 34.8902 39.3953 35.4409 39.5353C36.0009 39.6753 36.4629 39.8199 36.8269 39.9693C37.1909 40.1186 37.5036 40.3519 37.7649 40.6693C38.0356 40.9773 38.1756 41.3879 38.1849 41.9013C38.1849 42.3493 38.0589 42.7506 37.8069 43.1053C37.5642 43.4599 37.2096 43.7399 36.7429 43.9453C36.2856 44.1413 35.7489 44.2393 35.1329 44.2393ZM41.7888 37.4773C42.0408 37.1226 42.3861 36.8286 42.8248 36.5953C43.2728 36.3526 43.7815 36.2313 44.3508 36.2313C45.0135 36.2313 45.6108 36.3946 46.1428 36.7213C46.6841 37.0479 47.1088 37.5146 47.4168 38.1213C47.7341 38.7186 47.8928 39.4139 47.8928 40.2073C47.8928 41.0006 47.7341 41.7053 47.4168 42.3213C47.1088 42.9279 46.6841 43.3993 46.1428 43.7353C45.6108 44.0713 45.0135 44.2393 44.3508 44.2393C43.7815 44.2393 43.2775 44.1226 42.8388 43.8893C42.4095 43.6559 42.0595 43.3619 41.7888 43.0073V47.8093H39.8288V36.3573H41.7888V37.4773ZM45.8908 40.2073C45.8908 39.7406 45.7928 39.3393 45.5968 39.0033C45.4101 38.6579 45.1581 38.3966 44.8408 38.2193C44.5328 38.0419 44.1968 37.9533 43.8328 37.9533C43.4781 37.9533 43.1421 38.0466 42.8248 38.2333C42.5168 38.4106 42.2648 38.6719 42.0688 39.0173C41.8821 39.3626 41.7888 39.7686 41.7888 40.2353C41.7888 40.7019 41.8821 41.1079 42.0688 41.4533C42.2648 41.7986 42.5168 42.0646 42.8248 42.2513C43.1421 42.4286 43.4781 42.5173 43.8328 42.5173C44.1968 42.5173 44.5328 42.4239 44.8408 42.2373C45.1581 42.0506 45.4101 41.7846 45.5968 41.4393C45.7928 41.0939 45.8908 40.6833 45.8908 40.2073ZM50.3461 35.4333C50.0008 35.4333 49.7114 35.3259 49.4781 35.1113C49.2541 34.8873 49.1421 34.6119 49.1421 34.2853C49.1421 33.9586 49.2541 33.6879 49.4781 33.4733C49.7114 33.2493 50.0008 33.1373 50.3461 33.1373C50.6914 33.1373 50.9761 33.2493 51.2001 33.4733C51.4334 33.6879 51.5501 33.9586 51.5501 34.2853C51.5501 34.6119 51.4334 34.8873 51.2001 35.1113C50.9761 35.3259 50.6914 35.4333 50.3461 35.4333ZM51.3121 36.3573V44.1133H49.3521V36.3573H51.3121ZM55.5656 37.9673V41.7193C55.5656 41.9806 55.6262 42.1719 55.7476 42.2933C55.8782 42.4053 56.0929 42.4613 56.3916 42.4613H57.3016V44.1133H56.0696C54.4176 44.1133 53.5916 43.3106 53.5916 41.7053V37.9673H52.6676V36.3573H53.5916V34.4393H55.5656V36.3573H57.3016V37.9673H55.5656ZM58.2423 40.2073C58.2423 39.4233 58.3963 38.7279 58.7043 38.1213C59.0216 37.5146 59.4463 37.0479 59.9783 36.7213C60.5196 36.3946 61.1216 36.2313 61.7843 36.2313C62.363 36.2313 62.867 36.3479 63.2963 36.5813C63.735 36.8146 64.085 37.1086 64.3463 37.4633V36.3573H66.3203V44.1133H64.3463V42.9793C64.0943 43.3433 63.7443 43.6466 63.2963 43.8893C62.8576 44.1226 62.349 44.2393 61.7703 44.2393C61.117 44.2393 60.5196 44.0713 59.9783 43.7353C59.4463 43.3993 59.0216 42.9279 58.7043 42.3213C58.3963 41.7053 58.2423 41.0006 58.2423 40.2073ZM64.3463 40.2353C64.3463 39.7593 64.253 39.3533 64.0663 39.0173C63.8796 38.6719 63.6276 38.4106 63.3103 38.2333C62.993 38.0466 62.6523 37.9533 62.2883 37.9533C61.9243 37.9533 61.5883 38.0419 61.2803 38.2193C60.9723 38.3966 60.7203 38.6579 60.5243 39.0033C60.3376 39.3393 60.2443 39.7406 60.2443 40.2073C60.2443 40.6739 60.3376 41.0846 60.5243 41.4393C60.7203 41.7846 60.9723 42.0506 61.2803 42.2373C61.5976 42.4239 61.9336 42.5173 62.2883 42.5173C62.6523 42.5173 62.993 42.4286 63.3103 42.2513C63.6276 42.0646 63.8796 41.8033 64.0663 41.4673C64.253 41.1219 64.3463 40.7113 64.3463 40.2353ZM70.2296 33.7533V44.1133H68.2696V33.7533H70.2296ZM75.1691 44.2393C74.5344 44.2393 73.9651 44.1273 73.4611 43.9033C72.9571 43.6699 72.5557 43.3573 72.2571 42.9653C71.9677 42.5733 71.8091 42.1393 71.7811 41.6633H73.7551C73.7924 41.9619 73.9371 42.2093 74.1891 42.4053C74.4504 42.6013 74.7724 42.6993 75.1551 42.6993C75.5284 42.6993 75.8177 42.6246 76.0231 42.4753C76.2377 42.3259 76.3451 42.1346 76.3451 41.9013C76.3451 41.6493 76.2144 41.4626 75.9531 41.3413C75.7011 41.2106 75.2951 41.0706 74.7351 40.9213C74.1564 40.7813 73.6804 40.6366 73.3071 40.4873C72.9431 40.3379 72.6257 40.1093 72.3551 39.8013C72.0937 39.4933 71.9631 39.0779 71.9631 38.5553C71.9631 38.1259 72.0844 37.7339 72.3271 37.3793C72.5791 37.0246 72.9337 36.7446 73.3911 36.5393C73.8577 36.3339 74.4037 36.2313 75.0291 36.2313C75.9531 36.2313 76.6904 36.4646 77.2411 36.9313C77.7917 37.3886 78.0951 38.0093 78.1511 38.7933H76.2751C76.2471 38.4853 76.1164 38.2426 75.8831 38.0653C75.6591 37.8786 75.3557 37.7853 74.9731 37.7853C74.6184 37.7853 74.3431 37.8506 74.1471 37.9813C73.9604 38.1119 73.8671 38.2939 73.8671 38.5273C73.8671 38.7886 73.9977 38.9893 74.2591 39.1293C74.5204 39.2599 74.9264 39.3953 75.4771 39.5353C76.0371 39.6753 76.4991 39.8199 76.8631 39.9693C77.2271 40.1186 77.5397 40.3519 77.8011 40.6693C78.0717 40.9773 78.2117 41.3879 78.2211 41.9013C78.2211 42.3493 78.0951 42.7506 77.8431 43.1053C77.6004 43.4599 77.2457 43.7399 76.7791 43.9453C76.3217 44.1413 75.7851 44.2393 75.1691 44.2393Z" fill="white"/>
<path d="M59.9531 104.287H111.7V148.813H59.9531V104.287Z" fill="#B2D7F3"/>
<path d="M8.20703 104.287H59.9539V148.813H8.20703V104.287Z" fill="#D6E9F8"/>
<path d="M92.1914 110.405H97.4756V115.689H92.1914V110.405Z" fill="#613393"/>
<path d="M92.1914 120.25H97.4756V125.534H92.1914V120.25Z" fill="#613393"/>
<path d="M102.076 110.405H107.36V115.689H102.076V110.405Z" fill="#613393"/>
<path d="M102.076 120.25H107.36V125.534H102.076V120.25Z" fill="#613393"/>
<path d="M92.1914 130.096H97.4756V135.38H92.1914V130.096Z" fill="#613393"/>
<path d="M102.076 130.094H107.36V135.378H102.076V130.094Z" fill="#613393"/>
<path d="M12.6035 110.405H17.8877V115.689H12.6035V110.405Z" fill="#7A3EB4"/>
<path d="M12.6035 120.25H17.8877V125.534H12.6035V120.25Z" fill="#7A3EB4"/>
<path d="M22.4883 110.405H27.7725V115.689H22.4883V110.405Z" fill="#7A3EB4"/>
<path d="M22.4883 120.25H27.7725V125.534H22.4883V120.25Z" fill="#7A3EB4"/>
<path d="M12.6035 130.095H17.8877V135.379H12.6035V130.095Z" fill="#7A3EB4"/>
<path d="M22.4883 130.096H27.7725V135.38H22.4883V130.096Z" fill="#7A3EB4"/>
<path d="M88.8242 102.021H113.214V106.554H88.8242V102.021Z" fill="#613393"/>
<path d="M6.69141 102.021H31.0811V106.554H6.69141V102.021Z" fill="#7A3EB4"/>
<path d="M88.8232 151.656H47.3936L59.952 148.813L72.5116 151.656H31.082V83.1362H88.8232V151.656Z" fill="#EEF4FF"/>
<path d="M88.8237 151.654H72.5121L59.9531 148.812V83.1348H88.8237V151.654Z" fill="#D6E9F8"/>
<path d="M47.3945 129.951H72.5122V151.655H47.3945V129.951Z" fill="#613393"/>
<path d="M28.4785 81.3145H91.4219V85.8471H28.4785V81.3145Z" fill="#7A3EB4"/>
<path d="M47.3945 129.951H59.9535V151.655H47.3945V129.951Z" fill="#7A3EB4"/>
<path d="M78.0039 120.25H83.2881V125.534H78.0039V120.25Z" fill="#613393"/>
<path d="M78.0039 130.095H83.2881V135.379H78.0039V130.095Z" fill="#613393"/>
<path d="M36.2812 120.25H41.5654V125.534H36.2812V120.25Z" fill="#7A3EB4"/>
<path d="M36.2812 130.095H41.5654V135.379H36.2812V130.095Z" fill="#7A3EB4"/>
<path d="M47.3945 99.0024H72.5122V104.287H47.3945V99.0024Z" fill="#EDBE00"/>
<path d="M59.9531 99.0024H72.5127V104.287H59.9531V99.0024Z" fill="#FF9E22"/>
<path d="M59.9531 81.3145H91.4254V85.8471H59.9531V81.3145Z" fill="#613393"/>
<path d="M59.9512 96.425C67.0446 96.425 72.795 90.6747 72.795 83.5813C72.795 76.4879 67.0446 70.7375 59.9512 70.7375C52.8578 70.7375 47.1074 76.4879 47.1074 83.5813C47.1074 90.6747 52.8578 96.425 59.9512 96.425Z" fill="#EEF4FF"/>
<path d="M72.7969 83.5813C72.7969 76.4879 67.0465 70.7375 59.9531 70.7375V96.425C67.0465 96.425 72.7969 90.6747 72.7969 83.5813Z" fill="#D6E9F8"/>
<path d="M67.6031 81.5072H62.0228V75.9265H57.8756V81.5072H52.2949V85.6543H57.8756V91.235H62.0228V85.6543H67.6031V81.5072Z" fill="#FF6379"/>
<path d="M62.0248 75.9268H59.9512V91.2352H62.0248V85.6546H67.6051V81.5074H62.0248V75.9268Z" fill="#FF1F3E"/>
<path d="M47.2539 120.25H52.5381V125.534H47.2539V120.25Z" fill="#7A3EB4"/>
<path d="M57.1387 120.25H62.4229V125.534H57.1387V120.25Z" fill="#7A3EB4"/>
<path d="M67.5703 120.25H72.8545V125.534H67.5703V120.25Z" fill="#613393"/>
<path d="M78.0039 110.405H83.2881V115.689H78.0039V110.405Z" fill="#613393"/>
<path d="M36.2812 110.405H41.5654V115.689H36.2812V110.405Z" fill="#7A3EB4"/>
<path d="M47.2539 110.405H52.5381V115.689H47.2539V110.405Z" fill="#7A3EB4"/>
<path d="M57.1387 110.405H62.4229V115.689H57.1387V110.405Z" fill="#7A3EB4"/>
<path d="M67.5703 110.405H72.8545V115.689H67.5703V110.405Z" fill="#613393"/>
<path d="M59.7812 120.25H62.4233V125.534H59.7812V120.25Z" fill="#613393"/>
<path d="M59.7812 110.405H62.4233V115.689H59.7812V110.405Z" fill="#613393"/>
</g>
<rect x="9.16602" y="4.5" width="101.667" height="129" rx="5.5" stroke="black" stroke-opacity="0.1"/>
</g>
<defs>
<filter id="filter0_d_2498_1778" x="0.666016" y="0" width="118.666" height="146" filterUnits="userSpaceOnUse" color-interpolation-filters="sRGB">
<feFlood flood-opacity="0" result="BackgroundImageFix"/>
<feColorMatrix in="SourceAlpha" type="matrix" values="0 0 0 0 0 0 0 0 0 0 0 0 0 0 0 0 0 0 127 0" result="hardAlpha"/>
<feOffset dy="4"/>
<feGaussianBlur stdDeviation="4"/>
<feComposite in2="hardAlpha" operator="out"/>
<feColorMatrix type="matrix" values="0 0 0 0 0 0 0 0 0 0 0 0 0 0 0 0 0 0 0.08 0"/>
<feBlend mode="normal" in2="BackgroundImageFix" result="effect1_dropShadow_2498_1778"/>
<feBlend mode="normal" in="SourceGraphic" in2="effect1_dropShadow_2498_1778" result="shape"/>
</filter>
<clipPath id="clip0_2498_1778">
<rect x="8.66602" y="4" width="102.667" height="130" rx="6" fill="white"/>
</clipPath>
</defs>
</svg>
