<svg width="119" height="146" viewBox="0 0 119 146" fill="none" xmlns="http://www.w3.org/2000/svg">
<g filter="url(#filter0_d_2498_1783)">
<g clip-path="url(#clip0_2498_1783)">
<rect x="8.33398" y="4" width="102.667" height="130" rx="6" fill="#FA7256"/>
<path d="M19.604 16.2813C19.38 15.8706 19.072 15.5579 18.68 15.3433C18.288 15.1286 17.8307 15.0213 17.308 15.0213C16.7293 15.0213 16.216 15.1519 15.768 15.4133C15.32 15.6746 14.97 16.0479 14.718 16.5333C14.466 17.0186 14.34 17.5786 14.34 18.2133C14.34 18.8666 14.466 19.4359 14.718 19.9213C14.9793 20.4066 15.3387 20.7799 15.796 21.0413C16.2533 21.3026 16.7853 21.4333 17.392 21.4333C18.1387 21.4333 18.75 21.2373 19.226 20.8453C19.702 20.4439 20.0147 19.8886 20.164 19.1793H16.804V17.6813H22.096V19.3893C21.9653 20.0706 21.6853 20.7006 21.256 21.2793C20.8267 21.8579 20.2713 22.3246 19.59 22.6793C18.918 23.0246 18.162 23.1973 17.322 23.1973C16.3793 23.1973 15.5253 22.9873 14.76 22.5673C14.004 22.1379 13.4067 21.5453 12.968 20.7893C12.5387 20.0333 12.324 19.1746 12.324 18.2133C12.324 17.2519 12.5387 16.3933 12.968 15.6373C13.4067 14.8719 14.004 14.2793 14.76 13.8593C15.5253 13.4299 16.3747 13.2153 17.308 13.2153C18.4093 13.2153 19.366 13.4859 20.178 14.0273C20.99 14.5593 21.55 15.3106 21.858 16.2813H19.604ZM30.7911 19.0673C30.7911 19.3473 30.7724 19.5993 30.7351 19.8233H25.0651C25.1117 20.3833 25.3077 20.8219 25.6531 21.1393C25.9984 21.4566 26.4231 21.6153 26.9271 21.6153C27.6551 21.6153 28.1731 21.3026 28.4811 20.6773H30.5951C30.3711 21.4239 29.9417 22.0399 29.3071 22.5253C28.6724 23.0013 27.8931 23.2393 26.9691 23.2393C26.2224 23.2393 25.5504 23.0759 24.9531 22.7493C24.3651 22.4133 23.9031 21.9419 23.5671 21.3353C23.2404 20.7286 23.0771 20.0286 23.0771 19.2353C23.0771 18.4326 23.2404 17.7279 23.5671 17.1213C23.8937 16.5146 24.3511 16.0479 24.9391 15.7213C25.5271 15.3946 26.2037 15.2313 26.9691 15.2313C27.7064 15.2313 28.3644 15.3899 28.9431 15.7073C29.5311 16.0246 29.9837 16.4773 30.3011 17.0653C30.6277 17.6439 30.7911 18.3113 30.7911 19.0673ZM28.7611 18.5073C28.7517 18.0033 28.5697 17.6019 28.2151 17.3033C27.8604 16.9953 27.4264 16.8413 26.9131 16.8413C26.4277 16.8413 26.0171 16.9906 25.6811 17.2893C25.3544 17.5786 25.1537 17.9846 25.0791 18.5073H28.7611ZM34.5387 16.9673V20.7193C34.5387 20.9806 34.5994 21.1719 34.7207 21.2933C34.8514 21.4053 35.066 21.4613 35.3647 21.4613H36.2747V23.1133H35.0427C33.3907 23.1133 32.5647 22.3106 32.5647 20.7053V16.9673H31.6407V15.3573H32.5647V13.4393H34.5387V15.3573H36.2747V16.9673H34.5387ZM40.5864 19.2073C40.5864 18.4233 40.7404 17.7279 41.0484 17.1213C41.3657 16.5146 41.7904 16.0479 42.3224 15.7213C42.8637 15.3946 43.4657 15.2313 44.1284 15.2313C44.707 15.2313 45.211 15.3479 45.6404 15.5813C46.079 15.8146 46.429 16.1086 46.6904 16.4633V15.3573H48.6644V23.1133H46.6904V21.9793C46.4384 22.3433 46.0884 22.6466 45.6404 22.8893C45.2017 23.1226 44.693 23.2393 44.1144 23.2393C43.461 23.2393 42.8637 23.0713 42.3224 22.7353C41.7904 22.3993 41.3657 21.9279 41.0484 21.3213C40.7404 20.7053 40.5864 20.0006 40.5864 19.2073ZM46.6904 19.2353C46.6904 18.7593 46.597 18.3533 46.4104 18.0173C46.2237 17.6719 45.9717 17.4106 45.6544 17.2333C45.337 17.0466 44.9964 16.9533 44.6324 16.9533C44.2684 16.9533 43.9324 17.0419 43.6244 17.2193C43.3164 17.3966 43.0644 17.6579 42.8684 18.0033C42.6817 18.3393 42.5884 18.7406 42.5884 19.2073C42.5884 19.6739 42.6817 20.0846 42.8684 20.4393C43.0644 20.7846 43.3164 21.0506 43.6244 21.2373C43.9417 21.4239 44.2777 21.5173 44.6324 21.5173C44.9964 21.5173 45.337 21.4286 45.6544 21.2513C45.9717 21.0646 46.2237 20.8033 46.4104 20.4673C46.597 20.1219 46.6904 19.7113 46.6904 19.2353ZM55.9446 21.5593H59.1646V23.1133H53.9846V13.3413H55.9446V21.5593ZM59.9414 19.2073C59.9414 18.4233 60.0954 17.7279 60.4034 17.1213C60.7207 16.5146 61.1454 16.0479 61.6774 15.7213C62.2187 15.3946 62.8207 15.2313 63.4834 15.2313C64.062 15.2313 64.566 15.3479 64.9954 15.5813C65.434 15.8146 65.784 16.1086 66.0454 16.4633V15.3573H68.0194V23.1133H66.0454V21.9793C65.7934 22.3433 65.4434 22.6466 64.9954 22.8893C64.5567 23.1226 64.048 23.2393 63.4694 23.2393C62.816 23.2393 62.2187 23.0713 61.6774 22.7353C61.1454 22.3993 60.7207 21.9279 60.4034 21.3213C60.0954 20.7053 59.9414 20.0006 59.9414 19.2073ZM66.0454 19.2353C66.0454 18.7593 65.952 18.3533 65.7654 18.0173C65.5787 17.6719 65.3267 17.4106 65.0094 17.2333C64.692 17.0466 64.3514 16.9533 63.9874 16.9533C63.6234 16.9533 63.2874 17.0419 62.9794 17.2193C62.6714 17.3966 62.4194 17.6579 62.2234 18.0033C62.0367 18.3393 61.9434 18.7406 61.9434 19.2073C61.9434 19.6739 62.0367 20.0846 62.2234 20.4393C62.4194 20.7846 62.6714 21.0506 62.9794 21.2373C63.2967 21.4239 63.6327 21.5173 63.9874 21.5173C64.3514 21.5173 64.692 21.4286 65.0094 21.2513C65.3267 21.0646 65.5787 20.8033 65.7654 20.4673C65.952 20.1219 66.0454 19.7113 66.0454 19.2353ZM71.9287 16.4913C72.1807 16.1179 72.526 15.8146 72.9647 15.5813C73.4127 15.3479 73.9213 15.2313 74.4907 15.2313C75.1533 15.2313 75.7507 15.3946 76.2827 15.7213C76.824 16.0479 77.2487 16.5146 77.5567 17.1213C77.874 17.7186 78.0327 18.4139 78.0327 19.2073C78.0327 20.0006 77.874 20.7053 77.5567 21.3213C77.2487 21.9279 76.824 22.3993 76.2827 22.7353C75.7507 23.0713 75.1533 23.2393 74.4907 23.2393C73.912 23.2393 73.4033 23.1273 72.9647 22.9033C72.5353 22.6699 72.19 22.3713 71.9287 22.0073V23.1133H69.9687V12.7533H71.9287V16.4913ZM76.0307 19.2073C76.0307 18.7406 75.9327 18.3393 75.7367 18.0033C75.55 17.6579 75.298 17.3966 74.9807 17.2193C74.6727 17.0419 74.3367 16.9533 73.9727 16.9533C73.618 16.9533 73.282 17.0466 72.9647 17.2333C72.6567 17.4106 72.4047 17.6719 72.2087 18.0173C72.022 18.3626 71.9287 18.7686 71.9287 19.2353C71.9287 19.7019 72.022 20.1079 72.2087 20.4533C72.4047 20.7986 72.6567 21.0646 72.9647 21.2513C73.282 21.4286 73.618 21.5173 73.9727 21.5173C74.3367 21.5173 74.6727 21.4239 74.9807 21.2373C75.298 21.0506 75.55 20.7846 75.7367 20.4393C75.9327 20.0939 76.0307 19.6833 76.0307 19.2073ZM19.45 34.3413V35.9233H16.846V44.1133H14.886V35.9233H12.282V34.3413H19.45ZM28.1251 40.0673C28.1251 40.3473 28.1064 40.5993 28.0691 40.8233H22.3991C22.4457 41.3833 22.6417 41.8219 22.9871 42.1393C23.3324 42.4566 23.7571 42.6153 24.2611 42.6153C24.9891 42.6153 25.5071 42.3026 25.8151 41.6773H27.9291C27.7051 42.4239 27.2757 43.0399 26.6411 43.5253C26.0064 44.0013 25.2271 44.2393 24.3031 44.2393C23.5564 44.2393 22.8844 44.0759 22.2871 43.7493C21.6991 43.4133 21.2371 42.9419 20.9011 42.3353C20.5744 41.7286 20.4111 41.0286 20.4111 40.2353C20.4111 39.4326 20.5744 38.7279 20.9011 38.1213C21.2277 37.5146 21.6851 37.0479 22.2731 36.7213C22.8611 36.3946 23.5377 36.2313 24.3031 36.2313C25.0404 36.2313 25.6984 36.3899 26.2771 36.7073C26.8651 37.0246 27.3177 37.4773 27.6351 38.0653C27.9617 38.6439 28.1251 39.3113 28.1251 40.0673ZM26.0951 39.5073C26.0857 39.0033 25.9037 38.6019 25.5491 38.3033C25.1944 37.9953 24.7604 37.8413 24.2471 37.8413C23.7617 37.8413 23.3511 37.9906 23.0151 38.2893C22.6884 38.5786 22.4877 38.9846 22.4131 39.5073H26.0951ZM32.5587 44.2393C31.924 44.2393 31.3547 44.1273 30.8507 43.9033C30.3467 43.6699 29.9454 43.3573 29.6467 42.9653C29.3574 42.5733 29.1987 42.1393 29.1707 41.6633H31.1447C31.182 41.9619 31.3267 42.2093 31.5787 42.4053C31.84 42.6013 32.162 42.6993 32.5447 42.6993C32.918 42.6993 33.2074 42.6246 33.4127 42.4753C33.6274 42.3259 33.7347 42.1346 33.7347 41.9013C33.7347 41.6493 33.604 41.4626 33.3427 41.3413C33.0907 41.2106 32.6847 41.0706 32.1247 40.9213C31.546 40.7813 31.07 40.6366 30.6967 40.4873C30.3327 40.3379 30.0154 40.1093 29.7447 39.8013C29.4834 39.4933 29.3527 39.0779 29.3527 38.5553C29.3527 38.1259 29.474 37.7339 29.7167 37.3793C29.9687 37.0246 30.3234 36.7446 30.7807 36.5393C31.2474 36.3339 31.7934 36.2313 32.4187 36.2313C33.3427 36.2313 34.08 36.4646 34.6307 36.9313C35.1814 37.3886 35.4847 38.0093 35.5407 38.7933H33.6647C33.6367 38.4853 33.506 38.2426 33.2727 38.0653C33.0487 37.8786 32.7454 37.7853 32.3627 37.7853C32.008 37.7853 31.7327 37.8506 31.5367 37.9813C31.35 38.1119 31.2567 38.2939 31.2567 38.5273C31.2567 38.7886 31.3874 38.9893 31.6487 39.1293C31.91 39.2599 32.316 39.3953 32.8667 39.5353C33.4267 39.6753 33.8887 39.8199 34.2527 39.9693C34.6167 40.1186 34.9294 40.3519 35.1907 40.6693C35.4614 40.9773 35.6014 41.3879 35.6107 41.9013C35.6107 42.3493 35.4847 42.7506 35.2327 43.1053C34.99 43.4599 34.6354 43.7399 34.1687 43.9453C33.7114 44.1413 33.1747 44.2393 32.5587 44.2393ZM39.5366 37.9673V41.7193C39.5366 41.9806 39.5973 42.1719 39.7186 42.2933C39.8493 42.4053 40.0639 42.4613 40.3626 42.4613H41.2726V44.1133H40.0406C38.3886 44.1133 37.5626 43.3106 37.5626 41.7053V37.9673H36.6386V36.3573H37.5626V34.4393H39.5366V36.3573H41.2726V37.9673H39.5366Z" fill="white"/>
<g clip-path="url(#clip1_2498_1783)">
<path d="M58.5267 112.788V143.755C58.5267 145.728 56.9269 147.328 54.9536 147.328H23.1096C21.1442 145.835 19.2721 144.226 17.5037 142.511C16.6302 141.664 17.2345 140.182 18.4515 140.182H50.1895C50.8472 140.182 51.3806 139.648 51.3806 138.991V117.552C51.3806 116.895 50.8472 116.361 50.1895 116.361H3.94562C2.51663 116.361 1.26297 115.398 0.906137 114.014C0.499285 112.438 0.154127 110.838 -0.126953 109.215H54.9536C56.9269 109.215 58.5267 110.815 58.5267 112.788Z" fill="#FDBCBC"/>
<path d="M53.7564 115.171V141.373C53.7564 142.031 53.223 142.564 52.5654 142.564H17.552C9.59959 134.87 3.73502 125.031 0.890625 113.979H52.5654C53.223 113.979 53.7564 114.513 53.7564 115.171Z" fill="#FFF5F5"/>
<path d="M39.466 122.317C39.466 119.422 41.8123 117.076 44.7065 117.076C47.6007 117.076 49.947 119.422 49.947 122.317C49.947 125.211 47.6007 127.557 44.7065 127.557C41.8123 127.557 39.466 125.211 39.466 122.317ZM44.7065 129.701C41.8123 129.701 39.466 132.047 39.466 134.941C39.466 137.836 41.8123 140.182 44.7065 140.182C47.6007 140.182 49.947 137.836 49.947 134.941C49.947 132.047 47.6007 129.701 44.7065 129.701ZM30.8907 117.076C27.9965 117.076 25.6502 119.422 25.6502 122.317C25.6502 125.211 27.9965 127.557 30.8907 127.557C33.7849 127.557 36.1312 125.211 36.1312 122.317C36.1312 119.422 33.7849 117.076 30.8907 117.076ZM30.8907 129.701C27.9965 129.701 25.6502 132.047 25.6502 134.941C25.6502 137.836 27.9965 140.182 30.8907 140.182C33.7849 140.182 36.1312 137.836 36.1312 134.941C36.1312 132.047 33.7849 129.701 30.8907 129.701ZM17.0749 117.076C14.1807 117.076 11.8344 119.422 11.8344 122.317C11.8344 125.211 14.1807 127.557 17.0749 127.557C19.9691 127.557 22.3154 125.211 22.3154 122.317C22.3154 119.422 19.9691 117.076 17.0749 117.076ZM17.0749 129.701C14.1807 129.701 11.8344 132.047 11.8344 134.941C11.8344 135.484 11.9168 136.008 12.0702 136.5C12.9139 137.568 13.7924 138.608 14.7045 139.616C15.4163 139.978 16.2216 140.182 17.0749 140.182C19.9691 140.182 22.3154 137.836 22.3154 134.941C22.3154 132.047 19.9691 129.701 17.0749 129.701ZM3.25906 117.076C2.76717 117.076 2.29124 117.144 1.83984 117.271C2.90319 120.607 4.24594 123.819 5.84048 126.878C7.4281 125.978 8.49955 124.272 8.49955 122.317C8.49955 119.422 6.15324 117.076 3.25906 117.076Z" fill="#FDBCBC"/>
<path d="M60.9032 97.3043C60.9032 98.291 60.1033 99.0909 59.1166 99.0909H57.9256V100.282C57.9256 101.269 57.1257 102.068 56.1391 102.068C55.1524 102.068 54.3525 101.269 54.3525 100.282V99.0909H53.1615C52.1749 99.0909 51.375 98.291 51.375 97.3043C51.375 96.3177 52.1749 95.5178 53.1615 95.5178H54.3525V94.3268C54.3525 93.3402 55.1524 92.5403 56.1391 92.5403C57.1257 92.5403 57.9256 93.3402 57.9256 94.3268V95.5178H59.1166C60.1033 95.5178 60.9032 96.3177 60.9032 97.3043Z" fill="#A6E0EC"/>
<path d="M35.1176 67.173C34.2186 63.338 36.5989 59.5005 40.4338 58.6015L77.2999 49.9607L80.5549 63.8484L43.6888 72.4892C39.854 73.3882 36.0165 71.0081 35.1176 67.173Z" fill="#A6E0EC"/>
<path d="M34.9326 65.801C34.8092 62.4614 37.0576 59.3928 40.4337 58.6015L77.2997 49.9607L80.5548 63.8484L78.5696 64.3139L76.6275 56.0284L34.9326 65.801Z" fill="#7CD2E3"/>
<path d="M-0.839475 75.6015C-1.73846 71.7664 0.641914 67.929 4.47676 67.03L43.6801 57.8413L46.9351 71.729L7.73181 80.9177C3.89697 81.8167 0.0592673 79.4366 -0.839475 75.6015Z" fill="#9BCF1B"/>
<path d="M10.7849 71.4613L44.9938 63.4434L46.9359 71.7288L12.727 79.7467C10.439 80.2829 8.1494 78.863 7.61321 76.575C7.07701 74.2868 8.49694 71.9975 10.7849 71.4613Z" fill="#B9E746"/>
<path d="M65.7523 126.878C64.2004 126.878 63.2943 125.127 64.1904 123.86L68.4085 117.895C74.0966 109.851 77.1509 100.241 77.1509 90.3895V75.1614H91.415V90.2968C91.415 100.149 94.4692 109.758 100.157 117.802L104.369 123.758C105.295 125.068 104.358 126.878 102.754 126.878H65.7523Z" fill="#A6E0EC"/>
<path d="M72.3401 126.878H65.7523C64.2004 126.878 63.2943 125.127 64.1904 123.86L68.4085 117.895C74.0966 109.851 77.1509 100.241 77.1509 90.3895V75.1614H83.7386V90.3895C83.7386 100.241 80.6844 109.851 74.9963 117.895L70.7782 123.86C69.8821 125.127 70.7882 126.878 72.3401 126.878Z" fill="#7CD2E3"/>
<path d="M77.6908 67.2402L73.2274 48.1968C72.9272 46.916 73.7221 45.6343 75.0029 45.3341C76.2838 45.034 77.5655 45.8289 77.8657 47.1097L82.3291 66.1531C82.6293 67.4339 81.8344 68.7157 80.5536 69.0158C79.2727 69.3159 77.991 68.5211 77.6908 67.2402ZM96.4465 76.3434C96.4465 75.0278 95.3801 73.9614 94.0645 73.9614H74.5051C73.1895 73.9614 72.123 75.0278 72.123 76.3434C72.123 77.659 73.1895 78.7254 74.5051 78.7254H94.0645C95.3801 78.7254 96.4465 77.659 96.4465 76.3434Z" fill="#C2EAF2"/>
<path d="M59.952 159.714C58.4353 159.714 56.9315 159.659 55.4425 159.55C48.8476 158.324 45.3636 150.487 49.4662 144.685L64.4414 123.507H104.192L110.647 132.636C99.7055 148.965 81.0842 159.714 59.952 159.714Z" fill="#FFC14F"/>
<path d="M109.5 80.6304C109.5 81.6171 108.7 82.417 107.714 82.417H106.522V83.608C106.522 84.5946 105.723 85.3945 104.736 85.3945C103.749 85.3945 102.949 84.5946 102.949 83.608V82.417H101.758C100.772 82.417 99.9719 81.6171 99.9719 80.6304C99.9719 79.6438 100.772 78.8439 101.758 78.8439H102.949V77.6529C102.949 76.6662 103.749 75.8664 104.736 75.8664C105.723 75.8664 106.522 76.6662 106.522 77.6529V78.8439H107.714C108.7 78.8439 109.5 79.6438 109.5 80.6304ZM49.204 64.8502C48.9039 63.5694 49.6987 62.2876 50.9796 61.9874L65.8551 58.5009C67.136 58.2007 68.4177 58.9956 68.7179 60.2764C69.018 61.5573 68.2231 62.839 66.9423 63.1392L52.0667 66.6257C50.7859 66.9259 49.5041 66.131 49.204 64.8502ZM87.6186 109.215V88.2529C87.6186 86.9373 86.5522 85.8709 85.2366 85.8709C83.921 85.8709 82.8546 86.9373 82.8546 88.2529V109.215C82.8546 110.53 83.921 111.597 85.2366 111.597C86.5522 111.597 87.6186 110.53 87.6186 109.215Z" fill="#FFF5F5"/>
<path d="M34.4664 134.941C34.4664 136.914 32.8666 138.514 30.8934 138.514C28.9201 138.514 27.3203 136.914 27.3203 134.941C27.3203 132.968 28.9201 131.368 30.8934 131.368C32.8666 131.368 34.4664 132.968 34.4664 134.941Z" fill="#D63030"/>
<path d="M48.2778 122.316C48.2778 124.289 46.678 125.889 44.7047 125.889C42.7314 125.889 41.1316 124.289 41.1316 122.316C41.1316 120.342 42.7314 118.743 44.7047 118.743C46.678 118.743 48.2778 120.342 48.2778 122.316ZM17.0731 118.743C15.0998 118.743 13.5 120.342 13.5 122.316C13.5 124.289 15.0998 125.889 17.0731 125.889C19.0463 125.889 20.6461 124.289 20.6461 122.316C20.6461 120.342 19.0463 118.743 17.0731 118.743Z" fill="#FD9A9A"/>
<path d="M34.4619 122.316C34.4619 124.289 32.8622 125.889 30.8889 125.889C28.9156 125.889 27.3158 124.289 27.3158 122.316C27.3158 120.342 28.9156 118.743 30.8889 118.743C32.8622 118.743 34.4619 120.342 34.4619 122.316ZM17.0731 131.367C15.0998 131.367 13.5 132.967 13.5 134.941C13.5 136.914 15.0998 138.514 17.0731 138.514C19.0463 138.514 20.6461 136.914 20.6461 134.941C20.6461 132.967 19.0463 131.367 17.0731 131.367Z" fill="#FB5858"/>
<path d="M48.2779 134.941C48.2779 136.914 46.6781 138.514 44.7048 138.514C42.7315 138.514 41.1318 136.914 41.1318 134.941C41.1318 132.967 42.7315 131.367 44.7048 131.367C46.6781 131.367 48.2779 132.967 48.2779 134.941ZM3.25736 118.743C2.95007 118.743 2.65184 118.782 2.36719 118.854C3.14969 121.094 4.05915 123.274 5.08676 125.385C6.13105 124.762 6.83041 123.62 6.83041 122.316C6.83041 120.342 5.23064 118.743 3.25736 118.743Z" fill="#FC7979"/>
<path d="M63.4209 159.617C62.2728 159.681 61.1163 159.714 59.952 159.714C58.4353 159.714 56.9315 159.659 55.4425 159.55C48.8476 158.324 45.3636 150.487 49.4662 144.685L64.4414 123.507H71.3774L56.4025 144.685C52.2997 150.487 55.7839 158.324 62.3788 159.55C62.7251 159.575 63.0727 159.597 63.4209 159.617ZM90.8744 120.649C88.2432 120.649 86.1103 122.781 86.1103 125.413C86.1103 128.044 88.2432 130.177 90.8744 130.177C93.5056 130.177 95.6385 128.044 95.6385 125.413C95.6385 122.781 93.5053 120.649 90.8744 120.649ZM83.7283 117.075C83.7283 119.049 82.1285 120.649 80.1552 120.649C78.1819 120.649 76.5822 119.049 76.5822 117.075C76.5822 115.102 78.1819 113.502 80.1552 113.502C82.1285 113.502 83.7283 115.102 83.7283 117.075Z" fill="#FFA90B"/>
<path d="M96.194 129.224C96.194 130.54 95.1275 131.606 93.8119 131.606C92.4963 131.606 91.4299 130.54 91.4299 129.224C91.4299 127.909 92.4963 126.842 93.8119 126.842C95.1275 126.842 96.194 127.909 96.194 129.224ZM71.1633 139.229C69.8477 139.229 68.7812 140.295 68.7812 141.611C68.7812 142.926 69.8477 143.993 71.1633 143.993C72.4789 143.993 73.5453 142.926 73.5453 141.611C73.5453 140.295 72.4789 139.229 71.1633 139.229ZM79.1741 144.946C77.8585 144.946 76.792 146.012 76.792 147.328C76.792 148.643 77.8585 149.71 79.1741 149.71C80.4897 149.71 81.5561 148.643 81.5561 147.328C81.5561 146.012 80.4894 144.946 79.1741 144.946Z" fill="#FFD993"/>
<path d="M87.6195 59.6232C87.6195 60.9388 86.5531 62.0053 85.2375 62.0053C83.9219 62.0053 82.8555 60.9388 82.8555 59.6232C82.8555 58.3076 83.9219 57.2412 85.2375 57.2412C86.5531 57.2412 87.6195 58.3076 87.6195 59.6232ZM94.133 60.0997C92.8174 60.0997 91.7509 61.1661 91.7509 62.4817C91.7509 63.7973 92.8174 64.8637 94.133 64.8637C95.4486 64.8637 96.515 63.7973 96.515 62.4817C96.515 61.1661 95.4486 60.0997 94.133 60.0997ZM90.0016 71.3719C88.686 71.3719 87.6195 72.4383 87.6195 73.7539C87.6195 75.0695 88.686 76.136 90.0016 76.136C91.3172 76.136 92.3836 75.0695 92.3836 73.7539C92.3836 72.4383 91.3172 71.3719 90.0016 71.3719Z" fill="#9BCF1B"/>
<path d="M40.8975 68.1838C40.8975 69.4994 39.8311 70.5658 38.5155 70.5658C37.1999 70.5658 36.1334 69.4994 36.1334 68.1838C36.1334 66.8682 37.1999 65.8018 38.5155 65.8018C39.8311 65.8018 40.8975 66.8682 40.8975 68.1838ZM18.2681 65.8018C16.9525 65.8018 15.8861 66.8682 15.8861 68.1838C15.8861 69.4994 16.9525 70.5658 18.2681 70.5658C19.5837 70.5658 20.6502 69.4994 20.6502 68.1838C20.6502 66.8682 19.5837 65.8018 18.2681 65.8018ZM10.5637 71.3729C9.24808 71.3729 8.18164 72.4393 8.18164 73.7549C8.18164 75.0705 9.24808 76.1369 10.5637 76.1369C11.8793 76.1369 12.9457 75.0705 12.9457 73.7549C12.9457 72.4393 11.8793 71.3729 10.5637 71.3729Z" fill="#84B017"/>
</g>
</g>
<rect x="8.83398" y="4.5" width="101.667" height="129" rx="5.5" stroke="black" stroke-opacity="0.1"/>
</g>
<defs>
<filter id="filter0_d_2498_1783" x="0.333984" y="0" width="118.666" height="146" filterUnits="userSpaceOnUse" color-interpolation-filters="sRGB">
<feFlood flood-opacity="0" result="BackgroundImageFix"/>
<feColorMatrix in="SourceAlpha" type="matrix" values="0 0 0 0 0 0 0 0 0 0 0 0 0 0 0 0 0 0 127 0" result="hardAlpha"/>
<feOffset dy="4"/>
<feGaussianBlur stdDeviation="4"/>
<feComposite in2="hardAlpha" operator="out"/>
<feColorMatrix type="matrix" values="0 0 0 0 0 0 0 0 0 0 0 0 0 0 0 0 0 0 0.08 0"/>
<feBlend mode="normal" in2="BackgroundImageFix" result="effect1_dropShadow_2498_1783"/>
<feBlend mode="normal" in="SourceGraphic" in2="effect1_dropShadow_2498_1783" result="shape"/>
</filter>
<clipPath id="clip0_2498_1783">
<rect x="8.33398" y="4" width="102.667" height="130" rx="6" fill="white"/>
</clipPath>
<clipPath id="clip1_2498_1783">
<rect width="121.96" height="121.96" fill="white" transform="translate(-1.02539 37.7529)"/>
</clipPath>
</defs>
</svg>
