<svg width="120" height="146" viewBox="0 0 120 146" fill="none" xmlns="http://www.w3.org/2000/svg">
<g filter="url(#filter0_d_2498_1761)">
<g clip-path="url(#clip0_2498_1761)">
<rect x="8.66602" y="4" width="102.667" height="130" rx="6" fill="#20B7A1"/>
<path d="M17.668 23.2113C16.7533 23.2113 15.9133 22.9966 15.148 22.5673C14.3827 22.1379 13.776 21.5453 13.328 20.7893C12.88 20.0239 12.656 19.1606 12.656 18.1993C12.656 17.2473 12.88 16.3933 13.328 15.6373C13.776 14.8719 14.3827 14.2746 15.148 13.8453C15.9133 13.4159 16.7533 13.2013 17.668 13.2013C18.592 13.2013 19.432 13.4159 20.188 13.8453C20.9533 14.2746 21.5553 14.8719 21.994 15.6373C22.442 16.3933 22.666 17.2473 22.666 18.1993C22.666 19.1606 22.442 20.0239 21.994 20.7893C21.5553 21.5453 20.9533 22.1379 20.188 22.5673C19.4227 22.9966 18.5827 23.2113 17.668 23.2113ZM17.668 21.4613C18.256 21.4613 18.774 21.3306 19.222 21.0693C19.67 20.7986 20.02 20.4159 20.272 19.9213C20.524 19.4266 20.65 18.8526 20.65 18.1993C20.65 17.5459 20.524 16.9766 20.272 16.4913C20.02 15.9966 19.67 15.6186 19.222 15.3573C18.774 15.0959 18.256 14.9653 17.668 14.9653C17.08 14.9653 16.5573 15.0959 16.1 15.3573C15.652 15.6186 15.302 15.9966 15.05 16.4913C14.798 16.9766 14.672 17.5459 14.672 18.1993C14.672 18.8526 14.798 19.4266 15.05 19.9213C15.302 20.4159 15.652 20.7986 16.1 21.0693C16.5573 21.3306 17.08 21.4613 17.668 21.4613ZM26.1192 16.5613C26.3712 16.1506 26.6979 15.8286 27.0992 15.5953C27.5099 15.3619 27.9765 15.2453 28.4992 15.2453V17.3033H27.9812C27.3652 17.3033 26.8985 17.4479 26.5812 17.7373C26.2732 18.0266 26.1192 18.5306 26.1192 19.2493V23.1133H24.1592V15.3573H26.1192V16.5613ZM29.3504 19.2073C29.3504 18.4233 29.5044 17.7279 29.8124 17.1213C30.1297 16.5146 30.559 16.0479 31.1004 15.7213C31.6417 15.3946 32.2437 15.2313 32.9064 15.2313C33.4104 15.2313 33.891 15.3433 34.3484 15.5673C34.8057 15.7819 35.1697 16.0713 35.4404 16.4353V12.7533H37.4284V23.1133H35.4404V21.9653C35.1977 22.3479 34.857 22.6559 34.4184 22.8893C33.9797 23.1226 33.471 23.2393 32.8924 23.2393C32.239 23.2393 31.6417 23.0713 31.1004 22.7353C30.559 22.3993 30.1297 21.9279 29.8124 21.3213C29.5044 20.7053 29.3504 20.0006 29.3504 19.2073ZM35.4544 19.2353C35.4544 18.7593 35.361 18.3533 35.1744 18.0173C34.9877 17.6719 34.7357 17.4106 34.4184 17.2333C34.101 17.0466 33.7604 16.9533 33.3964 16.9533C33.0324 16.9533 32.6964 17.0419 32.3884 17.2193C32.0804 17.3966 31.8284 17.6579 31.6324 18.0033C31.4457 18.3393 31.3524 18.7406 31.3524 19.2073C31.3524 19.6739 31.4457 20.0846 31.6324 20.4393C31.8284 20.7846 32.0804 21.0506 32.3884 21.2373C32.7057 21.4239 33.0417 21.5173 33.3964 21.5173C33.7604 21.5173 34.101 21.4286 34.4184 21.2513C34.7357 21.0646 34.9877 20.8033 35.1744 20.4673C35.361 20.1219 35.4544 19.7113 35.4544 19.2353ZM46.5876 19.0673C46.5876 19.3473 46.569 19.5993 46.5316 19.8233H40.8616C40.9083 20.3833 41.1043 20.8219 41.4496 21.1393C41.795 21.4566 42.2196 21.6153 42.7236 21.6153C43.4516 21.6153 43.9696 21.3026 44.2776 20.6773H46.3916C46.1676 21.4239 45.7383 22.0399 45.1036 22.5253C44.469 23.0013 43.6896 23.2393 42.7656 23.2393C42.019 23.2393 41.347 23.0759 40.7496 22.7493C40.1616 22.4133 39.6996 21.9419 39.3636 21.3353C39.037 20.7286 38.8736 20.0286 38.8736 19.2353C38.8736 18.4326 39.037 17.7279 39.3636 17.1213C39.6903 16.5146 40.1476 16.0479 40.7356 15.7213C41.3236 15.3946 42.0003 15.2313 42.7656 15.2313C43.503 15.2313 44.161 15.3899 44.7396 15.7073C45.3276 16.0246 45.7803 16.4773 46.0976 17.0653C46.4243 17.6439 46.5876 18.3113 46.5876 19.0673ZM44.5576 18.5073C44.5483 18.0033 44.3663 17.6019 44.0116 17.3033C43.657 16.9953 43.223 16.8413 42.7096 16.8413C42.2243 16.8413 41.8136 16.9906 41.4776 17.2893C41.151 17.5786 40.9503 17.9846 40.8756 18.5073H44.5576ZM50.0133 16.5613C50.2653 16.1506 50.5919 15.8286 50.9933 15.5953C51.4039 15.3619 51.8706 15.2453 52.3933 15.2453V17.3033H51.8753C51.2593 17.3033 50.7926 17.4479 50.4753 17.7373C50.1673 18.0266 50.0133 18.5306 50.0133 19.2493V23.1133H48.0533V15.3573H50.0133V16.5613ZM23.786 34.3413V44.1133H21.826V37.7573L19.208 44.1133H17.724L15.092 37.7573V44.1133H13.132V34.3413H15.358L18.466 41.6073L21.574 34.3413H23.786ZM32.9688 40.0673C32.9688 40.3473 32.9501 40.5993 32.9128 40.8233H27.2428C27.2895 41.3833 27.4855 41.8219 27.8308 42.1393C28.1761 42.4566 28.6008 42.6153 29.1048 42.6153C29.8328 42.6153 30.3508 42.3026 30.6588 41.6773H32.7728C32.5488 42.4239 32.1195 43.0399 31.4848 43.5253C30.8501 44.0013 30.0708 44.2393 29.1468 44.2393C28.4001 44.2393 27.7281 44.0759 27.1308 43.7493C26.5428 43.4133 26.0808 42.9419 25.7448 42.3353C25.4181 41.7286 25.2548 41.0286 25.2548 40.2353C25.2548 39.4326 25.4181 38.7279 25.7448 38.1213C26.0715 37.5146 26.5288 37.0479 27.1168 36.7213C27.7048 36.3946 28.3815 36.2313 29.1468 36.2313C29.8841 36.2313 30.5421 36.3899 31.1208 36.7073C31.7088 37.0246 32.1615 37.4773 32.4788 38.0653C32.8055 38.6439 32.9688 39.3113 32.9688 40.0673ZM30.9388 39.5073C30.9295 39.0033 30.7475 38.6019 30.3928 38.3033C30.0381 37.9953 29.6041 37.8413 29.0908 37.8413C28.6055 37.8413 28.1948 37.9906 27.8588 38.2893C27.5321 38.5786 27.3315 38.9846 27.2568 39.5073H30.9388ZM33.9304 40.2073C33.9304 39.4233 34.0844 38.7279 34.3924 38.1213C34.7098 37.5146 35.1391 37.0479 35.6804 36.7213C36.2218 36.3946 36.8238 36.2313 37.4864 36.2313C37.9904 36.2313 38.4711 36.3433 38.9284 36.5673C39.3858 36.7819 39.7498 37.0713 40.0204 37.4353V33.7533H42.0084V44.1133H40.0204V42.9653C39.7778 43.3479 39.4371 43.6559 38.9984 43.8893C38.5598 44.1226 38.0511 44.2393 37.4724 44.2393C36.8191 44.2393 36.2218 44.0713 35.6804 43.7353C35.1391 43.3993 34.7098 42.9279 34.3924 42.3213C34.0844 41.7053 33.9304 41.0006 33.9304 40.2073ZM40.0344 40.2353C40.0344 39.7593 39.9411 39.3533 39.7544 39.0173C39.5678 38.6719 39.3158 38.4106 38.9984 38.2333C38.6811 38.0466 38.3404 37.9533 37.9764 37.9533C37.6124 37.9533 37.2764 38.0419 36.9684 38.2193C36.6604 38.3966 36.4084 38.6579 36.2124 39.0033C36.0258 39.3393 35.9324 39.7406 35.9324 40.2073C35.9324 40.6739 36.0258 41.0846 36.2124 41.4393C36.4084 41.7846 36.6604 42.0506 36.9684 42.2373C37.2858 42.4239 37.6218 42.5173 37.9764 42.5173C38.3404 42.5173 38.6811 42.4286 38.9984 42.2513C39.3158 42.0646 39.5678 41.8033 39.7544 41.4673C39.9411 41.1219 40.0344 40.7113 40.0344 40.2353ZM44.9517 35.4333C44.6064 35.4333 44.3171 35.3259 44.0837 35.1113C43.8597 34.8873 43.7477 34.6119 43.7477 34.2853C43.7477 33.9586 43.8597 33.6879 44.0837 33.4733C44.3171 33.2493 44.6064 33.1373 44.9517 33.1373C45.2971 33.1373 45.5817 33.2493 45.8057 33.4733C46.0391 33.6879 46.1557 33.9586 46.1557 34.2853C46.1557 34.6119 46.0391 34.8873 45.8057 35.1113C45.5817 35.3259 45.2971 35.4333 44.9517 35.4333ZM45.9177 36.3573V44.1133H43.9577V36.3573H45.9177ZM47.3852 40.2353C47.3852 39.4326 47.5485 38.7326 47.8752 38.1353C48.2019 37.5286 48.6545 37.0619 49.2332 36.7353C49.8119 36.3993 50.4745 36.2313 51.2212 36.2313C52.1825 36.2313 52.9759 36.4739 53.6012 36.9593C54.2359 37.4353 54.6605 38.1073 54.8752 38.9753H52.7612C52.6492 38.6393 52.4579 38.3779 52.1872 38.1913C51.9259 37.9953 51.5992 37.8973 51.2072 37.8973C50.6472 37.8973 50.2039 38.1026 49.8772 38.5133C49.5505 38.9146 49.3872 39.4886 49.3872 40.2353C49.3872 40.9726 49.5505 41.5466 49.8772 41.9573C50.2039 42.3586 50.6472 42.5593 51.2072 42.5593C52.0005 42.5593 52.5185 42.2046 52.7612 41.4953H54.8752C54.6605 42.3353 54.2359 43.0026 53.6012 43.4973C52.9665 43.9919 52.1732 44.2393 51.2212 44.2393C50.4745 44.2393 49.8119 44.0759 49.2332 43.7493C48.6545 43.4133 48.2019 42.9466 47.8752 42.3493C47.5485 41.7426 47.3852 41.0379 47.3852 40.2353ZM57.3401 35.4333C56.9947 35.4333 56.7054 35.3259 56.4721 35.1113C56.2481 34.8873 56.1361 34.6119 56.1361 34.2853C56.1361 33.9586 56.2481 33.6879 56.4721 33.4733C56.7054 33.2493 56.9947 33.1373 57.3401 33.1373C57.6854 33.1373 57.9701 33.2493 58.1941 33.4733C58.4274 33.6879 58.5441 33.9586 58.5441 34.2853C58.5441 34.6119 58.4274 34.8873 58.1941 35.1113C57.9701 35.3259 57.6854 35.4333 57.3401 35.4333ZM58.3061 36.3573V44.1133H56.3461V36.3573H58.3061ZM64.5756 36.2453C65.4996 36.2453 66.2462 36.5393 66.8156 37.1273C67.3849 37.7059 67.6696 38.5179 67.6696 39.5633V44.1133H65.7096V39.8293C65.7096 39.2133 65.5556 38.7419 65.2476 38.4153C64.9396 38.0793 64.5196 37.9113 63.9876 37.9113C63.4462 37.9113 63.0169 38.0793 62.6996 38.4153C62.3916 38.7419 62.2376 39.2133 62.2376 39.8293V44.1133H60.2776V36.3573H62.2376V37.3233C62.4989 36.9873 62.8302 36.7259 63.2316 36.5393C63.6422 36.3433 64.0902 36.2453 64.5756 36.2453ZM76.7784 40.0673C76.7784 40.3473 76.7598 40.5993 76.7224 40.8233H71.0524C71.0991 41.3833 71.2951 41.8219 71.6404 42.1393C71.9858 42.4566 72.4104 42.6153 72.9144 42.6153C73.6424 42.6153 74.1604 42.3026 74.4684 41.6773H76.5824C76.3584 42.4239 75.9291 43.0399 75.2944 43.5253C74.6598 44.0013 73.8804 44.2393 72.9564 44.2393C72.2098 44.2393 71.5378 44.0759 70.9404 43.7493C70.3524 43.4133 69.8904 42.9419 69.5544 42.3353C69.2278 41.7286 69.0644 41.0286 69.0644 40.2353C69.0644 39.4326 69.2278 38.7279 69.5544 38.1213C69.8811 37.5146 70.3384 37.0479 70.9264 36.7213C71.5144 36.3946 72.1911 36.2313 72.9564 36.2313C73.6938 36.2313 74.3518 36.3899 74.9304 36.7073C75.5184 37.0246 75.9711 37.4773 76.2884 38.0653C76.6151 38.6439 76.7784 39.3113 76.7784 40.0673ZM74.7484 39.5073C74.7391 39.0033 74.5571 38.6019 74.2024 38.3033C73.8478 37.9953 73.4138 37.8413 72.9004 37.8413C72.4151 37.8413 72.0044 37.9906 71.6684 38.2893C71.3418 38.5786 71.1411 38.9846 71.0664 39.5073H74.7484ZM81.212 44.2393C80.5774 44.2393 80.008 44.1273 79.504 43.9033C79 43.6699 78.5987 43.3573 78.3 42.9653C78.0107 42.5733 77.852 42.1393 77.824 41.6633H79.798C79.8354 41.9619 79.98 42.2093 80.232 42.4053C80.4934 42.6013 80.8154 42.6993 81.198 42.6993C81.5714 42.6993 81.8607 42.6246 82.066 42.4753C82.2807 42.3259 82.388 42.1346 82.388 41.9013C82.388 41.6493 82.2574 41.4626 81.996 41.3413C81.744 41.2106 81.338 41.0706 80.778 40.9213C80.1994 40.7813 79.7234 40.6366 79.35 40.4873C78.986 40.3379 78.6687 40.1093 78.398 39.8013C78.1367 39.4933 78.006 39.0779 78.006 38.5553C78.006 38.1259 78.1274 37.7339 78.37 37.3793C78.622 37.0246 78.9767 36.7446 79.434 36.5393C79.9007 36.3339 80.4467 36.2313 81.072 36.2313C81.996 36.2313 82.7334 36.4646 83.284 36.9313C83.8347 37.3886 84.138 38.0093 84.194 38.7933H82.318C82.29 38.4853 82.1594 38.2426 81.926 38.0653C81.702 37.8786 81.3987 37.7853 81.016 37.7853C80.6614 37.7853 80.386 37.8506 80.19 37.9813C80.0034 38.1119 79.91 38.2939 79.91 38.5273C79.91 38.7886 80.0407 38.9893 80.302 39.1293C80.5634 39.2599 80.9694 39.3953 81.52 39.5353C82.08 39.6753 82.542 39.8199 82.906 39.9693C83.27 40.1186 83.5827 40.3519 83.844 40.6693C84.1147 40.9773 84.2547 41.3879 84.264 41.9013C84.264 42.3493 84.138 42.7506 83.886 43.1053C83.6434 43.4599 83.2887 43.7399 82.822 43.9453C82.3647 44.1413 81.828 44.2393 81.212 44.2393Z" fill="white"/>
<g clip-path="url(#clip1_2498_1761)">
<path d="M9.59576 103.443C9.09707 103.443 8.69003 103.044 8.6796 102.546C8.67178 102.18 8.66797 101.813 8.66797 101.445C8.66797 73.0954 31.6501 50.1133 60 50.1133C88.3499 50.1133 111.332 73.0954 111.332 101.445C111.332 101.745 111.329 102.043 111.324 102.342C111.314 102.954 110.812 103.443 110.201 103.443H9.59576Z" fill="#20B7A1"/>
<path d="M12.8028 103.443C12.4132 103.443 12.0954 103.132 12.0871 102.742C12.0811 102.456 12.0781 102.17 12.0781 101.883C12.0781 79.7393 30.0289 61.7886 52.1723 61.7886C74.3156 61.7886 92.2664 79.7393 92.2664 101.883C92.2664 102.117 92.2644 102.35 92.2604 102.583C92.2521 103.061 91.8605 103.443 91.3825 103.443H12.8028V103.443Z" fill="#24D3B5"/>
<path d="M111.325 102.248C110.897 130.228 88.0817 152.778 59.9996 152.778C31.9176 152.778 9.10233 130.228 8.67383 102.248H111.325Z" fill="#3D4EC6"/>
<path d="M62.1868 120.883H29.291V82.8311H62.1868V120.883Z" fill="#FFC14F"/>
<path d="M36.1172 120.883H29.291V82.8311H36.1172V120.883Z" fill="#FFA90B"/>
<path d="M60.1817 84.1535H31.2962C30.1887 84.1535 29.291 83.2558 29.291 82.1483V76.6536C29.291 75.5461 30.1887 74.6484 31.2962 74.6484H60.1817C61.2891 74.6484 62.1868 75.5461 62.1868 76.6536V82.1483C62.1868 83.2558 61.2891 84.1535 60.1817 84.1535Z" fill="#A7D0FC"/>
<path d="M67.008 84.1535H38.1223C37.0149 84.1535 36.1172 83.2558 36.1172 82.1483V76.6536C36.1172 75.5461 37.0149 74.6484 38.1223 74.6484H67.008C68.1155 74.6484 69.0132 75.5461 69.0132 76.6536V82.1483C69.0132 83.2558 68.1155 84.1535 67.008 84.1535Z" fill="#C8E2FD"/>
<path d="M60.1826 84.4088H27.8606C26.7532 84.4088 25.8555 83.511 25.8555 82.4036C25.8555 81.2961 26.7532 80.3984 27.8606 80.3984H60.1826C61.29 80.3984 62.1877 81.2961 62.1877 82.4036C62.1877 83.511 61.29 84.4088 60.1826 84.4088Z" fill="#C8E2FD"/>
<path d="M67.4542 84.4088H35.1321C34.0247 84.4088 33.127 83.511 33.127 82.4036C33.127 81.2961 34.0247 80.3984 35.1321 80.3984H67.454C68.5615 80.3984 69.4592 81.2961 69.4592 82.4036C69.4594 83.511 68.5617 84.4088 67.4542 84.4088Z" fill="#E9F3FE"/>
<path d="M101.808 110.068V130.32C101.808 133.642 99.1149 136.335 95.7926 136.335H61.7049C58.3826 136.335 55.6895 133.642 55.6895 130.32V74.5764C55.6895 71.2542 58.3826 68.5609 61.7049 68.5609H64.5121C66.1732 68.5609 67.5199 67.2142 67.5199 65.5531V56.1289H81.556V104.052H95.7926C99.1149 104.052 101.808 106.745 101.808 110.068Z" fill="#F44545"/>
<path d="M100.003 79.401V102.248C100.003 102.248 101.643 108.638 101.334 109.8C99.7277 115.842 94.2196 120.294 87.6715 120.294C79.8642 120.294 73.5352 113.965 73.5352 106.158V56.1289H89.9774V65.5531C89.9774 67.2142 91.3241 68.5609 92.9852 68.5609H95.7924C99.1147 68.5609 101.808 71.2542 101.808 74.5764V76.1805L100.003 79.401Z" fill="#FB5858"/>
<path d="M87.9714 52.1184V62.1442C87.9714 63.2517 87.0737 64.1494 85.9663 64.1494H67.5188C66.4114 64.1494 65.5137 63.2517 65.5137 62.1442V52.1184C65.5137 51.011 66.4114 50.1133 67.5188 50.1133H85.9663C87.0737 50.1133 87.9714 51.011 87.9714 52.1184Z" fill="#A7D0FC"/>
<path d="M91.9832 52.1184V62.1442C91.9832 63.2517 91.0854 64.1494 89.978 64.1494H71.5305C70.4231 64.1494 69.5254 63.2517 69.5254 62.1442V52.1184C69.5254 51.011 70.4231 50.1133 71.5305 50.1133H89.978C91.0854 50.1133 91.9832 51.011 91.9832 52.1184Z" fill="#C8E2FD"/>
<path d="M77.7465 53.1212V61.1419C77.7465 61.6955 77.2975 62.1444 76.7439 62.1444C76.1903 62.1444 75.7413 61.6955 75.7413 61.1419V53.1212C75.7413 52.5676 76.1903 52.1187 76.7439 52.1187C77.2975 52.1187 77.7465 52.5676 77.7465 53.1212ZM72.7336 52.1187C72.18 52.1187 71.731 52.5676 71.731 53.1212V61.1419C71.731 61.6955 72.18 62.1444 72.7336 62.1444C73.2872 62.1444 73.7362 61.6955 73.7362 61.1419V53.1212C73.7362 52.5676 73.2872 52.1187 72.7336 52.1187ZM68.7233 52.1187C68.1697 52.1187 67.7207 52.5676 67.7207 53.1212V61.1419C67.7207 61.6955 68.1697 62.1444 68.7233 62.1444C69.2769 62.1444 69.7259 61.6955 69.7259 61.1419V53.1212C69.7259 52.5676 69.2769 52.1187 68.7233 52.1187ZM88.7749 52.1187C88.2212 52.1187 87.7723 52.5676 87.7723 53.1212V61.1419C87.7723 61.6955 88.2212 62.1444 88.7749 62.1444C89.3285 62.1444 89.7774 61.6955 89.7774 61.1419V53.1212C89.7774 52.5676 89.3285 52.1187 88.7749 52.1187ZM84.7645 52.1187C84.2109 52.1187 83.762 52.5676 83.762 53.1212V61.1419C83.762 61.6955 84.2109 62.1444 84.7645 62.1444C85.3182 62.1444 85.7671 61.6955 85.7671 61.1419V53.1212C85.7671 52.5676 85.3182 52.1187 84.7645 52.1187ZM80.7542 52.1187C80.2006 52.1187 79.7516 52.5676 79.7516 53.1212V61.1419C79.7516 61.6955 80.2006 62.1444 80.7542 62.1444C81.3079 62.1444 81.7568 61.6955 81.7568 61.1419V53.1212C81.7568 52.5676 81.3079 52.1187 80.7542 52.1187Z" fill="#86BEFB"/>
<path d="M100.004 79.1879V107.26C100.004 108.921 98.6572 110.268 96.9961 110.268H74.9394C73.2783 110.268 71.9316 108.921 71.9316 107.26V79.1879C71.9316 77.5268 73.2783 76.1802 74.9394 76.1802H96.9961C98.6572 76.1802 100.004 77.5268 100.004 79.1879Z" fill="#C8E2FD"/>
<path d="M101.807 76.1802V110.268H81.5546C79.8935 110.268 78.5469 108.921 78.5469 107.26V79.1879C78.5469 77.5268 79.8935 76.1802 81.5546 76.1802H101.807Z" fill="#E9F3FE"/>
<path d="M85.9668 97.4352C85.9668 96.8816 86.4158 96.4326 86.9694 96.4326H94.99C95.5436 96.4326 95.9926 96.8816 95.9926 97.4352C95.9926 97.9888 95.5436 98.4378 94.99 98.4378H86.9694C86.4158 98.4378 85.9668 97.9888 85.9668 97.4352ZM94.99 100.443H86.9694C86.4158 100.443 85.9668 100.892 85.9668 101.446C85.9668 101.999 86.4158 102.448 86.9694 102.448H94.99C95.5436 102.448 95.9926 101.999 95.9926 101.446C95.9926 100.892 95.5436 100.443 94.99 100.443ZM94.99 104.453H86.9694C86.4158 104.453 85.9668 104.902 85.9668 105.456C85.9668 106.009 86.4158 106.458 86.9694 106.458H94.99C95.5436 106.458 95.9926 106.009 95.9926 105.456C95.9926 104.902 95.5436 104.453 94.99 104.453Z" fill="#A7D0FC"/>
<path d="M82.2411 98.6381V138.14C82.2411 139.801 80.8944 141.147 79.2333 141.147H15.0683C13.4072 141.147 12.0605 139.801 12.0605 138.14V98.6381C12.0605 96.977 13.4072 95.6304 15.0683 95.6304H79.2333C80.8944 95.6304 82.2411 96.977 82.2411 98.6381Z" fill="#8C96DD"/>
<path d="M82.2404 98.6381V138.14C82.2404 139.801 80.8938 141.147 79.2327 141.147H60.8855C48.3164 141.147 38.127 130.958 38.127 118.389C38.127 105.82 48.3164 95.6304 60.8855 95.6304H79.2327C80.8938 95.6304 82.2404 96.977 82.2404 98.6381Z" fill="#A6AEE5"/>
<path d="M76.0245 118.389C76.0245 119.219 75.3512 119.893 74.5207 119.893H19.3788C18.5483 119.893 17.875 119.219 17.875 118.389C17.875 117.558 18.5483 116.885 19.3788 116.885H74.5207C75.3512 116.885 76.0245 117.558 76.0245 118.389ZM55.3046 112.273C58.627 112.273 61.3201 109.58 61.3201 106.258C61.3201 102.936 58.627 100.242 55.3046 100.242C51.9823 100.242 49.2892 102.936 49.2892 106.258C49.2892 109.58 51.9823 112.273 55.3046 112.273ZM71.6132 112.273C74.9355 112.273 77.6287 109.58 77.6287 106.258C77.6287 102.936 74.9355 100.242 71.6132 100.242C68.2908 100.242 65.5977 102.936 65.5977 106.258C65.5977 109.58 68.2908 112.273 71.6132 112.273ZM22.6873 112.273C26.0097 112.273 28.7028 109.58 28.7028 106.258C28.7028 102.936 26.0097 100.242 22.6873 100.242C19.365 100.242 16.6719 102.936 16.6719 106.258C16.6719 109.58 19.365 112.273 22.6873 112.273ZM38.9959 112.273C42.3182 112.273 45.0114 109.58 45.0114 106.258C45.0114 102.936 42.3182 100.242 38.9959 100.242C35.6735 100.242 32.9804 102.936 32.9804 106.258C32.9804 109.58 35.6737 112.273 38.9959 112.273ZM55.3046 124.304C51.9823 124.304 49.2892 126.997 49.2892 130.32C49.2892 133.642 51.9823 136.335 55.3046 136.335C58.627 136.335 61.3201 133.642 61.3201 130.32C61.3201 126.997 58.6268 124.304 55.3046 124.304ZM71.6132 124.304C68.2908 124.304 65.5977 126.997 65.5977 130.32C65.5977 133.642 68.2908 136.335 71.6132 136.335C74.9355 136.335 77.6287 133.642 77.6287 130.32C77.6287 126.997 74.9353 124.304 71.6132 124.304ZM22.6873 124.304C19.365 124.304 16.6719 126.997 16.6719 130.32C16.6719 133.642 19.365 136.335 22.6873 136.335C26.0097 136.335 28.7028 133.642 28.7028 130.32C28.7028 126.997 26.0095 124.304 22.6873 124.304ZM38.9959 124.304C35.6735 124.304 32.9804 126.997 32.9804 130.32C32.9804 133.642 35.6735 136.335 38.9959 136.335C42.3182 136.335 45.0114 133.642 45.0114 130.32C45.0114 126.997 42.3182 124.304 38.9959 124.304Z" fill="#717ED6"/>
<path d="M91.9905 81.7863C93.5881 83.3838 92.7246 86.8371 90.0622 89.4996C87.3997 92.162 83.9465 93.0252 82.349 91.4279C80.7514 89.8304 81.6149 86.3771 84.2773 83.7147C86.9398 81.0522 90.393 80.189 91.9905 81.7863ZM74.1446 137.73C72.5471 136.133 69.0939 136.996 66.4314 139.659C63.769 142.321 62.9057 145.774 64.5033 147.372C66.1008 148.969 69.554 148.106 72.2165 145.443C74.8789 142.781 75.742 139.328 74.1446 137.73Z" fill="#FFA90B"/>
<path d="M91.9893 81.7863C93.3807 83.1776 92.9051 85.9766 91.0002 88.435C89.4209 89.5268 87.2297 89.3581 85.8431 87.9814C85.8349 87.9732 85.8266 87.9651 85.8186 87.9569C85.8104 87.9487 85.8024 87.9405 85.7942 87.9323C84.4174 86.5457 84.2488 84.3547 85.3404 82.7754C87.7987 80.8705 90.5979 80.3951 91.9893 81.7863ZM74.1434 137.73C72.7522 136.339 69.953 136.814 67.4947 138.719C66.4031 140.299 66.5717 142.49 67.9485 143.876C67.9567 143.884 67.9647 143.893 67.9729 143.901C67.9812 143.909 67.9894 143.917 67.9976 143.925C69.3842 145.302 71.5752 145.471 73.1547 144.379C75.0592 141.921 75.5346 139.122 74.1434 137.73Z" fill="#FFC14F"/>
<path d="M59.3157 106.258C59.3157 108.473 57.5202 110.268 55.3053 110.268C53.0904 110.268 51.295 108.473 51.295 106.258C51.295 104.043 53.0904 102.248 55.3053 102.248C57.5202 102.248 59.3157 104.043 59.3157 106.258ZM71.6139 110.268C73.8288 110.268 75.6242 108.473 75.6242 106.258C75.6242 104.043 73.8288 102.248 71.6139 102.248C69.399 102.248 67.6036 104.043 67.6036 106.258C67.6036 108.473 69.399 110.268 71.6139 110.268ZM22.688 102.248C20.4732 102.248 18.6777 104.043 18.6777 106.258C18.6777 108.473 20.4732 110.268 22.688 110.268C24.9029 110.268 26.6984 108.473 26.6984 106.258C26.6984 104.043 24.9029 102.248 22.688 102.248ZM38.9966 102.248C36.7817 102.248 34.9863 104.043 34.9863 106.258C34.9863 108.473 36.7817 110.268 38.9966 110.268C41.2115 110.268 43.0069 108.473 43.0069 106.258C43.0069 104.043 41.2115 102.248 38.9966 102.248ZM55.3053 126.309C53.0904 126.309 51.295 128.105 51.295 130.32C51.295 132.535 53.0904 134.33 55.3053 134.33C57.5202 134.33 59.3157 132.535 59.3157 130.32C59.3157 128.105 57.52 126.309 55.3053 126.309ZM71.6139 126.309C69.399 126.309 67.6036 128.105 67.6036 130.32C67.6036 132.535 69.399 134.33 71.6139 134.33C73.8288 134.33 75.6242 132.535 75.6242 130.32C75.6242 128.105 73.8288 126.309 71.6139 126.309ZM22.688 126.309C20.4732 126.309 18.6777 128.105 18.6777 130.32C18.6777 132.535 20.4732 134.33 22.688 134.33C24.9029 134.33 26.6984 132.535 26.6984 130.32C26.6984 128.105 24.9029 126.309 22.688 126.309ZM38.9966 126.309C36.7817 126.309 34.9863 128.105 34.9863 130.32C34.9863 132.535 36.7817 134.33 38.9966 134.33C41.2115 134.33 43.0069 132.535 43.0069 130.32C43.0069 128.105 41.2115 126.309 38.9966 126.309ZM81.1554 143.153C81.1554 145.368 79.36 147.163 77.1451 147.163C74.9302 147.163 73.1348 145.368 73.1348 143.153C73.1348 140.938 74.9302 139.142 77.1451 139.142C79.36 139.142 81.1554 140.938 81.1554 143.153Z" fill="#C8E2FD"/>
<path d="M59.3138 106.258C59.3138 106.738 59.2295 107.197 59.0751 107.624C58.6489 107.778 58.1891 107.862 57.7096 107.862C55.4947 107.862 53.6993 106.067 53.6993 103.852C53.6993 103.372 53.7835 102.912 53.9379 102.486C54.3642 102.332 54.824 102.248 55.3035 102.248C57.5181 102.248 59.3138 104.043 59.3138 106.258ZM74.0182 107.862C74.4976 107.862 74.9576 107.778 75.3837 107.624C75.5381 107.197 75.6223 106.738 75.6223 106.258C75.6223 104.043 73.8269 102.248 71.612 102.248C71.1326 102.248 70.6726 102.332 70.2465 102.486C70.0921 102.912 70.0079 103.372 70.0079 103.852C70.0079 106.067 71.8033 107.862 74.0182 107.862ZM22.6862 102.248C22.2067 102.248 21.7467 102.332 21.3206 102.486C21.1662 102.912 21.082 103.372 21.082 103.852C21.082 106.067 22.8774 107.862 25.0923 107.862C25.5718 107.862 26.0318 107.778 26.4579 107.624C26.6123 107.197 26.6965 106.738 26.6965 106.258C26.6965 104.043 24.9011 102.248 22.6862 102.248ZM38.9947 102.248C38.5153 102.248 38.0553 102.332 37.6292 102.486C37.4748 102.912 37.3906 103.372 37.3906 103.852C37.3906 106.067 39.186 107.862 41.4009 107.862C41.8803 107.862 42.3403 107.778 42.7664 107.624C42.9208 107.197 43.005 106.738 43.005 106.258C43.005 104.043 41.2096 102.248 38.9947 102.248ZM55.3035 126.309C54.824 126.309 54.364 126.394 53.9379 126.548C53.7835 126.974 53.6993 127.434 53.6993 127.914C53.6993 130.128 55.4947 131.924 57.7096 131.924C58.1891 131.924 58.6491 131.84 59.0751 131.685C59.2295 131.259 59.3138 130.799 59.3138 130.32C59.3138 128.105 57.5181 126.309 55.3035 126.309ZM71.612 126.309C71.1326 126.309 70.6726 126.394 70.2465 126.548C70.0921 126.974 70.0079 127.434 70.0079 127.914C70.0079 130.128 71.8033 131.924 74.0182 131.924C74.4976 131.924 74.9576 131.84 75.3837 131.685C75.5381 131.259 75.6223 130.799 75.6223 130.32C75.6223 128.105 73.8269 126.309 71.612 126.309ZM22.6862 126.309C22.2067 126.309 21.7467 126.394 21.3206 126.548C21.1662 126.974 21.082 127.434 21.082 127.914C21.082 130.128 22.8774 131.924 25.0923 131.924C25.5718 131.924 26.0318 131.84 26.4579 131.685C26.6123 131.259 26.6965 130.799 26.6965 130.32C26.6965 128.105 24.9011 126.309 22.6862 126.309ZM38.9947 126.309C38.5153 126.309 38.0553 126.394 37.6292 126.548C37.4748 126.974 37.3906 127.434 37.3906 127.914C37.3906 130.128 39.186 131.924 41.4009 131.924C41.8803 131.924 42.3403 131.84 42.7664 131.685C42.9208 131.259 43.005 130.799 43.005 130.32C43.005 128.105 41.2096 126.309 38.9947 126.309ZM81.1535 143.153C81.1535 143.632 81.0693 144.092 80.9149 144.518C80.4886 144.673 80.0288 144.757 79.5494 144.757C77.3345 144.757 75.5391 142.961 75.5391 140.747C75.5391 140.267 75.6233 139.807 75.7777 139.381C76.204 139.226 76.6638 139.142 77.1432 139.142C79.3581 139.142 81.1535 140.938 81.1535 143.153Z" fill="#E9F3FE"/>
</g>
</g>
<rect x="9.16602" y="4.5" width="101.667" height="129" rx="5.5" stroke="black" stroke-opacity="0.1"/>
</g>
<defs>
<filter id="filter0_d_2498_1761" x="0.666016" y="0" width="118.666" height="146" filterUnits="userSpaceOnUse" color-interpolation-filters="sRGB">
<feFlood flood-opacity="0" result="BackgroundImageFix"/>
<feColorMatrix in="SourceAlpha" type="matrix" values="0 0 0 0 0 0 0 0 0 0 0 0 0 0 0 0 0 0 127 0" result="hardAlpha"/>
<feOffset dy="4"/>
<feGaussianBlur stdDeviation="4"/>
<feComposite in2="hardAlpha" operator="out"/>
<feColorMatrix type="matrix" values="0 0 0 0 0 0 0 0 0 0 0 0 0 0 0 0 0 0 0.08 0"/>
<feBlend mode="normal" in2="BackgroundImageFix" result="effect1_dropShadow_2498_1761"/>
<feBlend mode="normal" in="SourceGraphic" in2="effect1_dropShadow_2498_1761" result="shape"/>
</filter>
<clipPath id="clip0_2498_1761">
<rect x="8.66602" y="4" width="102.667" height="130" rx="6" fill="white"/>
</clipPath>
<clipPath id="clip1_2498_1761">
<rect width="102.664" height="102.664" fill="white" transform="translate(8.66797 50.1133)"/>
</clipPath>
</defs>
</svg>
