<svg width="119" height="146" viewBox="0 0 119 146" fill="none" xmlns="http://www.w3.org/2000/svg">
<g filter="url(#filter0_d_2498_1766)">
<g clip-path="url(#clip0_2498_1766)">
<g filter="url(#filter1_d_2498_1766)">
<rect x="8.33398" y="4" width="103" height="130" rx="6" fill="#E75583"/>
<rect x="8.83398" y="4.5" width="102" height="129" rx="5.5" stroke="black" stroke-opacity="0.1"/>
<path d="M18.834 13.3413V14.9233H14.76V17.4293H17.882V18.9833H14.76V23.1133H12.8V13.3413H18.834ZM21.2528 14.4333C20.9075 14.4333 20.6181 14.3259 20.3848 14.1113C20.1608 13.8873 20.0488 13.6119 20.0488 13.2853C20.0488 12.9586 20.1608 12.6879 20.3848 12.4733C20.6181 12.2493 20.9075 12.1373 21.2528 12.1373C21.5981 12.1373 21.8828 12.2493 22.1068 12.4733C22.3401 12.6879 22.4568 12.9586 22.4568 13.2853C22.4568 13.6119 22.3401 13.8873 22.1068 14.1113C21.8828 14.3259 21.5981 14.4333 21.2528 14.4333ZM22.2188 15.3573V23.1133H20.2588V15.3573H22.2188ZM28.4883 15.2453C29.4123 15.2453 30.159 15.5393 30.7283 16.1273C31.2976 16.7059 31.5823 17.5179 31.5823 18.5633V23.1133H29.6223V18.8293C29.6223 18.2133 29.4683 17.7419 29.1603 17.4153C28.8523 17.0793 28.4323 16.9113 27.9003 16.9113C27.359 16.9113 26.9296 17.0793 26.6123 17.4153C26.3043 17.7419 26.1503 18.2133 26.1503 18.8293V23.1133H24.1903V15.3573H26.1503V16.3233C26.4116 15.9873 26.743 15.7259 27.1443 15.5393C27.555 15.3433 28.003 15.2453 28.4883 15.2453ZM32.9772 19.2073C32.9772 18.4233 33.1312 17.7279 33.4392 17.1213C33.7565 16.5146 34.1858 16.0479 34.7272 15.7213C35.2685 15.3946 35.8705 15.2313 36.5332 15.2313C37.0372 15.2313 37.5178 15.3433 37.9752 15.5673C38.4325 15.7819 38.7965 16.0713 39.0672 16.4353V12.7533H41.0552V23.1133H39.0672V21.9653C38.8245 22.3479 38.4838 22.6559 38.0452 22.8893C37.6065 23.1226 37.0978 23.2393 36.5192 23.2393C35.8658 23.2393 35.2685 23.0713 34.7272 22.7353C34.1858 22.3993 33.7565 21.9279 33.4392 21.3213C33.1312 20.7053 32.9772 20.0006 32.9772 19.2073ZM39.0812 19.2353C39.0812 18.7593 38.9878 18.3533 38.8012 18.0173C38.6145 17.6719 38.3625 17.4106 38.0452 17.2333C37.7278 17.0466 37.3872 16.9533 37.0232 16.9533C36.6592 16.9533 36.3232 17.0419 36.0152 17.2193C35.7072 17.3966 35.4552 17.6579 35.2592 18.0033C35.0725 18.3393 34.9792 18.7406 34.9792 19.2073C34.9792 19.6739 35.0725 20.0846 35.2592 20.4393C35.4552 20.7846 35.7072 21.0506 36.0152 21.2373C36.3325 21.4239 36.6685 21.5173 37.0232 21.5173C37.3872 21.5173 37.7278 21.4286 38.0452 21.2513C38.3625 21.0646 38.6145 20.8033 38.8012 20.4673C38.9878 20.1219 39.0812 19.7113 39.0812 19.2353ZM18.344 39.1013C18.8947 39.2039 19.3473 39.4793 19.702 39.9273C20.0567 40.3753 20.234 40.8886 20.234 41.4673C20.234 41.9899 20.1033 42.4519 19.842 42.8533C19.59 43.2453 19.2213 43.5533 18.736 43.7773C18.2507 44.0013 17.6767 44.1133 17.014 44.1133H12.8V34.3413H16.832C17.4947 34.3413 18.064 34.4486 18.54 34.6633C19.0253 34.8779 19.3893 35.1766 19.632 35.5593C19.884 35.9419 20.01 36.3759 20.01 36.8613C20.01 37.4306 19.856 37.9066 19.548 38.2893C19.2493 38.6719 18.848 38.9426 18.344 39.1013ZM14.76 38.3733H16.552C17.0187 38.3733 17.378 38.2706 17.63 38.0653C17.882 37.8506 18.008 37.5473 18.008 37.1553C18.008 36.7633 17.882 36.4599 17.63 36.2453C17.378 36.0306 17.0187 35.9233 16.552 35.9233H14.76V38.3733ZM16.734 42.5173C17.21 42.5173 17.5787 42.4053 17.84 42.1813C18.1107 41.9573 18.246 41.6399 18.246 41.2293C18.246 40.8093 18.106 40.4826 17.826 40.2493C17.546 40.0066 17.168 39.8853 16.692 39.8853H14.76V42.5173H16.734ZM23.7911 33.7533V44.1133H21.8311V33.7533H23.7911ZM29.2066 44.2393C28.4599 44.2393 27.7879 44.0759 27.1906 43.7493C26.5932 43.4133 26.1219 42.9419 25.7766 42.3353C25.4406 41.7286 25.2726 41.0286 25.2726 40.2353C25.2726 39.4419 25.4452 38.7419 25.7906 38.1353C26.1452 37.5286 26.6259 37.0619 27.2326 36.7353C27.8392 36.3993 28.5159 36.2313 29.2626 36.2313C30.0092 36.2313 30.6859 36.3993 31.2926 36.7353C31.8992 37.0619 32.3752 37.5286 32.7206 38.1353C33.0752 38.7419 33.2526 39.4419 33.2526 40.2353C33.2526 41.0286 33.0706 41.7286 32.7066 42.3353C32.3519 42.9419 31.8666 43.4133 31.2506 43.7493C30.6439 44.0759 29.9626 44.2393 29.2066 44.2393ZM29.2066 42.5313C29.5612 42.5313 29.8926 42.4473 30.2006 42.2793C30.5179 42.1019 30.7699 41.8406 30.9566 41.4953C31.1432 41.1499 31.2366 40.7299 31.2366 40.2353C31.2366 39.4979 31.0406 38.9333 30.6486 38.5413C30.2659 38.1399 29.7946 37.9393 29.2346 37.9393C28.6746 37.9393 28.2032 38.1399 27.8206 38.5413C27.4472 38.9333 27.2606 39.4979 27.2606 40.2353C27.2606 40.9726 27.4426 41.5419 27.8066 41.9433C28.1799 42.3353 28.6466 42.5313 29.2066 42.5313ZM38.1693 44.2393C37.4226 44.2393 36.7506 44.0759 36.1533 43.7493C35.556 43.4133 35.0846 42.9419 34.7393 42.3353C34.4033 41.7286 34.2353 41.0286 34.2353 40.2353C34.2353 39.4419 34.408 38.7419 34.7533 38.1353C35.108 37.5286 35.5886 37.0619 36.1953 36.7353C36.802 36.3993 37.4786 36.2313 38.2253 36.2313C38.972 36.2313 39.6486 36.3993 40.2553 36.7353C40.862 37.0619 41.338 37.5286 41.6833 38.1353C42.038 38.7419 42.2153 39.4419 42.2153 40.2353C42.2153 41.0286 42.0333 41.7286 41.6693 42.3353C41.3146 42.9419 40.8293 43.4133 40.2133 43.7493C39.6066 44.0759 38.9253 44.2393 38.1693 44.2393ZM38.1693 42.5313C38.524 42.5313 38.8553 42.4473 39.1633 42.2793C39.4806 42.1019 39.7326 41.8406 39.9193 41.4953C40.106 41.1499 40.1993 40.7299 40.1993 40.2353C40.1993 39.4979 40.0033 38.9333 39.6113 38.5413C39.2286 38.1399 38.7573 37.9393 38.1973 37.9393C37.6373 37.9393 37.166 38.1399 36.7833 38.5413C36.41 38.9333 36.2233 39.4979 36.2233 40.2353C36.2233 40.9726 36.4053 41.5419 36.7693 41.9433C37.1426 42.3353 37.6093 42.5313 38.1693 42.5313ZM43.184 40.2073C43.184 39.4233 43.338 38.7279 43.646 38.1213C43.9634 37.5146 44.3927 37.0479 44.934 36.7213C45.4754 36.3946 46.0774 36.2313 46.74 36.2313C47.244 36.2313 47.7247 36.3433 48.182 36.5673C48.6394 36.7819 49.0034 37.0713 49.274 37.4353V33.7533H51.262V44.1133H49.274V42.9653C49.0314 43.3479 48.6907 43.6559 48.252 43.8893C47.8134 44.1226 47.3047 44.2393 46.726 44.2393C46.0727 44.2393 45.4754 44.0713 44.934 43.7353C44.3927 43.3993 43.9634 42.9279 43.646 42.3213C43.338 41.7053 43.184 41.0006 43.184 40.2073ZM49.288 40.2353C49.288 39.7593 49.1947 39.3533 49.008 39.0173C48.8214 38.6719 48.5694 38.4106 48.252 38.2333C47.9347 38.0466 47.594 37.9533 47.23 37.9533C46.866 37.9533 46.53 38.0419 46.222 38.2193C45.914 38.3966 45.662 38.6579 45.466 39.0033C45.2794 39.3393 45.186 39.7406 45.186 40.2073C45.186 40.6739 45.2794 41.0846 45.466 41.4393C45.662 41.7846 45.914 42.0506 46.222 42.2373C46.5394 42.4239 46.8754 42.5173 47.23 42.5173C47.594 42.5173 47.9347 42.4286 48.252 42.2513C48.5694 42.0646 48.8214 41.8033 49.008 41.4673C49.1947 41.1219 49.288 40.7113 49.288 40.2353ZM58.7553 39.1013C59.306 39.2039 59.7586 39.4793 60.1133 39.9273C60.468 40.3753 60.6453 40.8886 60.6453 41.4673C60.6453 41.9899 60.5146 42.4519 60.2533 42.8533C60.0013 43.2453 59.6326 43.5533 59.1473 43.7773C58.662 44.0013 58.088 44.1133 57.4253 44.1133H53.2113V34.3413H57.2433C57.906 34.3413 58.4753 34.4486 58.9513 34.6633C59.4366 34.8779 59.8006 35.1766 60.0433 35.5593C60.2953 35.9419 60.4213 36.3759 60.4213 36.8613C60.4213 37.4306 60.2673 37.9066 59.9593 38.2893C59.6606 38.6719 59.2593 38.9426 58.7553 39.1013ZM55.1713 38.3733H56.9633C57.43 38.3733 57.7893 38.2706 58.0413 38.0653C58.2933 37.8506 58.4193 37.5473 58.4193 37.1553C58.4193 36.7633 58.2933 36.4599 58.0413 36.2453C57.7893 36.0306 57.43 35.9233 56.9633 35.9233H55.1713V38.3733ZM57.1453 42.5173C57.6213 42.5173 57.99 42.4053 58.2513 42.1813C58.522 41.9573 58.6573 41.6399 58.6573 41.2293C58.6573 40.8093 58.5173 40.4826 58.2373 40.2493C57.9573 40.0066 57.5793 39.8853 57.1033 39.8853H55.1713V42.5173H57.1453ZM61.7384 40.2073C61.7384 39.4233 61.8924 38.7279 62.2004 38.1213C62.5177 37.5146 62.9424 37.0479 63.4744 36.7213C64.0157 36.3946 64.6177 36.2313 65.2804 36.2313C65.8591 36.2313 66.3631 36.3479 66.7924 36.5813C67.2311 36.8146 67.5811 37.1086 67.8424 37.4633V36.3573H69.8164V44.1133H67.8424V42.9793C67.5904 43.3433 67.2404 43.6466 66.7924 43.8893C66.3537 44.1226 65.8451 44.2393 65.2664 44.2393C64.6131 44.2393 64.0157 44.0713 63.4744 43.7353C62.9424 43.3993 62.5177 42.9279 62.2004 42.3213C61.8924 41.7053 61.7384 41.0006 61.7384 40.2073ZM67.8424 40.2353C67.8424 39.7593 67.7491 39.3533 67.5624 39.0173C67.3757 38.6719 67.1237 38.4106 66.8064 38.2333C66.4891 38.0466 66.1484 37.9533 65.7844 37.9533C65.4204 37.9533 65.0844 38.0419 64.7764 38.2193C64.4684 38.3966 64.2164 38.6579 64.0204 39.0033C63.8337 39.3393 63.7404 39.7406 63.7404 40.2073C63.7404 40.6739 63.8337 41.0846 64.0204 41.4393C64.2164 41.7846 64.4684 42.0506 64.7764 42.2373C65.0937 42.4239 65.4297 42.5173 65.7844 42.5173C66.1484 42.5173 66.4891 42.4286 66.8064 42.2513C67.1237 42.0646 67.3757 41.8033 67.5624 41.4673C67.7491 41.1219 67.8424 40.7113 67.8424 40.2353ZM76.0637 36.2453C76.9877 36.2453 77.7344 36.5393 78.3037 37.1273C78.873 37.7059 79.1577 38.5179 79.1577 39.5633V44.1133H77.1977V39.8293C77.1977 39.2133 77.0437 38.7419 76.7357 38.4153C76.4277 38.0793 76.0077 37.9113 75.4757 37.9113C74.9344 37.9113 74.505 38.0793 74.1877 38.4153C73.8797 38.7419 73.7257 39.2133 73.7257 39.8293V44.1133H71.7657V36.3573H73.7257V37.3233C73.987 36.9873 74.3184 36.7259 74.7197 36.5393C75.1304 36.3433 75.5784 36.2453 76.0637 36.2453ZM85.6485 44.1133L83.0165 40.8093V44.1133H81.0565V33.7533H83.0165V39.6473L85.6205 36.3573H88.1685L84.7525 40.2493L88.1965 44.1133H85.6485ZM92.2353 44.2393C91.6007 44.2393 91.0313 44.1273 90.5273 43.9033C90.0233 43.6699 89.622 43.3573 89.3233 42.9653C89.034 42.5733 88.8753 42.1393 88.8473 41.6633H90.8213C90.8587 41.9619 91.0033 42.2093 91.2553 42.4053C91.5167 42.6013 91.8387 42.6993 92.2213 42.6993C92.5947 42.6993 92.884 42.6246 93.0893 42.4753C93.304 42.3259 93.4113 42.1346 93.4113 41.9013C93.4113 41.6493 93.2807 41.4626 93.0193 41.3413C92.7673 41.2106 92.3613 41.0706 91.8013 40.9213C91.2227 40.7813 90.7467 40.6366 90.3733 40.4873C90.0093 40.3379 89.692 40.1093 89.4213 39.8013C89.16 39.4933 89.0293 39.0779 89.0293 38.5553C89.0293 38.1259 89.1507 37.7339 89.3933 37.3793C89.6453 37.0246 90 36.7446 90.4573 36.5393C90.924 36.3339 91.47 36.2313 92.0953 36.2313C93.0193 36.2313 93.7567 36.4646 94.3073 36.9313C94.858 37.3886 95.1613 38.0093 95.2173 38.7933H93.3413C93.3133 38.4853 93.1827 38.2426 92.9493 38.0653C92.7253 37.8786 92.422 37.7853 92.0393 37.7853C91.6847 37.7853 91.4093 37.8506 91.2133 37.9813C91.0267 38.1119 90.9333 38.2939 90.9333 38.5273C90.9333 38.7886 91.064 38.9893 91.3253 39.1293C91.5867 39.2599 91.9927 39.3953 92.5433 39.5353C93.1033 39.6753 93.5653 39.8199 93.9293 39.9693C94.2933 40.1186 94.606 40.3519 94.8673 40.6693C95.138 40.9773 95.278 41.3879 95.2873 41.9013C95.2873 42.3493 95.1613 42.7506 94.9093 43.1053C94.6667 43.4599 94.312 43.7399 93.8453 43.9453C93.388 44.1413 92.8513 44.2393 92.2353 44.2393Z" fill="white"/>
</g>
<g clip-path="url(#clip1_2498_1766)">
<path d="M68.293 129.055H73.6588V136.628H68.293V129.055Z" fill="#B8B1BB"/>
<path d="M82.1152 129.055H87.4811V136.628H82.1152V129.055Z" fill="#B8B1BB"/>
<path d="M100.067 61.3174L93.668 56.8998C84.0911 50.3798 71.5457 50.3798 61.9689 56.8998L55.5519 61.3174C53.2739 62.8684 51.9824 65.4459 51.9824 68.2017V106.888C51.9824 111.508 53.3302 116.087 55.9413 119.899L62.2099 129.189H93.5616L99.7002 119.899C102.311 116.087 103.529 111.508 103.529 106.888V68.2017C103.529 65.4457 102.345 62.8682 100.067 61.3174ZM86.7934 62.2645H68.9727C67.5768 62.2645 67.0198 60.4359 68.1724 59.6487L68.3085 59.5432C71.1435 57.613 74.4549 56.5823 77.8845 56.5823C81.3141 56.5823 84.6254 57.6058 87.4605 59.536L87.593 59.65C88.7463 60.437 88.1895 62.2645 86.7934 62.2645Z" fill="#E5DCDF"/>
<path d="M99.425 70.1949V104.47C99.425 109.773 97.8242 114.952 94.8325 119.33L91.2303 124.602H64.5442L60.942 119.33C57.9502 114.952 56.3496 109.773 56.3496 104.47V70.1949C56.3496 69.757 56.6424 69.3734 57.0646 69.2575L64.8607 67.1214C73.3865 64.7853 82.3835 64.7851 90.9093 67.1205L98.7102 69.2575C99.1324 69.3734 99.425 69.7572 99.425 70.1949Z" fill="#D64C52"/>
<path d="M62.4609 78.1733H93.313V107.791H62.4609V78.1733Z" fill="white"/>
<path d="M77.3242 94.7524H90.3192V95.1856H77.3242V94.7524Z" fill="#3A2F32"/>
<path d="M77.3242 96.4849H90.3192V96.918H77.3242V96.4849Z" fill="#3A2F32"/>
<path d="M77.3242 98.001H90.3192V98.4341H77.3242V98.001Z" fill="#3A2F32"/>
<path d="M77.3242 99.7334H90.3192V100.167H77.3242V99.7334Z" fill="#3A2F32"/>
<path d="M77.3242 101.25H90.3192V101.683H77.3242V101.25Z" fill="#3A2F32"/>
<path d="M64.5449 105.365H90.5349V106.014H64.5449V105.365Z" fill="#3A2F32"/>
<path d="M64.5449 80.2412H90.5349V81.3241H64.5449V80.2412Z" fill="#3A2F32"/>
<path d="M75.9805 124.602H79.7928V136.628H75.9805V124.602Z" fill="#D64C52"/>
<path d="M61.2662 92.2002H60.0444C51.9481 92.2002 45.3848 85.6368 45.3848 77.5405C45.3848 69.4442 51.9481 62.8809 60.0444 62.8809H61.2662C69.3625 62.8809 75.9258 69.4442 75.9258 77.5405C75.9256 85.6368 69.3623 92.2002 61.2662 92.2002Z" fill="#6E6075"/>
<path d="M60.9121 85.886H60.3969C58.0974 85.886 56.2266 84.0152 56.2266 81.7157V73.3651C56.2266 71.0657 58.0974 69.1948 60.3969 69.1948H60.9121C63.2114 69.1948 65.0822 71.0657 65.0822 73.3651V81.7159C65.0822 84.0154 63.2114 85.886 60.9121 85.886ZM60.3969 70.0612C58.5752 70.0612 57.0929 71.5435 57.0929 73.3651V81.7159C57.0929 83.5376 58.5752 85.0199 60.3969 85.0199H60.9121C62.7338 85.0199 64.2159 83.5376 64.2159 81.7159V73.3651C64.2159 71.5435 62.7338 70.0612 60.9121 70.0612H60.3969Z" fill="white"/>
</g>
</g>
</g>
<defs>
<filter id="filter0_d_2498_1766" x="0.333984" y="0" width="118.666" height="146" filterUnits="userSpaceOnUse" color-interpolation-filters="sRGB">
<feFlood flood-opacity="0" result="BackgroundImageFix"/>
<feColorMatrix in="SourceAlpha" type="matrix" values="0 0 0 0 0 0 0 0 0 0 0 0 0 0 0 0 0 0 127 0" result="hardAlpha"/>
<feOffset dy="4"/>
<feGaussianBlur stdDeviation="4"/>
<feComposite in2="hardAlpha" operator="out"/>
<feColorMatrix type="matrix" values="0 0 0 0 0 0 0 0 0 0 0 0 0 0 0 0 0 0 0.08 0"/>
<feBlend mode="normal" in2="BackgroundImageFix" result="effect1_dropShadow_2498_1766"/>
<feBlend mode="normal" in="SourceGraphic" in2="effect1_dropShadow_2498_1766" result="shape"/>
</filter>
<filter id="filter1_d_2498_1766" x="0.333984" y="0" width="119" height="146" filterUnits="userSpaceOnUse" color-interpolation-filters="sRGB">
<feFlood flood-opacity="0" result="BackgroundImageFix"/>
<feColorMatrix in="SourceAlpha" type="matrix" values="0 0 0 0 0 0 0 0 0 0 0 0 0 0 0 0 0 0 127 0" result="hardAlpha"/>
<feOffset dy="4"/>
<feGaussianBlur stdDeviation="4"/>
<feComposite in2="hardAlpha" operator="out"/>
<feColorMatrix type="matrix" values="0 0 0 0 0 0 0 0 0 0 0 0 0 0 0 0 0 0 0.08 0"/>
<feBlend mode="normal" in2="BackgroundImageFix" result="effect1_dropShadow_2498_1766"/>
<feBlend mode="normal" in="SourceGraphic" in2="effect1_dropShadow_2498_1766" result="shape"/>
</filter>
<clipPath id="clip0_2498_1766">
<rect x="8.33398" y="4" width="102.667" height="130" rx="6" fill="white"/>
</clipPath>
<clipPath id="clip1_2498_1766">
<rect width="84.6182" height="84.6182" fill="white" transform="translate(32.1484 52.0098)"/>
</clipPath>
</defs>
</svg>
