<svg width="148" height="148" viewBox="0 0 148 148" fill="none" xmlns="http://www.w3.org/2000/svg">
<mask id="mask0_2324_6217" style="mask-type:luminance" maskUnits="userSpaceOnUse" x="0" y="0" width="148" height="148">
<path d="M148 0H0V148H148V0Z" fill="white"/>
</mask>
<g mask="url(#mask0_2324_6217)">
<path d="M87.5371 23.9017L94.6769 30.1734C95.2349 30.6636 95.908 31.0045 96.6337 31.1646L105.924 33.2115C107.365 33.529 108.551 34.5466 109.078 35.9198L112.48 44.7722C112.746 45.4635 113.184 46.077 113.752 46.5544L121.032 52.6649C122.161 53.6128 122.737 55.062 122.564 56.5207L121.449 65.925C121.362 66.6596 121.464 67.4047 121.745 68.0901L125.346 76.8645C125.905 78.2255 125.739 79.7738 124.905 80.9839L119.528 88.7868C119.108 89.3964 118.851 90.1023 118.78 90.8386L117.878 100.266C117.738 101.729 116.869 103.022 115.565 103.706L107.159 108.119C106.502 108.464 105.944 108.969 105.538 109.588L100.339 117.51C99.5329 118.739 98.1589 119.48 96.6835 119.482L87.1728 119.494C86.43 119.495 85.6999 119.684 85.051 120.044L76.7466 124.645C75.4586 125.358 73.895 125.378 72.5863 124.697L64.1504 120.306C63.4914 119.963 62.7559 119.792 62.0133 119.81L52.5056 120.035C51.0308 120.071 49.6358 119.364 48.7935 118.156L43.3649 110.368C42.9409 109.76 42.3685 109.268 41.7019 108.94L33.1693 104.739C31.8456 104.087 30.9386 102.817 30.7561 101.359L29.5782 91.9575C29.4861 91.2231 29.2084 90.523 28.7708 89.9244L23.1676 82.2594C22.2984 81.0702 22.0874 79.5268 22.6058 78.1525L25.9489 69.2912C26.21 68.599 26.2901 67.8515 26.1814 67.1193L24.7916 57.7461C24.5759 56.2922 25.1091 54.8294 26.21 53.8538L33.3079 47.5627C33.8623 47.0712 34.2822 46.4476 34.5275 45.7495L37.6694 36.8152C38.1565 35.4291 39.3116 34.3821 40.7431 34.0287L49.9699 31.7492C50.6907 31.5714 51.3537 31.2136 51.897 30.7099L58.8505 24.2614C59.9291 23.261 61.4418 22.8694 62.8754 23.2191L72.1174 25.4737C72.8393 25.6496 73.5941 25.6407 74.3108 25.4465L83.4831 22.9606C84.9062 22.5751 86.4297 22.9288 87.5371 23.9017Z" fill="#00C885"/>
<path d="M55.541 76.6419C59.5249 80.6258 66.9101 88.011 66.9101 88.011C66.9101 88.011 93.7605 61.1601 94.8982 60.0225" stroke="white" stroke-width="5.18" stroke-miterlimit="10"/>
<mask id="mask1_2324_6217" style="mask-type:luminance" maskUnits="userSpaceOnUse" x="4" y="4" width="140" height="140">
<path d="M4.44141 4.43848H143.561V143.558H4.44141V4.43848Z" fill="white"/>
</mask>
<g mask="url(#mask1_2324_6217)">
<path d="M72.0293 14.9921C72.0293 11.3893 72.0293 7.56934 72.0293 7.56934" stroke="#00C885" stroke-width="2.7824" stroke-miterlimit="10"/>
<path d="M72.1465 136.836C72.1465 136.836 72.1465 133.016 72.1465 129.413" stroke="#00C885" stroke-width="2.7824" stroke-miterlimit="10"/>
<path d="M129.297 72.1436C132.9 72.1436 136.72 72.1436 136.72 72.1436" stroke="#00C885" stroke-width="2.7824" stroke-miterlimit="10"/>
<path d="M7.45312 72.2607C7.45312 72.2607 11.2731 72.2607 14.8759 72.2607" stroke="#00C885" stroke-width="2.7824" stroke-miterlimit="10"/>
<path d="M112.582 112.614C115.13 115.162 117.831 117.863 117.831 117.863" stroke="#00C885" stroke-width="2.7824" stroke-miterlimit="10"/>
<path d="M26.3457 26.541C26.3457 26.541 29.0467 29.2423 31.5942 31.7898" stroke="#00C885" stroke-width="2.7824" stroke-miterlimit="10"/>
<path d="M112.5 31.7075C115.048 29.16 117.749 26.459 117.749 26.459" stroke="#00C885" stroke-width="2.7824" stroke-miterlimit="10"/>
<path d="M26.4258 117.945C26.4258 117.945 29.1268 115.244 31.6743 112.696" stroke="#00C885" stroke-width="2.7824" stroke-miterlimit="10"/>
</g>
</g>
</svg>
