<svg width="25" height="25" viewBox="0 0 25 25" fill="none" xmlns="http://www.w3.org/2000/svg">
<mask id="mask0_2392_5232" style="mask-type:alpha" maskUnits="userSpaceOnUse" x="0" y="0" width="25" height="25">
<rect x="0.667969" y="0.5" width="24" height="24" fill="#D9D9D9"/>
</mask>
<g mask="url(#mask0_2392_5232)">
<path d="M6.66797 16.5H14.668V15.95C14.668 15.2167 14.3013 14.625 13.568 14.175C12.8346 13.725 11.868 13.5 10.668 13.5C9.46797 13.5 8.5013 13.725 7.76797 14.175C7.03464 14.625 6.66797 15.2167 6.66797 15.95V16.5ZM10.668 12.5C11.218 12.5 11.6888 12.3042 12.0805 11.9125C12.4721 11.5208 12.668 11.05 12.668 10.5C12.668 9.95 12.4721 9.47917 12.0805 9.0875C11.6888 8.69583 11.218 8.5 10.668 8.5C10.118 8.5 9.64714 8.69583 9.25547 9.0875C8.8638 9.47917 8.66797 9.95 8.66797 10.5C8.66797 11.05 8.8638 11.5208 9.25547 11.9125C9.64714 12.3042 10.118 12.5 10.668 12.5ZM4.66797 20.5C4.11797 20.5 3.64714 20.3042 3.25547 19.9125C2.8638 19.5208 2.66797 19.05 2.66797 18.5V6.5C2.66797 5.95 2.8638 5.47917 3.25547 5.0875C3.64714 4.69583 4.11797 4.5 4.66797 4.5H16.668C17.218 4.5 17.6888 4.69583 18.0805 5.0875C18.4721 5.47917 18.668 5.95 18.668 6.5V11L22.668 7V18L18.668 14V18.5C18.668 19.05 18.4721 19.5208 18.0805 19.9125C17.6888 20.3042 17.218 20.5 16.668 20.5H4.66797ZM4.66797 18.5H16.668V6.5H4.66797V18.5Z" fill="#376095"/>
</g>
</svg>
