<svg width="100" height="30" viewBox="0 0 70 18" fill="none" xmlns="http://www.w3.org/2000/svg">
    <g clip-path="url(#clip0_2413_8742)">
        <path d="M2.9028 16.8468C1.4888 16.8468 0.5 16.258 0.5 14.3732V0.357422H3.60813V13.1956C3.60813 14.138 3.84324 14.3732 4.78535 14.3732H13.6395V16.8468H2.9028Z"
              fill="white"/>
        <path d="M14.8652 16.8468V0.357422H17.9734V16.8468H14.8652Z" fill="white"/>
        <path d="M37.0739 8.6021C37.0739 15.2689 34.7428 17.0353 28.5965 17.0353C22.497 17.0353 20.1426 15.2689 20.1426 8.6021C20.1426 1.9353 22.497 0.168945 28.5965 0.168945C34.7428 0.168945 37.0739 1.9353 37.0739 8.6021ZM28.5949 14.5617C32.6451 14.5617 33.8707 13.3124 33.8707 8.6021C33.8707 3.89181 32.6468 2.64252 28.5949 2.64252C24.543 2.64252 23.3441 3.89014 23.3441 8.6021C23.3441 13.3141 24.5446 14.5617 28.5949 14.5617Z"
              fill="white"/>
        <path d="M50.4502 10.8638V0.357422H53.5583V10.8638C53.5583 15.5758 50.8738 17.0353 46.3983 17.0353C41.9245 17.0353 39.2383 15.5741 39.2383 10.8638V0.357422H42.3464V10.8638C42.3464 13.4558 43.5703 14.5617 46.3966 14.5617C49.2263 14.5617 50.4502 13.4558 50.4502 10.8638Z"
              fill="white"/>
        <path d="M55.702 14.3729H64.8396C66.3236 14.3729 66.3937 13.1486 66.3937 12.5832C66.3937 11.9477 66.2286 11.1705 64.7929 10.7218L58.2932 8.67187C56.1272 7.98801 55.4902 6.59861 55.4902 4.33687C55.4902 1.98172 56.6441 0.355469 59.2587 0.355469H68.7498V2.82904H60.0841C59.307 2.82904 58.6951 3.2994 58.6951 4.47864C58.6951 5.2092 58.8135 5.91641 60.1324 6.34007L66.1619 8.24821C68.5647 9.00212 69.6002 10.0146 69.6002 12.6066C69.6002 15.0334 68.6114 16.8465 66.0669 16.8465H55.7053V14.3729H55.702Z"
              fill="white"/>
    </g>
    <defs>
        <clipPath id="clip0_2413_8742">
            <rect width="69.0975" height="16.8663" fill="white" transform="translate(0.5 0.168945)"/>
        </clipPath>
    </defs>
</svg>
